<svg xmlns="http://www.w3.org/2000/svg" xmlns:xlink="http://www.w3.org/1999/xlink" width="180" viewBox="0 0 135 37.5" height="50" preserveAspectRatio="xMidYMid meet"><defs><g></g><clipPath id="c37389717b"><path d="M 0.886719 0 L 134.109375 0 L 134.109375 37.007812 L 0.886719 37.007812 Z M 0.886719 0 " clip-rule="nonzero"></path></clipPath><clipPath id="8a75706093"><path d="M 4.589844 2.144531 L 38.636719 2.144531 L 38.636719 36.191406 L 4.589844 36.191406 Z M 4.589844 2.144531 " clip-rule="nonzero"></path></clipPath><clipPath id="8e2558d7c9"><path d="M 33.082031 2.210938 L 131.503906 2.210938 L 131.503906 35.894531 L 33.082031 35.894531 Z M 33.082031 2.210938 " clip-rule="nonzero"></path></clipPath><clipPath id="cf71a45d31"><path d="M 34.5625 2.210938 L 129.96875 2.210938 C 130.359375 2.210938 130.734375 2.367188 131.015625 2.644531 C 131.292969 2.921875 131.449219 3.300781 131.449219 3.691406 L 131.449219 34.417969 C 131.449219 34.808594 131.292969 35.183594 131.015625 35.460938 C 130.734375 35.742188 130.359375 35.894531 129.96875 35.894531 L 34.5625 35.894531 C 34.171875 35.894531 33.796875 35.742188 33.515625 35.460938 C 33.238281 35.183594 33.082031 34.808594 33.082031 34.417969 L 33.082031 3.691406 C 33.082031 3.300781 33.238281 2.921875 33.515625 2.644531 C 33.796875 2.367188 34.171875 2.210938 34.5625 2.210938 Z M 34.5625 2.210938 " clip-rule="nonzero"></path></clipPath></defs><g clip-path="url(#c37389717b)"><path fill="#ffffff" d="M 0.886719 0 L 134.113281 0 L 134.113281 37.007812 L 0.886719 37.007812 Z M 0.886719 0 " fill-opacity="1" fill-rule="nonzero"></path><path fill="#000000" d="M 0.886719 0 L 134.113281 0 L 134.113281 37.007812 L 0.886719 37.007812 Z M 0.886719 0 " fill-opacity="1" fill-rule="nonzero"></path></g><g clip-path="url(#8a75706093)"><path fill="#354ca1" d="M 8.128906 2.144531 L 35.09375 2.144531 C 37.054688 2.144531 38.636719 3.726562 38.636719 5.6875 L 38.636719 32.652344 C 38.636719 34.613281 37.054688 36.191406 35.09375 36.191406 L 8.128906 36.191406 C 6.167969 36.191406 4.589844 34.613281 4.589844 32.652344 L 4.589844 5.6875 C 4.589844 3.726562 6.167969 2.144531 8.128906 2.144531 " fill-opacity="1" fill-rule="nonzero"></path></g><path fill="#ffffff" d="M 14.1875 17.558594 C 11.699219 19.011719 10.160156 21.671875 10.148438 24.554688 C 10.132812 29.050781 13.769531 32.707031 18.265625 32.722656 C 21.996094 32.730469 25.253906 30.199219 26.171875 26.582031 L 24.476562 23.628906 C 24.527344 23.949219 24.554688 24.273438 24.554688 24.601562 C 24.542969 28.0625 21.730469 30.859375 18.269531 30.847656 C 14.808594 30.835938 12.011719 28.023438 12.023438 24.5625 C 12.03125 22.683594 12.878906 20.90625 14.339844 19.71875 L 14.1875 17.558594 " fill-opacity="1" fill-rule="nonzero"></path><path fill="#ffffff" d="M 16.511719 5.617188 C 15.722656 5.617188 14.964844 5.929688 14.40625 6.488281 C 13.847656 7.046875 13.535156 7.804688 13.535156 8.597656 C 13.535156 9.511719 13.957031 10.378906 14.679688 10.941406 C 14.683594 10.957031 14.683594 10.96875 14.683594 10.984375 L 15.417969 21.03125 C 15.464844 21.679688 16.011719 22.167969 16.65625 22.148438 C 16.671875 22.148438 16.683594 22.148438 16.699219 22.148438 L 24.886719 22.148438 L 29.070312 29.390625 C 29.296875 29.789062 29.71875 30.003906 30.144531 29.992188 C 30.34375 29.988281 30.542969 29.9375 30.726562 29.832031 L 32.472656 28.820312 C 33.050781 28.488281 33.246094 27.753906 32.914062 27.175781 C 32.578125 26.601562 31.847656 26.402344 31.269531 26.738281 L 30.554688 27.148438 L 26.625 20.34375 C 26.394531 19.945312 25.972656 19.726562 25.542969 19.742188 C 25.527344 19.742188 25.511719 19.742188 25.496094 19.742188 L 17.738281 19.742188 L 17.5 16.484375 L 22.816406 16.484375 C 23.484375 16.484375 24.019531 15.949219 24.019531 15.28125 C 24.019531 14.613281 23.484375 14.078125 22.816406 14.078125 L 17.324219 14.078125 L 17.136719 11.507812 C 18.507812 11.214844 19.492188 10 19.492188 8.597656 C 19.492188 7.804688 19.179688 7.046875 18.621094 6.488281 C 18.0625 5.929688 17.304688 5.617188 16.511719 5.617188 " fill-opacity="1" fill-rule="nonzero"></path><g clip-path="url(#8e2558d7c9)"><g clip-path="url(#cf71a45d31)"><path fill="#354ca1" d="M 33.082031 2.210938 L 131.503906 2.210938 L 131.503906 35.894531 L 33.082031 35.894531 Z M 33.082031 2.210938 " fill-opacity="1" fill-rule="nonzero"></path></g></g><g fill="#ffffff" fill-opacity="1"><g transform="translate(38.373508, 18.430357)"><g><path d="M 4.015625 0 L 2.609375 0 L 0.5 -9.203125 L 1.5625 -9.203125 L 3.296875 -1.59375 L 3.453125 -1.59375 L 5.515625 -9.203125 L 6.515625 -9.203125 L 8.578125 -1.59375 L 8.75 -1.59375 L 10.484375 -9.203125 L 11.515625 -9.203125 L 9.421875 0 L 8 0 L 6.078125 -6.96875 L 5.9375 -6.96875 Z M 4.015625 0 "></path></g></g></g><g fill="#ffffff" fill-opacity="1"><g transform="translate(50.382045, 18.430357)"><g><path d="M 7.25 -5.46875 L 7.25 -9.203125 L 8.328125 -9.203125 L 8.328125 0 L 7.25 0 L 7.25 -4.546875 L 2.46875 -4.546875 L 2.46875 0 L 1.390625 0 L 1.390625 -9.203125 L 2.46875 -9.203125 L 2.46875 -5.46875 Z M 7.25 -5.46875 "></path></g></g></g><g fill="#ffffff" fill-opacity="1"><g transform="translate(60.107136, 18.430357)"><g><path d="M 2.46875 -4.34375 L 2.46875 -0.890625 L 7.15625 -0.890625 L 7.15625 0 L 1.390625 0 L 1.390625 -9.203125 L 7.0625 -9.203125 L 7.0625 -8.3125 L 2.46875 -8.3125 L 2.46875 -5.234375 L 6.515625 -5.234375 L 6.515625 -4.34375 Z M 2.46875 -4.34375 "></path></g></g></g><g fill="#ffffff" fill-opacity="1"><g transform="translate(67.875886, 18.430357)"><g><path d="M 2.46875 -4.34375 L 2.46875 -0.890625 L 7.15625 -0.890625 L 7.15625 0 L 1.390625 0 L 1.390625 -9.203125 L 7.0625 -9.203125 L 7.0625 -8.3125 L 2.46875 -8.3125 L 2.46875 -5.234375 L 6.515625 -5.234375 L 6.515625 -4.34375 Z M 2.46875 -4.34375 "></path></g></g></g><g fill="#ffffff" fill-opacity="1"><g transform="translate(75.644636, 18.430357)"><g><path d="M 2.46875 -9.203125 L 2.46875 -0.890625 L 6.90625 -0.890625 L 6.90625 0 L 1.390625 0 L 1.390625 -9.203125 Z M 2.46875 -9.203125 "></path></g></g></g><g fill="#ffffff" fill-opacity="1"><g transform="translate(82.935309, 18.430357)"><g><path d="M 5.078125 0.125 C 4.273438 0.125 3.554688 -0.0546875 2.921875 -0.421875 C 2.296875 -0.785156 1.804688 -1.320312 1.453125 -2.03125 C 1.097656 -2.75 0.921875 -3.601562 0.921875 -4.59375 C 0.921875 -5.59375 1.097656 -6.445312 1.453125 -7.15625 C 1.804688 -7.875 2.296875 -8.414062 2.921875 -8.78125 C 3.554688 -9.144531 4.273438 -9.328125 5.078125 -9.328125 C 5.941406 -9.328125 6.660156 -9.164062 7.234375 -8.84375 C 7.804688 -8.519531 8.21875 -8.03125 8.46875 -7.375 L 7.765625 -6.921875 L 7.609375 -6.921875 C 7.359375 -7.441406 7.03125 -7.8125 6.625 -8.03125 C 6.226562 -8.25 5.710938 -8.359375 5.078125 -8.359375 C 4.503906 -8.359375 3.992188 -8.226562 3.546875 -7.96875 C 3.097656 -7.71875 2.738281 -7.3125 2.46875 -6.75 C 2.207031 -6.1875 2.078125 -5.46875 2.078125 -4.59375 C 2.078125 -3.726562 2.207031 -3.015625 2.46875 -2.453125 C 2.738281 -1.898438 3.097656 -1.492188 3.546875 -1.234375 C 3.992188 -0.972656 4.503906 -0.84375 5.078125 -0.84375 C 5.753906 -0.84375 6.300781 -0.992188 6.71875 -1.296875 C 7.144531 -1.597656 7.460938 -2.082031 7.671875 -2.75 L 7.828125 -2.75 L 8.546875 -2.390625 C 8.328125 -1.578125 7.921875 -0.953125 7.328125 -0.515625 C 6.742188 -0.0859375 5.992188 0.125 5.078125 0.125 Z M 5.078125 0.125 "></path></g></g></g><g fill="#ffffff" fill-opacity="1"><g transform="translate(91.955865, 18.430357)"><g><path d="M 7.25 -5.46875 L 7.25 -9.203125 L 8.328125 -9.203125 L 8.328125 0 L 7.25 0 L 7.25 -4.546875 L 2.46875 -4.546875 L 2.46875 0 L 1.390625 0 L 1.390625 -9.203125 L 2.46875 -9.203125 L 2.46875 -5.46875 Z M 7.25 -5.46875 "></path></g></g></g><g fill="#ffffff" fill-opacity="1"><g transform="translate(101.680956, 18.430357)"><g><path d="M 8.28125 0 L 7.125 0 L 6.28125 -2.53125 L 2.359375 -2.53125 L 1.5 0 L 0.359375 0 L 3.578125 -9.203125 L 5.078125 -9.203125 Z M 4.234375 -8.09375 L 2.65625 -3.4375 L 5.96875 -3.4375 L 4.390625 -8.09375 Z M 4.234375 -8.09375 "></path></g></g></g><g fill="#ffffff" fill-opacity="1"><g transform="translate(110.324084, 18.430357)"><g><path d="M 2.46875 0 L 1.390625 0 L 1.390625 -9.203125 L 2.46875 -9.203125 Z M 2.46875 0 "></path></g></g></g><g fill="#ffffff" fill-opacity="1"><g transform="translate(114.192732, 18.430357)"><g><path d="M 1.390625 0 L 1.390625 -9.203125 L 4.734375 -9.203125 C 5.347656 -9.203125 5.863281 -9.097656 6.28125 -8.890625 C 6.707031 -8.691406 7.023438 -8.40625 7.234375 -8.03125 C 7.441406 -7.664062 7.546875 -7.226562 7.546875 -6.71875 C 7.546875 -6.144531 7.398438 -5.671875 7.109375 -5.296875 C 6.828125 -4.929688 6.382812 -4.65625 5.78125 -4.46875 L 5.78125 -4.34375 C 6.082031 -4.21875 6.328125 -4.03125 6.515625 -3.78125 C 6.703125 -3.53125 6.875 -3.15625 7.03125 -2.65625 L 7.890625 0 L 6.765625 0 L 5.859375 -2.8125 C 5.742188 -3.144531 5.613281 -3.40625 5.46875 -3.59375 C 5.332031 -3.78125 5.15625 -3.914062 4.9375 -4 C 4.71875 -4.082031 4.441406 -4.125 4.109375 -4.125 L 2.46875 -4.125 L 2.46875 0 Z M 4.703125 -5.046875 C 5.285156 -5.046875 5.710938 -5.175781 5.984375 -5.4375 C 6.265625 -5.707031 6.40625 -6.117188 6.40625 -6.671875 C 6.40625 -7.210938 6.265625 -7.613281 5.984375 -7.875 C 5.710938 -8.144531 5.285156 -8.28125 4.703125 -8.28125 L 2.46875 -8.28125 L 2.46875 -5.046875 Z M 4.703125 -5.046875 "></path></g></g></g><g fill="#ffffff" fill-opacity="1"><g transform="translate(122.713811, 18.430357)"><g></g></g></g><g fill="#ffffff" fill-opacity="1"><g transform="translate(38.338814, 30.272462)"><g><path d="M 8.28125 0 L 7.125 0 L 6.28125 -2.53125 L 2.359375 -2.53125 L 1.5 0 L 0.359375 0 L 3.578125 -9.203125 L 5.078125 -9.203125 Z M 4.234375 -8.09375 L 2.65625 -3.4375 L 5.96875 -3.4375 L 4.390625 -8.09375 Z M 4.234375 -8.09375 "></path></g></g></g><g fill="#ffffff" fill-opacity="1"><g transform="translate(46.981942, 30.272462)"><g><path d="M 5.078125 0.125 C 4.273438 0.125 3.554688 -0.0546875 2.921875 -0.421875 C 2.296875 -0.785156 1.804688 -1.320312 1.453125 -2.03125 C 1.097656 -2.75 0.921875 -3.601562 0.921875 -4.59375 C 0.921875 -5.59375 1.097656 -6.445312 1.453125 -7.15625 C 1.804688 -7.875 2.296875 -8.414062 2.921875 -8.78125 C 3.554688 -9.144531 4.273438 -9.328125 5.078125 -9.328125 C 5.941406 -9.328125 6.660156 -9.164062 7.234375 -8.84375 C 7.804688 -8.519531 8.21875 -8.03125 8.46875 -7.375 L 7.765625 -6.921875 L 7.609375 -6.921875 C 7.359375 -7.441406 7.03125 -7.8125 6.625 -8.03125 C 6.226562 -8.25 5.710938 -8.359375 5.078125 -8.359375 C 4.503906 -8.359375 3.992188 -8.226562 3.546875 -7.96875 C 3.097656 -7.71875 2.738281 -7.3125 2.46875 -6.75 C 2.207031 -6.1875 2.078125 -5.46875 2.078125 -4.59375 C 2.078125 -3.726562 2.207031 -3.015625 2.46875 -2.453125 C 2.738281 -1.898438 3.097656 -1.492188 3.546875 -1.234375 C 3.992188 -0.972656 4.503906 -0.84375 5.078125 -0.84375 C 5.753906 -0.84375 6.300781 -0.992188 6.71875 -1.296875 C 7.144531 -1.597656 7.460938 -2.082031 7.671875 -2.75 L 7.828125 -2.75 L 8.546875 -2.390625 C 8.328125 -1.578125 7.921875 -0.953125 7.328125 -0.515625 C 6.742188 -0.0859375 5.992188 0.125 5.078125 0.125 Z M 5.078125 0.125 "></path></g></g></g><g fill="#ffffff" fill-opacity="1"><g transform="translate(56.002498, 30.272462)"><g><path d="M 2.46875 -4.34375 L 2.46875 -0.890625 L 7.15625 -0.890625 L 7.15625 0 L 1.390625 0 L 1.390625 -9.203125 L 7.0625 -9.203125 L 7.0625 -8.3125 L 2.46875 -8.3125 L 2.46875 -5.234375 L 6.515625 -5.234375 L 6.515625 -4.34375 Z M 2.46875 -4.34375 "></path></g></g></g><g fill="#ffffff" fill-opacity="1"><g transform="translate(63.771248, 30.272462)"><g><path d="M 4.015625 0.125 C 3.441406 0.125 2.925781 0.046875 2.46875 -0.109375 C 2.007812 -0.265625 1.625 -0.46875 1.3125 -0.71875 C 1.007812 -0.976562 0.78125 -1.257812 0.625 -1.5625 L 1.21875 -2.28125 L 1.375 -2.28125 C 1.945312 -1.320312 2.828125 -0.84375 4.015625 -0.84375 C 4.710938 -0.84375 5.226562 -0.988281 5.5625 -1.28125 C 5.90625 -1.570312 6.078125 -1.972656 6.078125 -2.484375 C 6.078125 -2.785156 6.019531 -3.039062 5.90625 -3.25 C 5.789062 -3.457031 5.601562 -3.632812 5.34375 -3.78125 C 5.09375 -3.9375 4.75 -4.066406 4.3125 -4.171875 L 3.234375 -4.4375 C 2.429688 -4.632812 1.835938 -4.941406 1.453125 -5.359375 C 1.078125 -5.785156 0.890625 -6.320312 0.890625 -6.96875 C 0.890625 -7.425781 1.003906 -7.832031 1.234375 -8.1875 C 1.472656 -8.550781 1.816406 -8.832031 2.265625 -9.03125 C 2.722656 -9.226562 3.269531 -9.328125 3.90625 -9.328125 C 4.59375 -9.328125 5.175781 -9.226562 5.65625 -9.03125 C 6.132812 -8.84375 6.515625 -8.550781 6.796875 -8.15625 L 6.265625 -7.453125 L 6.109375 -7.453125 C 5.847656 -7.773438 5.535156 -8.007812 5.171875 -8.15625 C 4.804688 -8.3125 4.382812 -8.390625 3.90625 -8.390625 C 3.269531 -8.390625 2.785156 -8.265625 2.453125 -8.015625 C 2.128906 -7.765625 1.96875 -7.425781 1.96875 -7 C 1.96875 -6.582031 2.085938 -6.25 2.328125 -6 C 2.566406 -5.757812 2.96875 -5.570312 3.53125 -5.4375 L 4.640625 -5.171875 C 5.535156 -4.960938 6.179688 -4.640625 6.578125 -4.203125 C 6.984375 -3.765625 7.1875 -3.207031 7.1875 -2.53125 C 7.1875 -2.007812 7.066406 -1.546875 6.828125 -1.140625 C 6.597656 -0.742188 6.242188 -0.429688 5.765625 -0.203125 C 5.296875 0.015625 4.710938 0.125 4.015625 0.125 Z M 4.015625 0.125 "></path></g></g></g><g fill="#ffffff" fill-opacity="1"><g transform="translate(71.653227, 30.272462)"><g><path d="M 4.015625 0.125 C 3.441406 0.125 2.925781 0.046875 2.46875 -0.109375 C 2.007812 -0.265625 1.625 -0.46875 1.3125 -0.71875 C 1.007812 -0.976562 0.78125 -1.257812 0.625 -1.5625 L 1.21875 -2.28125 L 1.375 -2.28125 C 1.945312 -1.320312 2.828125 -0.84375 4.015625 -0.84375 C 4.710938 -0.84375 5.226562 -0.988281 5.5625 -1.28125 C 5.90625 -1.570312 6.078125 -1.972656 6.078125 -2.484375 C 6.078125 -2.785156 6.019531 -3.039062 5.90625 -3.25 C 5.789062 -3.457031 5.601562 -3.632812 5.34375 -3.78125 C 5.09375 -3.9375 4.75 -4.066406 4.3125 -4.171875 L 3.234375 -4.4375 C 2.429688 -4.632812 1.835938 -4.941406 1.453125 -5.359375 C 1.078125 -5.785156 0.890625 -6.320312 0.890625 -6.96875 C 0.890625 -7.425781 1.003906 -7.832031 1.234375 -8.1875 C 1.472656 -8.550781 1.816406 -8.832031 2.265625 -9.03125 C 2.722656 -9.226562 3.269531 -9.328125 3.90625 -9.328125 C 4.59375 -9.328125 5.175781 -9.226562 5.65625 -9.03125 C 6.132812 -8.84375 6.515625 -8.550781 6.796875 -8.15625 L 6.265625 -7.453125 L 6.109375 -7.453125 C 5.847656 -7.773438 5.535156 -8.007812 5.171875 -8.15625 C 4.804688 -8.3125 4.382812 -8.390625 3.90625 -8.390625 C 3.269531 -8.390625 2.785156 -8.265625 2.453125 -8.015625 C 2.128906 -7.765625 1.96875 -7.425781 1.96875 -7 C 1.96875 -6.582031 2.085938 -6.25 2.328125 -6 C 2.566406 -5.757812 2.96875 -5.570312 3.53125 -5.4375 L 4.640625 -5.171875 C 5.535156 -4.960938 6.179688 -4.640625 6.578125 -4.203125 C 6.984375 -3.765625 7.1875 -3.207031 7.1875 -2.53125 C 7.1875 -2.007812 7.066406 -1.546875 6.828125 -1.140625 C 6.597656 -0.742188 6.242188 -0.429688 5.765625 -0.203125 C 5.296875 0.015625 4.710938 0.125 4.015625 0.125 Z M 4.015625 0.125 "></path></g></g></g></svg>