<svg xmlns="http://www.w3.org/2000/svg" width="180" height="50" viewBox="0 0 180 50" fill="none"><mask id="mask0_36_93" style="mask-type:luminance" maskUnits="userSpaceOnUse" x="3" y="1" width="48" height="48"><path d="M3.94792 1.28125H50.724V48.0573H3.94792V1.28125Z" fill="white"></path></mask><g mask="url(#mask0_36_93)"><mask id="mask1_36_93" style="mask-type:luminance" maskUnits="userSpaceOnUse" x="3" y="1" width="48" height="48"><path d="M27.3333 1.28125C14.4167 1.28125 3.94792 11.7552 3.94792 24.6719C3.94792 37.5885 14.4167 48.0573 27.3333 48.0573C40.25 48.0573 50.724 37.5885 50.724 24.6719C50.724 11.7552 40.25 1.28125 27.3333 1.28125Z" fill="white"></path></mask><g mask="url(#mask1_36_93)"><path d="M3.94792 1.28125H50.724V48.0573H3.94792V1.28125Z" fill="#354CA1"></path></g></g><path d="M31.4883 6.8454C34.0716 6.8454 36.2852 7.31415 38.1341 8.24123C39.9779 9.1579 41.3893 10.4808 42.3633 12.1996C43.332 13.9235 43.8216 15.9496 43.8216 18.2829C43.8216 20.6058 43.332 22.6266 42.3633 24.3454C41.3893 26.0537 39.9779 27.3766 38.1341 28.3037C36.2852 29.236 34.0716 29.6996 31.4883 29.6996H22.4674V44.4079H18.0508V6.8454H31.4883ZM31.3424 25.9287C36.5768 25.9287 39.1966 23.3819 39.1966 18.2829C39.1966 13.1579 36.5768 10.5954 31.3424 10.5954H22.4674V25.9287H31.3424Z" fill="white"></path><path d="M59.5459 14.6382C60.197 14.6382 60.7542 14.758 61.2126 14.9924C61.6709 15.2163 62.0147 15.5444 62.2542 15.9715C62.5042 16.4038 62.6292 16.909 62.6292 17.4924C62.6292 18.0757 62.5042 18.5861 62.2542 19.0132C62.0147 19.4299 61.6709 19.758 61.2126 19.9924C60.7542 20.2319 60.197 20.3465 59.5459 20.3465H57.2959V24.0132H56.1917V14.6382H59.5459ZM59.5251 19.3882C60.8272 19.3882 61.4834 18.758 61.4834 17.4924C61.4834 16.2163 60.8272 15.5757 59.5251 15.5757H57.2959V19.3882H59.5251Z" fill="white"></path><path d="M64.7526 24.0132V14.6382H68.1693C68.7943 14.6382 69.3203 14.7424 69.7526 14.9507C70.1797 15.1486 70.5026 15.4403 70.7109 15.8257C70.9193 16.2007 71.0234 16.6486 71.0234 17.159C71.0234 17.7424 70.8776 18.2319 70.5859 18.6174C70.3047 18.9924 69.8568 19.2736 69.2318 19.4507V19.5965C69.5339 19.7111 69.7839 19.8986 69.9818 20.159C70.1745 20.409 70.3464 20.7944 70.5026 21.3049L71.3776 24.0132H70.2526L69.3151 21.1382C69.2005 20.8049 69.0703 20.5444 68.9193 20.3465C68.7786 20.1538 68.5964 20.0132 68.3776 19.9299C68.1536 19.8465 67.8672 19.8049 67.5234 19.8049H65.8568V24.0132H64.7526ZM68.1276 18.8674C68.7214 18.8674 69.1589 18.7371 69.4401 18.4715C69.7318 18.1955 69.8776 17.7788 69.8776 17.2215C69.8776 16.6694 69.7318 16.258 69.4401 15.9924C69.1589 15.7163 68.7214 15.5757 68.1276 15.5757H65.8568V18.8674H68.1276Z" fill="white"></path><path d="M74.5525 19.5965V23.0965H79.3442V24.0132H73.4483V14.6382H79.24V15.534H74.5525V18.6799H78.6775V19.5965H74.5525Z" fill="white"></path><path d="M84.2756 19.9299H80.6298V18.9924H84.2756V19.9299Z" fill="white"></path><path d="M89.7176 14.6382C90.3687 14.6382 90.926 14.758 91.3843 14.9924C91.8426 15.2163 92.1864 15.5444 92.426 15.9715C92.676 16.4038 92.801 16.909 92.801 17.4924C92.801 18.0757 92.676 18.5861 92.426 19.0132C92.1864 19.4299 91.8426 19.758 91.3843 19.9924C90.926 20.2319 90.3687 20.3465 89.7176 20.3465H87.4676V24.0132H86.3635V14.6382H89.7176ZM89.6968 19.3882C90.9989 19.3882 91.6551 18.758 91.6551 17.4924C91.6551 16.2163 90.9989 15.5757 89.6968 15.5757H87.4676V19.3882H89.6968Z" fill="white"></path><path d="M101.945 24.0132H100.778L99.9035 21.4299H95.9035L95.0285 24.0132H93.8827L97.1535 14.6382H98.6743L101.945 24.0132ZM97.8202 15.7632L96.216 20.5132H99.591L97.9868 15.7632H97.8202Z" fill="white"></path><path d="M106.915 24.0132H105.811V20.3257L102.582 14.6382H103.79L106.311 19.034H106.478L108.978 14.6382H110.165L106.915 20.3257V24.0132Z" fill="white"></path><path d="M118.399 14.6382C119.05 14.6382 119.608 14.758 120.066 14.9924C120.524 15.2163 120.868 15.5444 121.108 15.9715C121.358 16.4038 121.483 16.909 121.483 17.4924C121.483 18.0757 121.358 18.5861 121.108 19.0132C120.868 19.4299 120.524 19.758 120.066 19.9924C119.608 20.2319 119.05 20.3465 118.399 20.3465H116.149V24.0132H115.045V14.6382H118.399ZM118.379 19.3882C119.681 19.3882 120.337 18.758 120.337 17.4924C120.337 16.2163 119.681 15.5757 118.379 15.5757H116.149V19.3882H118.379Z" fill="white"></path><path d="M130.627 24.0132H129.46L128.585 21.4299H124.585L123.71 24.0132H122.564L125.835 14.6382H127.356L130.627 24.0132ZM126.502 15.7632L124.898 20.5132H128.273L126.669 15.7632H126.502Z" fill="white"></path><path d="M132.43 24.0132V14.6382H135.847C136.472 14.6382 136.998 14.7424 137.43 14.9507C137.857 15.1486 138.18 15.4403 138.389 15.8257C138.597 16.2007 138.701 16.6486 138.701 17.159C138.701 17.7424 138.555 18.2319 138.264 18.6174C137.982 18.9924 137.534 19.2736 136.909 19.4507V19.5965C137.211 19.7111 137.461 19.8986 137.659 20.159C137.852 20.409 138.024 20.7944 138.18 21.3049L139.055 24.0132H137.93L136.993 21.1382C136.878 20.8049 136.748 20.5444 136.597 20.3465C136.456 20.1538 136.274 20.0132 136.055 19.9299C135.831 19.8465 135.545 19.8049 135.201 19.8049H133.534V24.0132H132.43ZM135.805 18.8674C136.399 18.8674 136.836 18.7371 137.118 18.4715C137.409 18.1955 137.555 17.7788 137.555 17.2215C137.555 16.6694 137.409 16.258 137.118 15.9924C136.836 15.7163 136.399 15.5757 135.805 15.5757H133.534V18.8674H135.805Z" fill="white"></path><path d="M141.126 24.0132V14.6382H142.23V18.7215H142.438L146.293 14.6382H147.48V14.784L143.418 19.1799L147.813 23.8465V24.0132H146.543L142.438 19.7007H142.23V24.0132H141.126Z" fill="white"></path><path d="M150.515 24.0132H149.411V14.6382H150.515V24.0132Z" fill="white"></path><path d="M154.444 24.0132H153.36V14.6382H154.715L159.298 21.8049L159.444 21.7632V14.6382H160.527V24.0132H159.36L154.61 16.3465L154.444 16.3674V24.0132Z" fill="white"></path><path d="M166.893 24.1382C166.102 24.1382 165.404 23.9663 164.81 23.6174C164.211 23.258 163.737 22.7163 163.393 21.9924C163.06 21.2736 162.893 20.383 162.893 19.3257C162.893 18.2736 163.071 17.383 163.435 16.659C163.794 15.9403 164.294 15.3986 164.935 15.034C165.571 14.6747 166.315 14.4924 167.164 14.4924C168.065 14.4924 168.8 14.659 169.373 14.9924C169.956 15.3153 170.362 15.7945 170.602 16.4299L169.893 16.8465H169.727C169.477 16.3622 169.143 16.0132 168.727 15.8049C168.31 15.5965 167.789 15.4924 167.164 15.4924C165.107 15.4924 164.081 16.7736 164.081 19.3257C164.081 20.659 164.336 21.633 164.852 22.2424C165.362 22.857 166.086 23.159 167.018 23.159C167.878 23.159 168.518 22.9663 168.935 22.5757C169.362 22.1903 169.581 21.5705 169.581 20.7215V19.909H166.914V19.0132H170.664V24.0132H169.643V22.7632L169.498 22.7215C169.248 23.2111 168.899 23.5705 168.456 23.8049C168.024 24.0236 167.503 24.1382 166.893 24.1382Z" fill="white"></path><path d="M57.2751 41.7764H56.1917V32.4014H57.5459L62.1292 39.568L62.2751 39.5264V32.4014H63.3584V41.7764H62.1917L57.4417 34.1097L57.2751 34.1305V41.7764Z" fill="white"></path><path d="M67.3082 37.3597V40.8597H72.0999V41.7764H66.204V32.4014H71.9957V33.2972H67.3082V36.443H71.4332V37.3597H67.3082Z" fill="white"></path><path d="M81.1563 41.7764H79.9897L79.1147 39.193H75.1147L74.2397 41.7764H73.0938L76.3647 32.4014H77.8855L81.1563 41.7764ZM77.0313 33.5264L75.4272 38.2764H78.8022L77.198 33.5264H77.0313Z" fill="white"></path><path d="M82.9597 41.7764V32.4014H86.3763C87.0013 32.4014 87.5274 32.5055 87.9597 32.7139C88.3868 32.9118 88.7097 33.2034 88.918 33.5889C89.1263 33.9639 89.2305 34.4118 89.2305 34.9222C89.2305 35.5055 89.0847 35.9951 88.793 36.3805C88.5118 36.7555 88.0638 37.0368 87.4388 37.2139V37.3597C87.7409 37.4743 87.9909 37.6618 88.1888 37.9222C88.3815 38.1722 88.5534 38.5576 88.7097 39.068L89.5847 41.7764H88.4597L87.5222 38.9014C87.4076 38.568 87.2774 38.3076 87.1263 38.1097C86.9857 37.917 86.8034 37.7764 86.5847 37.693C86.3607 37.6097 86.0743 37.568 85.7305 37.568H84.0638V41.7764H82.9597ZM86.3347 36.6305C86.9284 36.6305 87.3659 36.5003 87.6472 36.2347C87.9388 35.9587 88.0847 35.542 88.0847 34.9847C88.0847 34.4326 87.9388 34.0212 87.6472 33.7555C87.3659 33.4795 86.9284 33.3389 86.3347 33.3389H84.0638V36.6305H86.3347Z" fill="white"></path><path d="M91.6554 41.7764V32.4014H95.2179C95.7856 32.4014 96.27 32.4951 96.6762 32.6722C97.0773 32.8545 97.3846 33.1201 97.5929 33.4639C97.8012 33.7972 97.9054 34.2034 97.9054 34.6722C97.9054 35.0784 97.7908 35.443 97.5721 35.7764C97.3481 36.1097 97.0304 36.3701 96.6137 36.5472V36.6722C97.2387 36.8284 97.7075 37.1097 98.0304 37.5264C98.3637 37.9326 98.5304 38.4378 98.5304 39.0472C98.5304 39.9222 98.27 40.5993 97.7596 41.068C97.2439 41.542 96.4887 41.7764 95.4887 41.7764H91.6554ZM95.1554 36.3389C95.6814 36.3389 96.0825 36.2087 96.3637 35.943C96.6554 35.667 96.8012 35.2868 96.8012 34.7972C96.8012 34.2972 96.6606 33.9222 96.3846 33.6722C96.1033 33.4222 95.6971 33.2972 95.1554 33.2972H92.7596V36.3389H95.1554ZM95.4054 40.8597C96.7387 40.8597 97.4054 40.2555 97.4054 39.0472C97.4054 37.8389 96.7387 37.2347 95.4054 37.2347H92.7596V40.8597H95.4054Z" fill="white"></path><path d="M103.858 41.7764H102.754V38.0889L99.5248 32.4014H100.733L103.254 36.7972H103.421L105.921 32.4014H107.108L103.858 38.0889V41.7764Z" fill="white"></path></svg>