<svg xmlns="http://www.w3.org/2000/svg" xmlns:xlink="http://www.w3.org/1999/xlink" width="180" viewBox="0 0 135 37.5" height="50" preserveAspectRatio="xMidYMid meet"><defs><g></g><clipPath id="884194baaa"><path d="M 0.886719 0 L 134.109375 0 L 134.109375 37.007812 L 0.886719 37.007812 Z M 0.886719 0 " clip-rule="nonzero"></path></clipPath><clipPath id="099bbdf238"><path d="M 2.960938 0.960938 L 38.042969 0.960938 L 38.042969 36.042969 L 2.960938 36.042969 Z M 2.960938 0.960938 " clip-rule="nonzero"></path></clipPath><clipPath id="d0a5817ca4"><path d="M 20.5 0.960938 C 10.8125 0.960938 2.960938 8.816406 2.960938 18.503906 C 2.960938 28.191406 10.8125 36.042969 20.5 36.042969 C 30.1875 36.042969 38.042969 28.191406 38.042969 18.503906 C 38.042969 8.816406 30.1875 0.960938 20.5 0.960938 Z M 20.5 0.960938 " clip-rule="nonzero"></path></clipPath></defs><g clip-path="url(#884194baaa)"><path fill="#ffffff" d="M 0.886719 0 L 134.113281 0 L 134.113281 37.007812 L 0.886719 37.007812 Z M 0.886719 0 " fill-opacity="1" fill-rule="nonzero"></path><path fill="#000000" d="M 0.886719 0 L 134.113281 0 L 134.113281 37.007812 L 0.886719 37.007812 Z M 0.886719 0 " fill-opacity="1" fill-rule="nonzero"></path></g><g clip-path="url(#099bbdf238)"><g clip-path="url(#d0a5817ca4)"><path fill="#354ca1" d="M 2.960938 0.960938 L 38.042969 0.960938 L 38.042969 36.042969 L 2.960938 36.042969 Z M 2.960938 0.960938 " fill-opacity="1" fill-rule="nonzero"></path></g></g><g fill="#ffffff" fill-opacity="1"><g transform="translate(9.272461, 33.305921)"><g><path d="M 14.34375 -28.171875 C 16.28125 -28.171875 17.941406 -27.820312 19.328125 -27.125 C 20.710938 -26.4375 21.769531 -25.445312 22.5 -24.15625 C 23.226562 -22.863281 23.59375 -21.34375 23.59375 -19.59375 C 23.59375 -17.851562 23.226562 -16.335938 22.5 -15.046875 C 21.769531 -13.765625 20.710938 -12.773438 19.328125 -12.078125 C 17.941406 -11.378906 16.28125 -11.03125 14.34375 -11.03125 L 7.578125 -11.03125 L 7.578125 0 L 4.265625 0 L 4.265625 -28.171875 Z M 14.234375 -13.859375 C 18.160156 -13.859375 20.125 -15.769531 20.125 -19.59375 C 20.125 -23.4375 18.160156 -25.359375 14.234375 -25.359375 L 7.578125 -25.359375 L 7.578125 -13.859375 Z M 14.234375 -13.859375 "></path></g></g></g><g fill="#ffffff" fill-opacity="1"><g transform="translate(41.081308, 18.009899)"><g><path d="M 3.578125 -7.03125 C 4.066406 -7.03125 4.484375 -6.941406 4.828125 -6.765625 C 5.171875 -6.597656 5.429688 -6.351562 5.609375 -6.03125 C 5.796875 -5.707031 5.890625 -5.328125 5.890625 -4.890625 C 5.890625 -4.453125 5.796875 -4.070312 5.609375 -3.75 C 5.429688 -3.4375 5.171875 -3.191406 4.828125 -3.015625 C 4.484375 -2.835938 4.066406 -2.75 3.578125 -2.75 L 1.890625 -2.75 L 1.890625 0 L 1.0625 0 L 1.0625 -7.03125 Z M 3.5625 -3.46875 C 4.539062 -3.46875 5.03125 -3.941406 5.03125 -4.890625 C 5.03125 -5.847656 4.539062 -6.328125 3.5625 -6.328125 L 1.890625 -6.328125 L 1.890625 -3.46875 Z M 3.5625 -3.46875 "></path></g></g></g><g fill="#ffffff" fill-opacity="1"><g transform="translate(47.501952, 18.009899)"><g><path d="M 1.0625 0 L 1.0625 -7.03125 L 3.625 -7.03125 C 4.09375 -7.03125 4.488281 -6.953125 4.8125 -6.796875 C 5.132812 -6.648438 5.375 -6.429688 5.53125 -6.140625 C 5.6875 -5.859375 5.765625 -5.523438 5.765625 -5.140625 C 5.765625 -4.703125 5.65625 -4.335938 5.4375 -4.046875 C 5.226562 -3.765625 4.890625 -3.554688 4.421875 -3.421875 L 4.421875 -3.3125 C 4.648438 -3.226562 4.835938 -3.085938 4.984375 -2.890625 C 5.128906 -2.703125 5.257812 -2.414062 5.375 -2.03125 L 6.03125 0 L 5.1875 0 L 4.484375 -2.15625 C 4.398438 -2.40625 4.300781 -2.601562 4.1875 -2.75 C 4.082031 -2.894531 3.945312 -3 3.78125 -3.0625 C 3.613281 -3.125 3.398438 -3.15625 3.140625 -3.15625 L 1.890625 -3.15625 L 1.890625 0 Z M 3.59375 -3.859375 C 4.039062 -3.859375 4.367188 -3.957031 4.578125 -4.15625 C 4.796875 -4.363281 4.90625 -4.675781 4.90625 -5.09375 C 4.90625 -5.507812 4.796875 -5.816406 4.578125 -6.015625 C 4.367188 -6.222656 4.039062 -6.328125 3.59375 -6.328125 L 1.890625 -6.328125 L 1.890625 -3.859375 Z M 3.59375 -3.859375 "></path></g></g></g><g fill="#ffffff" fill-opacity="1"><g transform="translate(54.02374, 18.009899)"><g><path d="M 1.890625 -3.3125 L 1.890625 -0.6875 L 5.484375 -0.6875 L 5.484375 0 L 1.0625 0 L 1.0625 -7.03125 L 5.40625 -7.03125 L 5.40625 -6.359375 L 1.890625 -6.359375 L 1.890625 -4 L 4.984375 -4 L 4.984375 -3.3125 Z M 1.890625 -3.3125 "></path></g></g></g><g fill="#ffffff" fill-opacity="1"><g transform="translate(59.972348, 18.009899)"><g><path d="M 3.234375 -3.0625 L 0.5 -3.0625 L 0.5 -3.765625 L 3.234375 -3.765625 Z M 3.234375 -3.0625 "></path></g></g></g><g fill="#ffffff" fill-opacity="1"><g transform="translate(63.710094, 18.009899)"><g><path d="M 3.578125 -7.03125 C 4.066406 -7.03125 4.484375 -6.941406 4.828125 -6.765625 C 5.171875 -6.597656 5.429688 -6.351562 5.609375 -6.03125 C 5.796875 -5.707031 5.890625 -5.328125 5.890625 -4.890625 C 5.890625 -4.453125 5.796875 -4.070312 5.609375 -3.75 C 5.429688 -3.4375 5.171875 -3.191406 4.828125 -3.015625 C 4.484375 -2.835938 4.066406 -2.75 3.578125 -2.75 L 1.890625 -2.75 L 1.890625 0 L 1.0625 0 L 1.0625 -7.03125 Z M 3.5625 -3.46875 C 4.539062 -3.46875 5.03125 -3.941406 5.03125 -4.890625 C 5.03125 -5.847656 4.539062 -6.328125 3.5625 -6.328125 L 1.890625 -6.328125 L 1.890625 -3.46875 Z M 3.5625 -3.46875 "></path></g></g></g><g fill="#ffffff" fill-opacity="1"><g transform="translate(70.130738, 18.009899)"><g><path d="M 6.328125 0 L 5.453125 0 L 4.796875 -1.9375 L 1.796875 -1.9375 L 1.140625 0 L 0.28125 0 L 2.734375 -7.03125 L 3.875 -7.03125 Z M 3.234375 -6.1875 L 2.03125 -2.625 L 4.5625 -2.625 L 3.359375 -6.1875 Z M 3.234375 -6.1875 "></path></g></g></g><g fill="#ffffff" fill-opacity="1"><g transform="translate(76.748859, 18.009899)"><g><path d="M 3.4375 0 L 2.609375 0 L 2.609375 -2.765625 L 0.1875 -7.03125 L 1.09375 -7.03125 L 2.984375 -3.734375 L 3.109375 -3.734375 L 4.984375 -7.03125 L 5.875 -7.03125 L 3.4375 -2.765625 Z M 3.4375 0 "></path></g></g></g><g fill="#ffffff" fill-opacity="1"><g transform="translate(82.803435, 18.009899)"><g></g></g></g><g fill="#ffffff" fill-opacity="1"><g transform="translate(85.22141, 18.009899)"><g><path d="M 3.578125 -7.03125 C 4.066406 -7.03125 4.484375 -6.941406 4.828125 -6.765625 C 5.171875 -6.597656 5.429688 -6.351562 5.609375 -6.03125 C 5.796875 -5.707031 5.890625 -5.328125 5.890625 -4.890625 C 5.890625 -4.453125 5.796875 -4.070312 5.609375 -3.75 C 5.429688 -3.4375 5.171875 -3.191406 4.828125 -3.015625 C 4.484375 -2.835938 4.066406 -2.75 3.578125 -2.75 L 1.890625 -2.75 L 1.890625 0 L 1.0625 0 L 1.0625 -7.03125 Z M 3.5625 -3.46875 C 4.539062 -3.46875 5.03125 -3.941406 5.03125 -4.890625 C 5.03125 -5.847656 4.539062 -6.328125 3.5625 -6.328125 L 1.890625 -6.328125 L 1.890625 -3.46875 Z M 3.5625 -3.46875 "></path></g></g></g><g fill="#ffffff" fill-opacity="1"><g transform="translate(91.642053, 18.009899)"><g><path d="M 6.328125 0 L 5.453125 0 L 4.796875 -1.9375 L 1.796875 -1.9375 L 1.140625 0 L 0.28125 0 L 2.734375 -7.03125 L 3.875 -7.03125 Z M 3.234375 -6.1875 L 2.03125 -2.625 L 4.5625 -2.625 L 3.359375 -6.1875 Z M 3.234375 -6.1875 "></path></g></g></g><g fill="#ffffff" fill-opacity="1"><g transform="translate(98.260175, 18.009899)"><g><path d="M 1.0625 0 L 1.0625 -7.03125 L 3.625 -7.03125 C 4.09375 -7.03125 4.488281 -6.953125 4.8125 -6.796875 C 5.132812 -6.648438 5.375 -6.429688 5.53125 -6.140625 C 5.6875 -5.859375 5.765625 -5.523438 5.765625 -5.140625 C 5.765625 -4.703125 5.65625 -4.335938 5.4375 -4.046875 C 5.226562 -3.765625 4.890625 -3.554688 4.421875 -3.421875 L 4.421875 -3.3125 C 4.648438 -3.226562 4.835938 -3.085938 4.984375 -2.890625 C 5.128906 -2.703125 5.257812 -2.414062 5.375 -2.03125 L 6.03125 0 L 5.1875 0 L 4.484375 -2.15625 C 4.398438 -2.40625 4.300781 -2.601562 4.1875 -2.75 C 4.082031 -2.894531 3.945312 -3 3.78125 -3.0625 C 3.613281 -3.125 3.398438 -3.15625 3.140625 -3.15625 L 1.890625 -3.15625 L 1.890625 0 Z M 3.59375 -3.859375 C 4.039062 -3.859375 4.367188 -3.957031 4.578125 -4.15625 C 4.796875 -4.363281 4.90625 -4.675781 4.90625 -5.09375 C 4.90625 -5.507812 4.796875 -5.816406 4.578125 -6.015625 C 4.367188 -6.222656 4.039062 -6.328125 3.59375 -6.328125 L 1.890625 -6.328125 L 1.890625 -3.859375 Z M 3.59375 -3.859375 "></path></g></g></g><g fill="#ffffff" fill-opacity="1"><g transform="translate(104.781963, 18.009899)"><g><path d="M 1.0625 0 L 1.0625 -7.03125 L 1.890625 -7.03125 L 1.890625 -3.96875 L 2.046875 -3.96875 L 4.9375 -7.03125 L 5.828125 -7.03125 L 5.828125 -6.921875 L 2.78125 -3.625 L 6.078125 -0.125 L 6.078125 0 L 5.125 0 L 2.046875 -3.234375 L 1.890625 -3.234375 L 1.890625 0 Z M 1.0625 0 "></path></g></g></g><g fill="#ffffff" fill-opacity="1"><g transform="translate(110.995483, 18.009899)"><g><path d="M 1.890625 0 L 1.0625 0 L 1.0625 -7.03125 L 1.890625 -7.03125 Z M 1.890625 0 "></path></g></g></g><g fill="#ffffff" fill-opacity="1"><g transform="translate(113.957749, 18.009899)"><g><path d="M 1.875 0 L 1.0625 0 L 1.0625 -7.03125 L 2.078125 -7.03125 L 5.515625 -1.65625 L 5.625 -1.6875 L 5.625 -7.03125 L 6.4375 -7.03125 L 6.4375 0 L 5.5625 0 L 2 -5.75 L 1.875 -5.734375 Z M 1.875 0 "></path></g></g></g><g fill="#ffffff" fill-opacity="1"><g transform="translate(121.466963, 18.009899)"><g><path d="M 3.703125 0.09375 C 3.109375 0.09375 2.585938 -0.0351562 2.140625 -0.296875 C 1.691406 -0.566406 1.335938 -0.972656 1.078125 -1.515625 C 0.828125 -2.054688 0.703125 -2.722656 0.703125 -3.515625 C 0.703125 -4.304688 0.835938 -4.972656 1.109375 -5.515625 C 1.378906 -6.054688 1.753906 -6.460938 2.234375 -6.734375 C 2.710938 -7.003906 3.269531 -7.140625 3.90625 -7.140625 C 4.582031 -7.140625 5.132812 -7.015625 5.5625 -6.765625 C 6 -6.523438 6.304688 -6.164062 6.484375 -5.6875 L 5.953125 -5.375 L 5.828125 -5.375 C 5.640625 -5.738281 5.390625 -6 5.078125 -6.15625 C 4.765625 -6.3125 4.375 -6.390625 3.90625 -6.390625 C 2.363281 -6.390625 1.59375 -5.429688 1.59375 -3.515625 C 1.59375 -2.515625 1.785156 -1.785156 2.171875 -1.328125 C 2.554688 -0.867188 3.097656 -0.640625 3.796875 -0.640625 C 4.441406 -0.640625 4.921875 -0.785156 5.234375 -1.078125 C 5.554688 -1.367188 5.71875 -1.832031 5.71875 -2.46875 L 5.71875 -3.078125 L 3.71875 -3.078125 L 3.71875 -3.75 L 6.53125 -3.75 L 6.53125 0 L 5.765625 0 L 5.765625 -0.9375 L 5.65625 -0.96875 C 5.46875 -0.601562 5.207031 -0.332031 4.875 -0.15625 C 4.550781 0.0078125 4.160156 0.09375 3.703125 0.09375 Z M 3.703125 0.09375 "></path></g></g></g><g fill="#ffffff" fill-opacity="1"><g transform="translate(41.081308, 31.332267)"><g><path d="M 1.875 0 L 1.0625 0 L 1.0625 -7.03125 L 2.078125 -7.03125 L 5.515625 -1.65625 L 5.625 -1.6875 L 5.625 -7.03125 L 6.4375 -7.03125 L 6.4375 0 L 5.5625 0 L 2 -5.75 L 1.875 -5.734375 Z M 1.875 0 "></path></g></g></g><g fill="#ffffff" fill-opacity="1"><g transform="translate(48.590522, 31.332267)"><g><path d="M 1.890625 -3.3125 L 1.890625 -0.6875 L 5.484375 -0.6875 L 5.484375 0 L 1.0625 0 L 1.0625 -7.03125 L 5.40625 -7.03125 L 5.40625 -6.359375 L 1.890625 -6.359375 L 1.890625 -4 L 4.984375 -4 L 4.984375 -3.3125 Z M 1.890625 -3.3125 "></path></g></g></g><g fill="#ffffff" fill-opacity="1"><g transform="translate(54.539131, 31.332267)"><g><path d="M 6.328125 0 L 5.453125 0 L 4.796875 -1.9375 L 1.796875 -1.9375 L 1.140625 0 L 0.28125 0 L 2.734375 -7.03125 L 3.875 -7.03125 Z M 3.234375 -6.1875 L 2.03125 -2.625 L 4.5625 -2.625 L 3.359375 -6.1875 Z M 3.234375 -6.1875 "></path></g></g></g><g fill="#ffffff" fill-opacity="1"><g transform="translate(61.157252, 31.332267)"><g><path d="M 1.0625 0 L 1.0625 -7.03125 L 3.625 -7.03125 C 4.09375 -7.03125 4.488281 -6.953125 4.8125 -6.796875 C 5.132812 -6.648438 5.375 -6.429688 5.53125 -6.140625 C 5.6875 -5.859375 5.765625 -5.523438 5.765625 -5.140625 C 5.765625 -4.703125 5.65625 -4.335938 5.4375 -4.046875 C 5.226562 -3.765625 4.890625 -3.554688 4.421875 -3.421875 L 4.421875 -3.3125 C 4.648438 -3.226562 4.835938 -3.085938 4.984375 -2.890625 C 5.128906 -2.703125 5.257812 -2.414062 5.375 -2.03125 L 6.03125 0 L 5.1875 0 L 4.484375 -2.15625 C 4.398438 -2.40625 4.300781 -2.601562 4.1875 -2.75 C 4.082031 -2.894531 3.945312 -3 3.78125 -3.0625 C 3.613281 -3.125 3.398438 -3.15625 3.140625 -3.15625 L 1.890625 -3.15625 L 1.890625 0 Z M 3.59375 -3.859375 C 4.039062 -3.859375 4.367188 -3.957031 4.578125 -4.15625 C 4.796875 -4.363281 4.90625 -4.675781 4.90625 -5.09375 C 4.90625 -5.507812 4.796875 -5.816406 4.578125 -6.015625 C 4.367188 -6.222656 4.039062 -6.328125 3.59375 -6.328125 L 1.890625 -6.328125 L 1.890625 -3.859375 Z M 3.59375 -3.859375 "></path></g></g></g><g fill="#ffffff" fill-opacity="1"><g transform="translate(67.67904, 31.332267)"><g><path d="M 1.0625 0 L 1.0625 -7.03125 L 3.734375 -7.03125 C 4.160156 -7.03125 4.523438 -6.960938 4.828125 -6.828125 C 5.128906 -6.691406 5.359375 -6.492188 5.515625 -6.234375 C 5.671875 -5.984375 5.75 -5.679688 5.75 -5.328125 C 5.75 -5.023438 5.664062 -4.75 5.5 -4.5 C 5.332031 -4.25 5.09375 -4.054688 4.78125 -3.921875 L 4.78125 -3.828125 C 5.25 -3.710938 5.601562 -3.5 5.84375 -3.1875 C 6.09375 -2.882812 6.21875 -2.503906 6.21875 -2.046875 C 6.21875 -1.390625 6.023438 -0.882812 5.640625 -0.53125 C 5.253906 -0.175781 4.6875 0 3.9375 0 Z M 3.6875 -4.078125 C 4.082031 -4.078125 4.382812 -4.175781 4.59375 -4.375 C 4.8125 -4.582031 4.921875 -4.867188 4.921875 -5.234375 C 4.921875 -5.609375 4.816406 -5.890625 4.609375 -6.078125 C 4.398438 -6.265625 4.09375 -6.359375 3.6875 -6.359375 L 1.890625 -6.359375 L 1.890625 -4.078125 Z M 3.875 -0.6875 C 4.875 -0.6875 5.375 -1.140625 5.375 -2.046875 C 5.375 -2.953125 4.875 -3.40625 3.875 -3.40625 L 1.890625 -3.40625 L 1.890625 -0.6875 Z M 3.875 -0.6875 "></path></g></g></g><g fill="#ffffff" fill-opacity="1"><g transform="translate(74.456118, 31.332267)"><g><path d="M 3.4375 0 L 2.609375 0 L 2.609375 -2.765625 L 0.1875 -7.03125 L 1.09375 -7.03125 L 2.984375 -3.734375 L 3.109375 -3.734375 L 4.984375 -7.03125 L 5.875 -7.03125 L 3.4375 -2.765625 Z M 3.4375 0 "></path></g></g></g></svg>