<svg xmlns="http://www.w3.org/2000/svg" xmlns:xlink="http://www.w3.org/1999/xlink" width="151" viewBox="0 0 113.25 113.249998" height="151" preserveAspectRatio="xMidYMid meet"><defs><clipPath id="724283e4f5"><path d="M 0 0 L 112.503906 0 L 112.503906 112.503906 L 0 112.503906 Z M 0 0 " clip-rule="nonzero"></path></clipPath><clipPath id="e457d28ef9"><path d="M 20 2.882812 L 92 2.882812 L 92 47 L 20 47 Z M 20 2.882812 " clip-rule="nonzero"></path></clipPath><clipPath id="ce6e7da4c2"><path d="M 2.882812 26 L 43 26 L 43 47 L 2.882812 47 Z M 2.882812 26 " clip-rule="nonzero"></path></clipPath><clipPath id="a521b5e5d6"><path d="M 69 26 L 109.425781 26 L 109.425781 47 L 69 47 Z M 69 26 " clip-rule="nonzero"></path></clipPath><clipPath id="e3e8f43989"><path d="M 9 49 L 47 49 L 47 109.425781 L 9 109.425781 Z M 9 49 " clip-rule="nonzero"></path></clipPath><clipPath id="02a6d91e13"><path d="M 49 49 L 64 49 L 64 109.425781 L 49 109.425781 Z M 49 49 " clip-rule="nonzero"></path></clipPath><clipPath id="92d1906fe2"><path d="M 66 49 L 104 49 L 104 109.425781 L 66 109.425781 Z M 66 49 " clip-rule="nonzero"></path></clipPath></defs><g clip-path="url(#724283e4f5)"><path fill="#ffffff" d="M 0 0 L 112.503906 0 L 112.503906 112.503906 L 0 112.503906 Z M 0 0 " fill-opacity="1" fill-rule="nonzero"></path><path fill="#ffffff" d="M 0 0 L 112.503906 0 L 112.503906 112.503906 L 0 112.503906 Z M 0 0 " fill-opacity="1" fill-rule="nonzero"></path></g><g clip-path="url(#e457d28ef9)"><path fill="#ffd56a" d="M 66.371094 26.277344 C 73.226562 25.65625 79.941406 23.96875 86.421875 21.6875 C 87.953125 21.121094 89.679688 20.683594 90.730469 19.335938 C 92 17.832031 92.136719 15.597656 91.242188 13.871094 C 89.847656 11.089844 88.503906 8.285156 87.058594 5.53125 C 86.339844 4.078125 84.855469 3.253906 83.332031 2.882812 L 82.390625 2.882812 C 80.285156 3.140625 78.175781 3.402344 76.128906 3.949219 C 70.195312 5.53125 64.789062 9.234375 61.390625 14.375 C 62.8125 14.785156 63.976562 15.703125 64.695312 16.992188 C 68.902344 14.746094 73.519531 12.863281 78.359375 12.953125 C 79.796875 13.070312 80.171875 15.25 78.988281 15.957031 C 78.117188 16.300781 77.164062 16.296875 76.25 16.4375 C 72.089844 16.914062 68.210938 18.707031 64.699219 20.914062 C 64.667969 22.691406 64.660156 24.476562 64.65625 26.253906 C 63.550781 26.265625 62.445312 26.269531 61.339844 26.257812 C 61.25 23.914062 61.453125 21.5625 61.253906 19.222656 C 61.199219 18.222656 60.117188 17.863281 59.265625 17.921875 C 57.054688 17.917969 54.828125 17.804688 52.621094 17.988281 C 51.808594 18.03125 51.316406 18.832031 51.339844 19.589844 C 51.222656 21.808594 51.367188 24.039062 51.296875 26.261719 C 50.191406 26.269531 49.082031 26.269531 47.976562 26.257812 C 47.980469 24.476562 47.972656 22.695312 47.9375 20.914062 C 43.855469 18.238281 39.167969 16.511719 34.289062 16.152344 C 32.527344 16.066406 32.53125 13.105469 34.257812 12.960938 C 39.105469 12.855469 43.738281 14.757812 47.949219 16.992188 C 48.699219 15.722656 49.867188 14.804688 51.273438 14.367188 C 48.484375 10.128906 44.296875 6.886719 39.617188 4.976562 C 36.644531 3.75 33.441406 3.226562 30.257812 2.882812 L 29.3125 2.882812 C 28 3.238281 26.660156 3.839844 25.921875 5.035156 C 24.816406 6.789062 24.039062 8.71875 23.066406 10.542969 C 22.351562 12.046875 21.4375 13.46875 20.960938 15.070312 C 20.328125 17.453125 21.785156 20.105469 24.113281 20.890625 C 31.222656 23.617188 38.660156 25.5625 46.257812 26.277344 C 46.371094 32.945312 46.238281 39.617188 46.3125 46.28125 C 52.980469 46.316406 59.652344 46.308594 66.324219 46.289062 C 66.382812 39.617188 66.28125 32.945312 66.371094 26.277344 Z M 66.371094 26.277344 " fill-opacity="1" fill-rule="nonzero"></path></g><g clip-path="url(#ce6e7da4c2)"><path fill="#ffd56a" d="M 42.949219 46.289062 C 42.96875 39.617188 42.976562 32.945312 42.949219 26.273438 C 31.253906 26.253906 19.5625 26.25 7.867188 26.273438 C 5.496094 26.195312 3.597656 28.035156 2.882812 30.171875 L 2.882812 42.371094 C 3.582031 44.523438 5.496094 46.367188 7.871094 46.289062 C 19.5625 46.308594 31.253906 46.308594 42.949219 46.289062 Z M 42.949219 46.289062 " fill-opacity="1" fill-rule="nonzero"></path></g><g clip-path="url(#a521b5e5d6)"><path fill="#ffd56a" d="M 104.765625 26.273438 C 93.078125 26.25 81.382812 26.253906 69.691406 26.269531 C 69.660156 32.941406 69.671875 39.609375 69.691406 46.28125 C 81.386719 46.3125 93.078125 46.3125 104.773438 46.28125 C 107.140625 46.367188 109.042969 44.523438 109.757812 42.382812 L 109.757812 30.1875 C 109.058594 28.039062 107.140625 26.195312 104.765625 26.273438 Z M 104.765625 26.273438 " fill-opacity="1" fill-rule="nonzero"></path></g><g clip-path="url(#e3e8f43989)"><path fill="#ffd56a" d="M 9.574219 49.65625 C 9.550781 68.023438 9.554688 86.398438 9.574219 104.765625 C 9.496094 107.136719 11.335938 109.042969 13.472656 109.757812 L 46.300781 109.757812 C 46.292969 89.722656 46.316406 69.6875 46.289062 49.65625 C 34.050781 49.628906 21.816406 49.628906 9.574219 49.65625 Z M 9.574219 49.65625 " fill-opacity="1" fill-rule="nonzero"></path></g><g clip-path="url(#02a6d91e13)"><path fill="#ffd56a" d="M 49.652344 49.65625 C 49.621094 69.6875 49.644531 89.71875 49.640625 109.753906 L 63 109.753906 C 62.996094 89.71875 63.015625 69.691406 62.992188 49.65625 C 58.542969 49.621094 54.097656 49.628906 49.652344 49.65625 Z M 49.652344 49.65625 " fill-opacity="1" fill-rule="nonzero"></path></g><g clip-path="url(#92d1906fe2)"><path fill="#ffd56a" d="M 66.355469 49.652344 C 66.316406 69.6875 66.347656 89.722656 66.335938 109.757812 L 99.144531 109.757812 C 101.296875 109.054688 103.136719 107.140625 103.0625 104.765625 C 103.082031 86.398438 103.085938 68.023438 103.058594 49.65625 C 90.824219 49.628906 78.585938 49.632812 66.355469 49.652344 Z M 66.355469 49.652344 " fill-opacity="1" fill-rule="nonzero"></path></g></svg>