<svg xmlns="http://www.w3.org/2000/svg" xmlns:xlink="http://www.w3.org/1999/xlink" width="151" viewBox="0 0 113.25 113.249998" height="151" preserveAspectRatio="xMidYMid meet"><defs><clipPath id="0262a93411"><path d="M 0 0 L 112.503906 0 L 112.503906 112.503906 L 0 112.503906 Z M 0 0 " clip-rule="nonzero"></path></clipPath><clipPath id="28d2288d55"><path d="M 9.738281 9.433594 L 101.382812 9.433594 L 101.382812 101.078125 L 9.738281 101.078125 Z M 9.738281 9.433594 " clip-rule="nonzero"></path></clipPath></defs><g clip-path="url(#0262a93411)"><path fill="#ffffff" d="M 0 0 L 112.503906 0 L 112.503906 112.503906 L 0 112.503906 Z M 0 0 " fill-opacity="1" fill-rule="nonzero"></path><path fill="#ffffff" d="M 0 0 L 112.503906 0 L 112.503906 112.503906 L 0 112.503906 Z M 0 0 " fill-opacity="1" fill-rule="nonzero"></path></g><path fill="#ffd56a" d="M 24.300781 62.652344 L 31.566406 62.652344 C 32.574219 62.652344 33.390625 61.835938 33.390625 60.828125 L 33.390625 53.566406 C 33.390625 52.558594 32.574219 51.742188 31.566406 51.742188 L 24.300781 51.742188 C 23.292969 51.742188 22.476562 52.558594 22.476562 53.566406 L 22.476562 60.828125 C 22.476562 61.835938 23.292969 62.652344 24.300781 62.652344 Z M 24.300781 62.652344 " fill-opacity="1" fill-rule="nonzero"></path><path fill="#ffd56a" d="M 24.300781 77.667969 L 31.566406 77.667969 C 32.574219 77.667969 33.390625 76.851562 33.390625 75.847656 L 33.390625 68.582031 C 33.390625 67.574219 32.574219 66.757812 31.566406 66.757812 L 24.300781 66.757812 C 23.292969 66.757812 22.476562 67.574219 22.476562 68.582031 L 22.476562 75.847656 C 22.476562 76.851562 23.292969 77.667969 24.300781 77.667969 Z M 24.300781 77.667969 " fill-opacity="1" fill-rule="nonzero"></path><path fill="#ffd56a" d="M 24.300781 92.6875 L 31.566406 92.6875 C 32.574219 92.6875 33.390625 91.871094 33.390625 90.863281 L 33.390625 83.597656 C 33.390625 82.59375 32.574219 81.773438 31.566406 81.773438 L 24.300781 81.773438 C 23.292969 81.773438 22.476562 82.59375 22.476562 83.597656 L 22.476562 90.863281 C 22.476562 91.871094 23.292969 92.6875 24.300781 92.6875 Z M 24.300781 92.6875 " fill-opacity="1" fill-rule="nonzero"></path><path fill="#ffd56a" d="M 42.617188 62.652344 L 49.882812 62.652344 C 50.890625 62.652344 51.707031 61.835938 51.707031 60.828125 L 51.707031 53.566406 C 51.707031 52.558594 50.890625 51.742188 49.882812 51.742188 L 42.617188 51.742188 C 41.609375 51.742188 40.792969 52.558594 40.792969 53.566406 L 40.792969 60.828125 C 40.792969 61.835938 41.613281 62.652344 42.617188 62.652344 Z M 42.617188 62.652344 " fill-opacity="1" fill-rule="nonzero"></path><path fill="#ffd56a" d="M 42.617188 77.667969 L 49.882812 77.667969 C 50.890625 77.667969 51.707031 76.851562 51.707031 75.847656 L 51.707031 68.582031 C 51.707031 67.574219 50.890625 66.757812 49.882812 66.757812 L 42.617188 66.757812 C 41.609375 66.757812 40.792969 67.574219 40.792969 68.582031 L 40.792969 75.847656 C 40.792969 76.851562 41.613281 77.667969 42.617188 77.667969 Z M 42.617188 77.667969 " fill-opacity="1" fill-rule="nonzero"></path><path fill="#ffd56a" d="M 42.617188 92.6875 L 49.882812 92.6875 C 50.890625 92.6875 51.707031 91.871094 51.707031 90.863281 L 51.707031 83.597656 C 51.707031 82.59375 50.890625 81.773438 49.882812 81.773438 L 42.617188 81.773438 C 41.609375 81.773438 40.792969 82.59375 40.792969 83.597656 L 40.792969 90.863281 C 40.792969 91.871094 41.613281 92.6875 42.617188 92.6875 Z M 42.617188 92.6875 " fill-opacity="1" fill-rule="nonzero"></path><path fill="#ffd56a" d="M 60.9375 62.652344 L 68.199219 62.652344 C 69.207031 62.652344 70.023438 61.835938 70.023438 60.828125 L 70.023438 53.566406 C 70.023438 52.558594 69.207031 51.742188 68.199219 51.742188 L 60.9375 51.742188 C 59.929688 51.742188 59.113281 52.558594 59.113281 53.566406 L 59.113281 60.828125 C 59.113281 61.835938 59.929688 62.652344 60.9375 62.652344 Z M 60.9375 62.652344 " fill-opacity="1" fill-rule="nonzero"></path><path fill="#ffd56a" d="M 68.199219 81.773438 L 60.9375 81.773438 C 59.929688 81.773438 59.113281 82.59375 59.113281 83.597656 L 59.113281 90.863281 C 59.113281 91.871094 59.929688 92.6875 60.9375 92.6875 L 68.199219 92.6875 C 69.207031 92.6875 70.023438 91.871094 70.023438 90.863281 L 70.023438 83.597656 C 70.023438 82.59375 69.207031 81.773438 68.199219 81.773438 Z M 68.199219 81.773438 " fill-opacity="1" fill-rule="nonzero"></path><path fill="#ffd56a" d="M 79.253906 62.652344 L 86.515625 62.652344 C 87.523438 62.652344 88.339844 61.835938 88.339844 60.828125 L 88.339844 53.566406 C 88.339844 52.558594 87.523438 51.742188 86.515625 51.742188 L 79.253906 51.742188 C 78.246094 51.742188 77.429688 52.558594 77.429688 53.566406 L 77.429688 60.828125 C 77.429688 61.835938 78.246094 62.652344 79.253906 62.652344 Z M 79.253906 62.652344 " fill-opacity="1" fill-rule="nonzero"></path><path fill="#ffd56a" d="M 79.253906 77.667969 L 86.515625 77.667969 C 87.523438 77.667969 88.339844 76.851562 88.339844 75.847656 L 88.339844 68.582031 C 88.339844 67.574219 87.523438 66.757812 86.515625 66.757812 L 79.253906 66.757812 C 78.246094 66.757812 77.429688 67.574219 77.429688 68.582031 L 77.429688 75.847656 C 77.429688 76.851562 78.246094 77.667969 79.253906 77.667969 Z M 79.253906 77.667969 " fill-opacity="1" fill-rule="nonzero"></path><g clip-path="url(#28d2288d55)"><path fill="#ffd56a" d="M 79.65625 9.4375 C 77.945312 9.4375 76.558594 10.824219 76.558594 12.535156 L 76.558594 18.757812 L 34.421875 18.757812 L 34.421875 12.535156 C 34.421875 10.824219 33.035156 9.4375 31.324219 9.4375 C 29.613281 9.4375 28.226562 10.824219 28.226562 12.535156 L 28.226562 18.757812 L 18.460938 18.757812 C 13.652344 18.757812 9.738281 22.671875 9.738281 27.484375 L 9.738281 92.640625 C 9.738281 97.453125 13.652344 101.363281 18.460938 101.363281 L 92.355469 101.363281 C 97.167969 101.363281 101.078125 97.453125 101.078125 92.640625 L 101.078125 27.484375 C 101.078125 22.671875 97.167969 18.757812 92.355469 18.757812 L 82.753906 18.757812 L 82.753906 12.535156 C 82.753906 10.824219 81.367188 9.4375 79.65625 9.4375 Z M 28.226562 23.203125 L 28.226562 27.050781 C 28.226562 28.761719 29.613281 30.148438 31.324219 30.148438 C 33.035156 30.148438 34.421875 28.761719 34.421875 27.050781 L 34.421875 23.203125 C 35.542969 24.109375 36.261719 25.496094 36.261719 27.050781 C 36.261719 29.777344 34.050781 31.988281 31.324219 31.988281 C 28.59375 31.988281 26.382812 29.777344 26.382812 27.050781 C 26.382812 25.496094 27.101562 24.109375 28.226562 23.203125 Z M 96.78125 92.640625 C 96.78125 95.082031 94.796875 97.066406 92.355469 97.066406 L 18.460938 97.066406 C 16.023438 97.066406 14.035156 95.082031 14.035156 92.640625 L 14.035156 47.359375 L 96.78125 47.359375 Z M 84.59375 27.050781 C 84.59375 29.777344 82.382812 31.988281 79.652344 31.988281 C 76.925781 31.988281 74.714844 29.777344 74.714844 27.050781 C 74.714844 25.496094 75.433594 24.109375 76.554688 23.203125 L 76.554688 27.050781 C 76.554688 28.761719 77.941406 30.148438 79.652344 30.148438 C 81.363281 30.148438 82.75 28.761719 82.75 27.050781 L 82.75 23.203125 C 83.875 24.109375 84.59375 25.496094 84.59375 27.050781 Z M 84.59375 27.050781 " fill-opacity="1" fill-rule="nonzero"></path></g><path fill="#ffd56a" d="M 63.992188 78.632812 L 72.648438 69.976562 C 73.488281 69.136719 73.488281 67.777344 72.648438 66.9375 C 71.808594 66.097656 70.449219 66.097656 69.609375 66.9375 L 63.992188 72.554688 L 61.738281 70.296875 C 60.898438 69.460938 59.539062 69.460938 58.699219 70.296875 C 57.859375 71.136719 57.859375 72.5 58.699219 73.335938 Z M 63.992188 78.632812 " fill-opacity="1" fill-rule="nonzero"></path></svg>