<svg xmlns="http://www.w3.org/2000/svg" xmlns:xlink="http://www.w3.org/1999/xlink" width="151" viewBox="0 0 113.25 113.249998" height="151" preserveAspectRatio="xMidYMid meet"><defs><clipPath id="a136ddb073"><path d="M 0 0 L 112.503906 0 L 112.503906 112.503906 L 0 112.503906 Z M 0 0 " clip-rule="nonzero"></path></clipPath><clipPath id="0dacb11a9b"><path d="M 12.65625 9 L 101.320312 9 L 101.320312 110.921875 L 12.65625 110.921875 Z M 12.65625 9 " clip-rule="nonzero"></path></clipPath><clipPath id="0e7e0fb29e"><path d="M 40 3.632812 L 74 3.632812 L 74 19 L 40 19 Z M 40 3.632812 " clip-rule="nonzero"></path></clipPath></defs><g clip-path="url(#a136ddb073)"><path fill="#ffffff" d="M 0 0 L 112.503906 0 L 112.503906 112.503906 L 0 112.503906 Z M 0 0 " fill-opacity="1" fill-rule="nonzero"></path><path fill="#ffffff" d="M 0 0 L 112.503906 0 L 112.503906 112.503906 L 0 112.503906 Z M 0 0 " fill-opacity="1" fill-rule="nonzero"></path></g><g clip-path="url(#0dacb11a9b)"><path fill="#feca46" d="M 95.769531 9.167969 C 98.832031 9.167969 101.304688 11.640625 101.304688 14.707031 L 101.304688 105.140625 C 101.304688 108.203125 98.832031 110.679688 95.769531 110.679688 L 18.253906 110.679688 C 15.1875 110.679688 12.714844 108.203125 12.714844 105.140625 L 12.714844 14.707031 C 12.714844 11.640625 15.1875 9.167969 18.253906 9.167969 L 95.769531 9.167969 " fill-opacity="1" fill-rule="nonzero"></path></g><path fill="#ffffff" d="M 92.078125 16.550781 C 93.09375 16.550781 93.921875 17.382812 93.921875 18.398438 L 93.921875 101.449219 C 93.921875 102.464844 93.09375 103.296875 92.078125 103.296875 L 21.945312 103.296875 C 20.925781 103.296875 20.097656 102.464844 20.097656 101.449219 L 20.097656 18.398438 C 20.097656 17.382812 20.925781 16.550781 21.945312 16.550781 L 92.078125 16.550781 " fill-opacity="1" fill-rule="nonzero"></path><g clip-path="url(#0e7e0fb29e)"><path fill="#fff9b3" d="M 73.621094 9.167969 L 73.621094 16.550781 C 73.621094 17.570312 72.792969 18.398438 71.773438 18.398438 L 42.246094 18.398438 C 41.230469 18.398438 40.398438 17.570312 40.398438 16.550781 L 40.398438 9.167969 C 40.398438 8.152344 41.230469 7.324219 42.246094 7.324219 L 48.769531 7.324219 C 49.867188 7.324219 50.859375 6.796875 51.601562 5.992188 C 52.953125 4.535156 54.875 3.632812 57.011719 3.632812 C 59.144531 3.632812 61.070312 4.535156 62.417969 5.992188 C 63.160156 6.796875 64.15625 7.324219 65.25 7.324219 L 71.773438 7.324219 C 72.792969 7.324219 73.621094 8.152344 73.621094 9.167969 " fill-opacity="1" fill-rule="nonzero"></path></g><path fill="#feca46" d="M 38.554688 38.699219 C 38.078125 38.699219 37.609375 38.519531 37.25 38.160156 L 35.402344 36.3125 C 34.683594 35.59375 34.683594 34.425781 35.402344 33.703125 C 36.125 32.980469 37.292969 32.980469 38.011719 33.703125 L 38.554688 34.242188 L 48.324219 24.476562 C 49.042969 23.753906 50.210938 23.753906 50.933594 24.476562 C 51.652344 25.195312 51.652344 26.363281 50.933594 27.085938 L 39.859375 38.160156 C 39.5 38.519531 39.03125 38.699219 38.554688 38.699219 " fill-opacity="1" fill-rule="nonzero"></path><path fill="#fff9b3" d="M 44.089844 46.082031 L 33.015625 46.082031 C 29.960938 46.082031 27.480469 43.601562 27.480469 40.546875 L 27.480469 29.472656 C 27.480469 26.414062 29.960938 23.933594 33.015625 23.933594 L 40.398438 23.933594 C 41.417969 23.933594 42.246094 24.761719 42.246094 25.78125 C 42.246094 26.796875 41.417969 27.625 40.398438 27.625 L 33.015625 27.625 C 32 27.625 31.171875 28.453125 31.171875 29.472656 L 31.171875 40.546875 C 31.171875 41.5625 32 42.390625 33.015625 42.390625 L 44.089844 42.390625 C 45.109375 42.390625 45.9375 41.5625 45.9375 40.546875 L 45.9375 36.855469 C 45.9375 35.835938 46.765625 35.007812 47.78125 35.007812 C 48.796875 35.007812 49.628906 35.835938 49.628906 36.855469 L 49.628906 40.546875 C 49.628906 43.601562 47.148438 46.082031 44.089844 46.082031 " fill-opacity="1" fill-rule="nonzero"></path><path fill="#feca46" d="M 38.554688 64.539062 C 38.078125 64.539062 37.609375 64.359375 37.25 63.996094 L 35.402344 62.152344 C 34.683594 61.429688 34.683594 60.261719 35.402344 59.542969 C 36.125 58.820312 37.292969 58.820312 38.011719 59.542969 L 38.554688 60.082031 L 48.324219 50.3125 C 49.042969 49.59375 50.210938 49.59375 50.933594 50.3125 C 51.652344 51.035156 51.652344 52.203125 50.933594 52.921875 L 39.859375 63.996094 C 39.5 64.359375 39.03125 64.539062 38.554688 64.539062 " fill-opacity="1" fill-rule="nonzero"></path><path fill="#fff9b3" d="M 44.089844 71.921875 L 33.015625 71.921875 C 29.960938 71.921875 27.480469 69.441406 27.480469 66.382812 L 27.480469 55.308594 C 27.480469 52.253906 29.960938 49.773438 33.015625 49.773438 L 40.398438 49.773438 C 41.417969 49.773438 42.246094 50.601562 42.246094 51.617188 C 42.246094 52.636719 41.417969 53.464844 40.398438 53.464844 L 33.015625 53.464844 C 32 53.464844 31.171875 54.292969 31.171875 55.308594 L 31.171875 66.382812 C 31.171875 67.398438 32 68.230469 33.015625 68.230469 L 44.089844 68.230469 C 45.109375 68.230469 45.9375 67.398438 45.9375 66.382812 L 45.9375 62.691406 C 45.9375 61.675781 46.765625 60.847656 47.78125 60.847656 C 48.796875 60.847656 49.628906 61.675781 49.628906 62.691406 L 49.628906 66.382812 C 49.628906 69.441406 47.148438 71.921875 44.089844 71.921875 " fill-opacity="1" fill-rule="nonzero"></path><path fill="#feca46" d="M 38.554688 90.375 C 38.078125 90.375 37.609375 90.195312 37.25 89.835938 L 35.402344 87.988281 C 34.683594 87.269531 34.683594 86.101562 35.402344 85.378906 C 36.125 84.660156 37.292969 84.660156 38.011719 85.378906 L 38.554688 85.921875 L 48.324219 76.152344 C 49.042969 75.429688 50.210938 75.429688 50.933594 76.152344 C 51.652344 76.875 51.652344 78.039062 50.933594 78.761719 L 39.859375 89.835938 C 39.5 90.195312 39.03125 90.375 38.554688 90.375 " fill-opacity="1" fill-rule="nonzero"></path><path fill="#fff9b3" d="M 44.089844 97.757812 L 33.015625 97.757812 C 29.960938 97.757812 27.480469 95.277344 27.480469 92.222656 L 27.480469 81.148438 C 27.480469 78.089844 29.960938 75.613281 33.015625 75.613281 L 40.398438 75.613281 C 41.417969 75.613281 42.246094 76.441406 42.246094 77.457031 C 42.246094 78.472656 41.417969 79.300781 40.398438 79.300781 L 33.015625 79.300781 C 32 79.300781 31.171875 80.132812 31.171875 81.148438 L 31.171875 92.222656 C 31.171875 93.238281 32 94.066406 33.015625 94.066406 L 44.089844 94.066406 C 45.109375 94.066406 45.9375 93.238281 45.9375 92.222656 L 45.9375 88.53125 C 45.9375 87.515625 46.765625 86.683594 47.78125 86.683594 C 48.796875 86.683594 49.628906 87.515625 49.628906 88.53125 L 49.628906 92.222656 C 49.628906 95.277344 47.148438 97.757812 44.089844 97.757812 " fill-opacity="1" fill-rule="nonzero"></path><path fill="#fff9b3" d="M 64.394531 33.164062 L 58.855469 33.164062 C 57.839844 33.164062 57.011719 32.332031 57.011719 31.316406 C 57.011719 30.300781 57.839844 29.472656 58.855469 29.472656 L 64.394531 29.472656 C 65.410156 29.472656 66.238281 30.300781 66.238281 31.316406 C 66.238281 32.332031 65.410156 33.164062 64.394531 33.164062 " fill-opacity="1" fill-rule="nonzero"></path><path fill="#fff9b3" d="M 84.695312 40.546875 L 58.855469 40.546875 C 57.839844 40.546875 57.011719 39.714844 57.011719 38.699219 C 57.011719 37.683594 57.839844 36.855469 58.855469 36.855469 L 84.695312 36.855469 C 85.710938 36.855469 86.539062 37.683594 86.539062 38.699219 C 86.539062 39.714844 85.710938 40.546875 84.695312 40.546875 " fill-opacity="1" fill-rule="nonzero"></path><path fill="#fff9b3" d="M 64.394531 59 L 58.855469 59 C 57.839844 59 57.011719 58.171875 57.011719 57.15625 C 57.011719 56.140625 57.839844 55.308594 58.855469 55.308594 L 64.394531 55.308594 C 65.410156 55.308594 66.238281 56.140625 66.238281 57.15625 C 66.238281 58.171875 65.410156 59 64.394531 59 " fill-opacity="1" fill-rule="nonzero"></path><path fill="#fff9b3" d="M 84.695312 66.382812 L 58.855469 66.382812 C 57.839844 66.382812 57.011719 65.554688 57.011719 64.539062 C 57.011719 63.519531 57.839844 62.691406 58.855469 62.691406 L 84.695312 62.691406 C 85.710938 62.691406 86.539062 63.519531 86.539062 64.539062 C 86.539062 65.554688 85.710938 66.382812 84.695312 66.382812 " fill-opacity="1" fill-rule="nonzero"></path><path fill="#fff9b3" d="M 64.394531 84.839844 L 58.855469 84.839844 C 57.839844 84.839844 57.011719 84.011719 57.011719 82.992188 C 57.011719 81.976562 57.839844 81.148438 58.855469 81.148438 L 64.394531 81.148438 C 65.410156 81.148438 66.238281 81.976562 66.238281 82.992188 C 66.238281 84.011719 65.410156 84.839844 64.394531 84.839844 " fill-opacity="1" fill-rule="nonzero"></path><path fill="#fff9b3" d="M 84.695312 92.222656 L 58.855469 92.222656 C 57.839844 92.222656 57.011719 91.394531 57.011719 90.375 C 57.011719 89.359375 57.839844 88.53125 58.855469 88.53125 L 84.695312 88.53125 C 85.710938 88.53125 86.539062 89.359375 86.539062 90.375 C 86.539062 91.394531 85.710938 92.222656 84.695312 92.222656 " fill-opacity="1" fill-rule="nonzero"></path><path fill="#ffd56a" d="M 58.277344 12.859375 L 55.164062 12.859375 C 54.148438 12.859375 53.320312 12.03125 53.320312 11.015625 C 53.320312 10 54.148438 9.167969 55.164062 9.167969 C 55.164062 9.167969 58.566406 9.167969 58.828125 9.167969 C 59.851562 9.191406 60.703125 9.984375 60.703125 11.015625 C 60.703125 12.242188 59.886719 12.859375 58.277344 12.859375 " fill-opacity="1" fill-rule="nonzero"></path></svg>