<svg xmlns="http://www.w3.org/2000/svg" xmlns:xlink="http://www.w3.org/1999/xlink" width="151" viewBox="0 0 113.25 113.249998" height="151" preserveAspectRatio="xMidYMid meet"><defs><clipPath id="6c29e40b82"><path d="M 0 0 L 112.503906 0 L 112.503906 112.503906 L 0 112.503906 Z M 0 0 " clip-rule="nonzero"></path></clipPath><clipPath id="0591b387ed"><path d="M 8.4375 11 L 83 11 L 83 106.964844 L 8.4375 106.964844 Z M 8.4375 11 " clip-rule="nonzero"></path></clipPath></defs><g clip-path="url(#6c29e40b82)"><path fill="#ffffff" d="M 0 0 L 112.503906 0 L 112.503906 112.503906 L 0 112.503906 Z M 0 0 " fill-opacity="1" fill-rule="nonzero"></path><path fill="#ffffff" d="M 0 0 L 112.503906 0 L 112.503906 112.503906 L 0 112.503906 Z M 0 0 " fill-opacity="1" fill-rule="nonzero"></path></g><g clip-path="url(#0591b387ed)"><path fill="#ffd56a" d="M 82.976562 59.800781 C 82.699219 60.429688 82.421875 61.058594 82.144531 61.6875 C 81.179688 61.777344 80.078125 61.894531 79.039062 62.039062 C 76.300781 62.417969 72.867188 63.519531 66.03125 66.710938 C 59.195312 69.902344 53.382812 77.304688 48.769531 84.027344 C 44.15625 90.75 39.597656 105.730469 35.894531 106.300781 C 32.195312 106.871094 29.175781 100.945312 27.75 98.554688 C 26.324219 96.160156 22.792969 88.699219 21.199219 84.941406 C 19.605469 81.179688 14.894531 67.773438 12.386719 58.964844 C 9.882812 50.152344 8.894531 41.644531 8.667969 30.632812 C 8.4375 19.617188 14.515625 13.542969 19.679688 11.492188 C 19.746094 11.464844 19.816406 11.441406 19.890625 11.417969 C 22.5625 10.484375 27.230469 11.199219 32.695312 13.3125 C 38.082031 15.394531 44.25 18.84375 50.042969 23.417969 C 50.042969 23.417969 40.054688 18.859375 33.105469 19.03125 C 26.15625 19.203125 21.3125 23.074219 18.808594 28.085938 C 16.300781 33.101562 15.730469 43.46875 16.640625 51.898438 C 17.554688 60.328125 21.199219 73.320312 23.476562 80.382812 C 25.757812 87.445312 29.800781 93.882812 32.363281 95.59375 C 34.929688 97.300781 36.464844 94.738281 39.804688 87.519531 C 43.148438 80.308594 51.882812 72.105469 56.289062 68.53125 C 60.367188 65.230469 73.253906 60.59375 82.976562 59.800781 " fill-opacity="1" fill-rule="nonzero"></path></g><path fill="#ffd56a" d="M 19.375 10.050781 C 23.097656 8.453125 32.058594 9.214844 40.644531 14.074219 C 49.226562 18.9375 56.289062 23.113281 64.796875 20.757812 C 73.304688 18.40625 83.328125 15.214844 89.480469 18.554688 C 95.632812 21.898438 95.554688 30.859375 93.125 39.976562 C 90.695312 49.089844 80.820312 72.179688 75.808594 79.394531 C 70.796875 86.609375 69.203125 89.574219 69.203125 89.574219 C 102.089844 55.847656 105.507812 28.660156 104.253906 23.417969 C 103 18.175781 101.558594 16.125 98.976562 14.453125 C 96.394531 12.785156 89.785156 9.441406 80.667969 12.023438 C 71.554688 14.605469 68.0625 16.429688 65.632812 17.265625 C 63.199219 18.101562 57.011719 18.632812 53.667969 17.71875 C 50.328125 16.808594 39.273438 9.898438 33.273438 8.757812 C 24.332031 7.125 19.375 10.050781 19.375 10.050781 " fill-opacity="1" fill-rule="nonzero"></path></svg>