<svg width="55" height="20" viewBox="0 0 55 20" fill="none" xmlns="http://www.w3.org/2000/svg">
<rect width="55" height="20" fill="#FFFFFF"/>
<rect x="2" y="3" width="50" height="15" rx="7" fill="#DA291E"/>
<path d="M16.696 6.236V7.232C16.344 7.048 16.028 6.916 15.748 6.836C15.468 6.756 15.1 6.716 14.644 6.716C13.772 6.716 13.044 7.012 12.46 7.604C11.884 8.196 11.596 8.968 11.596 9.92C11.596 10.912 11.884 11.704 12.46 12.296C13.036 12.888 13.8 13.184 14.752 13.184C15.52 13.184 16.176 12.98 16.72 12.572V13.592C16.224 13.928 15.544 14.096 14.68 14.096C13.464 14.096 12.476 13.724 11.716 12.98C10.956 12.228 10.576 11.208 10.576 9.92C10.576 8.704 10.96 7.716 11.728 6.956C12.504 6.188 13.476 5.804 14.644 5.804C15.484 5.804 16.168 5.948 16.696 6.236ZM21.9708 10.568V10.328C21.9708 9.824 21.8348 9.424 21.5628 9.128C21.2908 8.824 20.9148 8.672 20.4348 8.672C19.9788 8.672 19.5908 8.836 19.2708 9.164C18.9508 9.492 18.7628 9.96 18.7068 10.568H21.9708ZM22.5348 12.8V13.688C22.0628 13.936 21.4868 14.06 20.8068 14.06C19.8868 14.06 19.1428 13.78 18.5748 13.22C18.0148 12.652 17.7348 11.904 17.7348 10.976C17.7348 10.008 17.9868 9.244 18.4908 8.684C18.9948 8.124 19.6428 7.844 20.4348 7.844C21.1948 7.844 21.7988 8.088 22.2468 8.576C22.6948 9.064 22.9188 9.756 22.9188 10.652C22.9188 10.908 22.8988 11.144 22.8588 11.36H18.7068C18.7788 11.96 19.0068 12.42 19.3908 12.74C19.7748 13.06 20.2788 13.22 20.9028 13.22C21.5828 13.22 22.1268 13.08 22.5348 12.8ZM25.3003 7.916V8.972C25.6603 8.212 26.3003 7.832 27.2203 7.832C27.8123 7.832 28.2843 8.012 28.6363 8.372C28.9883 8.732 29.1643 9.212 29.1643 9.812V14H28.2163V10.064C28.2163 9.616 28.1003 9.276 27.8683 9.044C27.6443 8.804 27.3483 8.684 26.9803 8.684C26.5243 8.684 26.1283 8.86 25.7923 9.212C25.4643 9.564 25.3003 10.052 25.3003 10.676V14H24.3643V7.916H25.3003ZM32.1528 8.684V12.248C32.1528 12.896 32.4568 13.22 33.0648 13.22C33.3768 13.22 33.6528 13.128 33.8928 12.944V13.844C33.6288 13.988 33.3328 14.06 33.0048 14.06C31.8048 14.06 31.2048 13.448 31.2048 12.224V8.684H30.2328V7.916H31.2048V6.404H32.1528V7.916H33.8328V8.684H32.1528ZM36.2104 7.916V8.984C36.5304 8.232 37.0824 7.856 37.8664 7.856C38.0104 7.856 38.1224 7.864 38.2024 7.88V8.816C38.0344 8.76 37.8624 8.732 37.6864 8.732C37.2624 8.732 36.9104 8.928 36.6304 9.32C36.3504 9.712 36.2104 10.164 36.2104 10.676V14H35.2624L35.2744 7.916H36.2104ZM42.4645 11.192H41.4085C40.8965 11.192 40.5125 11.292 40.2565 11.492C40.0005 11.692 39.8725 11.944 39.8725 12.248C39.8725 12.552 39.9725 12.8 40.1725 12.992C40.3725 13.176 40.6645 13.268 41.0485 13.268C41.4805 13.268 41.8245 13.148 42.0805 12.908C42.3365 12.66 42.4645 12.348 42.4645 11.972V11.192ZM39.3205 9.188V8.24C39.7765 7.96 40.3765 7.82 41.1205 7.82C42.6485 7.82 43.4125 8.596 43.4125 10.148V14H42.4765V13.28C42.1645 13.8 41.5965 14.06 40.7725 14.06C40.2045 14.06 39.7445 13.892 39.3925 13.556C39.0485 13.22 38.8765 12.796 38.8765 12.284C38.8765 11.7 39.0965 11.248 39.5365 10.928C39.9845 10.6 40.5925 10.436 41.3605 10.436H42.4645V10.124C42.4645 9.644 42.3565 9.284 42.1405 9.044C41.9245 8.796 41.5605 8.672 41.0485 8.672C40.4005 8.672 39.8245 8.844 39.3205 9.188ZM45.1428 14V5.516H46.0908V14H45.1428Z" fill="white"/>
</svg>
