<svg width="49" height="20" viewBox="0 0 49 20" fill="none" xmlns="http://www.w3.org/2000/svg">
<rect width="49" height="20" fill="#FFFFFF"/>
<rect x="2" y="3" width="44" height="15" rx="7" fill="#EDC21C"/>
<path d="M16.696 6.236V7.232C16.344 7.048 16.028 6.916 15.748 6.836C15.468 6.756 15.1 6.716 14.644 6.716C13.772 6.716 13.044 7.012 12.46 7.604C11.884 8.196 11.596 8.968 11.596 9.92C11.596 10.912 11.884 11.704 12.46 12.296C13.036 12.888 13.8 13.184 14.752 13.184C15.52 13.184 16.176 12.98 16.72 12.572V13.592C16.224 13.928 15.544 14.096 14.68 14.096C13.464 14.096 12.476 13.724 11.716 12.98C10.956 12.228 10.576 11.208 10.576 9.92C10.576 8.704 10.96 7.716 11.728 6.956C12.504 6.188 13.476 5.804 14.644 5.804C15.484 5.804 16.168 5.948 16.696 6.236ZM18.1428 14V7.916H19.0908V14H18.1428ZM18.1668 6.452C18.0548 6.332 17.9988 6.184 17.9988 6.008C17.9988 5.832 18.0548 5.684 18.1668 5.564C18.2868 5.444 18.4348 5.384 18.6108 5.384C18.7868 5.384 18.9348 5.444 19.0548 5.564C19.1748 5.684 19.2348 5.832 19.2348 6.008C19.2348 6.184 19.1748 6.332 19.0548 6.452C18.9348 6.564 18.7868 6.62 18.6108 6.62C18.4348 6.62 18.2868 6.564 18.1668 6.452ZM21.8315 7.916V8.984C22.1515 8.232 22.7035 7.856 23.4875 7.856C23.6315 7.856 23.7435 7.864 23.8235 7.88V8.816C23.6555 8.76 23.4835 8.732 23.3075 8.732C22.8835 8.732 22.5315 8.928 22.2515 9.32C21.9715 9.712 21.8315 10.164 21.8315 10.676V14H20.8835L20.8955 7.916H21.8315ZM25.4336 10.988C25.4416 11.644 25.6416 12.192 26.0336 12.632C26.4256 13.064 26.9816 13.28 27.7016 13.28C28.1656 13.28 28.5976 13.148 28.9976 12.884V13.784C28.6136 14.016 28.1416 14.132 27.5816 14.132C26.6216 14.132 25.8576 13.828 25.2896 13.22C24.7296 12.604 24.4496 11.856 24.4496 10.976C24.4496 10.112 24.7296 9.368 25.2896 8.744C25.8576 8.12 26.6296 7.808 27.6056 7.808C28.1256 7.808 28.5896 7.92 28.9976 8.144V9.044C28.6296 8.796 28.1976 8.672 27.7016 8.672C27.0136 8.672 26.4616 8.896 26.0456 9.344C25.6376 9.784 25.4336 10.332 25.4336 10.988ZM30.506 14V5.516H31.454V14H30.506ZM37.1348 10.568V10.328C37.1348 9.824 36.9988 9.424 36.7268 9.128C36.4548 8.824 36.0788 8.672 35.5988 8.672C35.1428 8.672 34.7548 8.836 34.4348 9.164C34.1148 9.492 33.9268 9.96 33.8708 10.568H37.1348ZM37.6988 12.8V13.688C37.2268 13.936 36.6508 14.06 35.9708 14.06C35.0508 14.06 34.3068 13.78 33.7388 13.22C33.1788 12.652 32.8988 11.904 32.8988 10.976C32.8988 10.008 33.1508 9.244 33.6548 8.684C34.1588 8.124 34.8068 7.844 35.5988 7.844C36.3588 7.844 36.9628 8.088 37.4108 8.576C37.8588 9.064 38.0828 9.756 38.0828 10.652C38.0828 10.908 38.0628 11.144 38.0228 11.36H33.8708C33.9428 11.96 34.1708 12.42 34.5548 12.74C34.9388 13.06 35.4428 13.22 36.0668 13.22C36.7468 13.22 37.2908 13.08 37.6988 12.8Z" fill="black"/>
</svg>
