<svg width="86" height="20" viewBox="0 0 86 20" fill="none" xmlns="http://www.w3.org/2000/svg">
<rect width="86" height="20" fill="#F6ECE3"/>
<rect x="2" y="3" width="80" height="15" rx="7" fill="#7443B9"/>
<path d="M9.896 12.148H13.436V13H8.924V4.912H13.376V5.764H9.896V8.536H12.968V9.388H9.896V12.148ZM14.9357 13V4.516H15.8837V13H14.9357ZM17.7365 13V6.916H18.6845V13H17.7365ZM17.7605 5.452C17.6485 5.332 17.5925 5.184 17.5925 5.008C17.5925 4.832 17.6485 4.684 17.7605 4.564C17.8805 4.444 18.0285 4.384 18.2045 4.384C18.3805 4.384 18.5285 4.444 18.6485 4.564C18.7685 4.684 18.8285 4.832 18.8285 5.008C18.8285 5.184 18.7685 5.332 18.6485 5.452C18.5285 5.564 18.3805 5.62 18.2045 5.62C18.0285 5.62 17.8805 5.564 17.7605 5.452ZM24.3533 6.916V7.612L21.2333 12.148H24.5213V13H20.1413V12.256L23.2253 7.756H20.2613V6.916H24.3533ZM29.2028 10.192H28.1468C27.6348 10.192 27.2508 10.292 26.9948 10.492C26.7388 10.692 26.6108 10.944 26.6108 11.248C26.6108 11.552 26.7108 11.8 26.9108 11.992C27.1108 12.176 27.4028 12.268 27.7868 12.268C28.2188 12.268 28.5628 12.148 28.8188 11.908C29.0748 11.66 29.2028 11.348 29.2028 10.972V10.192ZM26.0588 8.188V7.24C26.5148 6.96 27.1148 6.82 27.8588 6.82C29.3868 6.82 30.1508 7.596 30.1508 9.148V13H29.2148V12.28C28.9028 12.8 28.3348 13.06 27.5108 13.06C26.9428 13.06 26.4828 12.892 26.1308 12.556C25.7868 12.22 25.6148 11.796 25.6148 11.284C25.6148 10.7 25.8348 10.248 26.2748 9.928C26.7228 9.6 27.3308 9.436 28.0988 9.436H29.2028V9.124C29.2028 8.644 29.0948 8.284 28.8788 8.044C28.6628 7.796 28.2988 7.672 27.7868 7.672C27.1388 7.672 26.5628 7.844 26.0588 8.188ZM34.605 12.232C35.093 12.232 35.497 12.028 35.817 11.62C36.137 11.212 36.297 10.68 36.297 10.024C36.297 9.272 36.129 8.696 35.793 8.296C35.465 7.888 35.049 7.684 34.545 7.684C34.113 7.684 33.717 7.864 33.357 8.224C32.997 8.584 32.817 9.148 32.817 9.916C32.817 10.724 32.989 11.312 33.333 11.68C33.685 12.048 34.109 12.232 34.605 12.232ZM32.817 4.516V7.828C33.257 7.156 33.873 6.82 34.665 6.82C35.433 6.82 36.061 7.116 36.549 7.708C37.037 8.292 37.281 9.06 37.281 10.012C37.281 10.868 37.049 11.596 36.585 12.196C36.129 12.796 35.497 13.096 34.689 13.096C33.873 13.096 33.249 12.764 32.817 12.1V13H31.869V4.516H32.817ZM42.5528 9.568V9.328C42.5528 8.824 42.4168 8.424 42.1448 8.128C41.8728 7.824 41.4968 7.672 41.0168 7.672C40.5608 7.672 40.1728 7.836 39.8528 8.164C39.5328 8.492 39.3448 8.96 39.2888 9.568H42.5528ZM43.1168 11.8V12.688C42.6448 12.936 42.0688 13.06 41.3888 13.06C40.4688 13.06 39.7248 12.78 39.1568 12.22C38.5968 11.652 38.3168 10.904 38.3168 9.976C38.3168 9.008 38.5688 8.244 39.0728 7.684C39.5768 7.124 40.2248 6.844 41.0168 6.844C41.7768 6.844 42.3808 7.088 42.8288 7.576C43.2768 8.064 43.5008 8.756 43.5008 9.652C43.5008 9.908 43.4808 10.144 43.4408 10.36H39.2888C39.3608 10.96 39.5888 11.42 39.9728 11.74C40.3568 12.06 40.8608 12.22 41.4848 12.22C42.1648 12.22 42.7088 12.08 43.1168 11.8ZM46.2543 7.684V11.248C46.2543 11.896 46.5583 12.22 47.1663 12.22C47.4783 12.22 47.7543 12.128 47.9943 11.944V12.844C47.7303 12.988 47.4343 13.06 47.1063 13.06C45.9063 13.06 45.3063 12.448 45.3063 11.224V7.684H44.3343V6.916H45.3063V5.404H46.2543V6.916H47.9343V7.684H46.2543ZM50.312 4.516V7.972C50.672 7.212 51.312 6.832 52.232 6.832C52.816 6.832 53.284 7.012 53.636 7.372C53.996 7.732 54.176 8.22 54.176 8.836V13H53.228V9.064C53.228 8.624 53.112 8.284 52.88 8.044C52.656 7.804 52.36 7.684 51.992 7.684C51.544 7.684 51.152 7.856 50.816 8.2C50.48 8.544 50.312 9.036 50.312 9.676V13H49.376V4.516H50.312ZM58.8342 13V4.516H59.7822V13H58.8342ZM61.6349 13V6.916H62.5829V13H61.6349ZM61.6589 5.452C61.5469 5.332 61.4909 5.184 61.4909 5.008C61.4909 4.832 61.5469 4.684 61.6589 4.564C61.7789 4.444 61.9269 4.384 62.1029 4.384C62.2789 4.384 62.4269 4.444 62.5469 4.564C62.6669 4.684 62.7269 4.832 62.7269 5.008C62.7269 5.184 62.6669 5.332 62.5469 5.452C62.4269 5.564 62.2789 5.62 62.1029 5.62C61.9269 5.62 61.7789 5.564 61.6589 5.452ZM65.3237 6.916V7.972C65.6837 7.212 66.3237 6.832 67.2437 6.832C67.8357 6.832 68.3077 7.012 68.6597 7.372C69.0117 7.732 69.1877 8.212 69.1877 8.812V13H68.2397V9.064C68.2397 8.616 68.1237 8.276 67.8917 8.044C67.6677 7.804 67.3717 7.684 67.0037 7.684C66.5477 7.684 66.1517 7.86 65.8157 8.212C65.4877 8.564 65.3237 9.052 65.3237 9.676V13H64.3877V6.916H65.3237ZM74.7442 9.568V9.328C74.7442 8.824 74.6082 8.424 74.3362 8.128C74.0642 7.824 73.6882 7.672 73.2082 7.672C72.7522 7.672 72.3642 7.836 72.0442 8.164C71.7242 8.492 71.5362 8.96 71.4802 9.568H74.7442ZM75.3082 11.8V12.688C74.8362 12.936 74.2602 13.06 73.5802 13.06C72.6602 13.06 71.9162 12.78 71.3482 12.22C70.7882 11.652 70.5082 10.904 70.5082 9.976C70.5082 9.008 70.7602 8.244 71.2642 7.684C71.7682 7.124 72.4162 6.844 73.2082 6.844C73.9682 6.844 74.5722 7.088 75.0202 7.576C75.4682 8.064 75.6922 8.756 75.6922 9.652C75.6922 9.908 75.6722 10.144 75.6322 10.36H71.4802C71.5522 10.96 71.7802 11.42 72.1642 11.74C72.5482 12.06 73.0522 12.22 73.6762 12.22C74.3562 12.22 74.9002 12.08 75.3082 11.8Z" fill="white"/>
</svg>
