<svg xmlns="http://www.w3.org/2000/svg" width="49" height="63" viewBox="0 0 49 63" fill="none"><g opacity="0.65"><mask id="mask0_51_28" style="mask-type:luminance" maskUnits="userSpaceOnUse" x="0" y="0" width="49" height="63"><path d="M0 0H49V63H0V0Z" fill="white"></path></mask><g mask="url(#mask0_51_28)"><path d="M32.0327 26.8583C33.634 25.8886 35.2023 24.8379 36.6347 23.6803C40.9856 20.1483 44.0069 15.8753 45.2295 10.688C45.53 9.40497 45.6535 8.08878 45.8305 6.76891H49.0206V-0.0037384H0.0617263V6.76891H3.25183C3.43294 12.3433 5.79156 17.1436 9.81727 21.3539C11.9413 23.577 14.4604 25.3946 17.1771 27.0094C19.6304 28.4657 20.5278 31.087 19.474 33.4982C18.943 34.7148 17.951 35.5591 16.7491 36.2707C11.0563 39.6404 6.74654 44.024 4.49906 49.8749C3.71697 51.9248 3.31769 54.0373 3.25183 56.1904H0.0123291V62.9631H48.9712V56.1904H45.7564C45.6658 53.5101 45.0484 50.9146 43.8876 48.426C41.4343 43.176 37.2933 39.2238 32.0369 36.1306C28.1017 33.8153 28.1264 29.2289 32.0327 26.8583ZM26.7351 31.323C26.6651 34.0807 27.97 36.2633 30.5303 37.7896C33.1647 39.3565 35.5974 41.1262 37.6391 43.3014C41.0885 46.9808 43.0849 51.1911 43.3813 56.0098C43.3854 56.0688 43.3854 56.1314 43.3854 56.1904H5.60633C5.70101 55.2466 5.7751 54.2954 5.97268 53.3663C7.41749 46.6048 11.8713 41.7198 18.1445 38.0071C20.7542 36.4661 22.2443 34.3683 22.2648 31.5516C22.2895 28.7938 20.9188 26.6518 18.3503 25.1365C16.2304 23.883 14.2423 22.4894 12.497 20.8304C8.85406 17.3832 6.49544 13.3646 5.78333 8.63443C5.70101 8.08878 5.66808 7.53945 5.62691 6.99012C5.6228 6.91638 5.6228 6.83896 5.6228 6.76522H43.4101C43.3072 7.73854 43.229 8.6971 43.0273 9.63724C41.6031 16.3546 37.2028 21.2285 30.979 24.9153C28.3816 26.4675 26.8092 28.5026 26.7351 31.323Z" fill="black"></path></g><path d="M38.6311 14.6661C29.1678 14.6661 19.8116 14.6661 10.4471 14.6661C10.4594 14.7509 10.4553 14.7988 10.4759 14.8357C10.5747 15.0126 10.6776 15.1896 10.7887 15.3555C12.995 18.7326 16.0822 21.3318 19.721 23.4443C21.9068 24.7126 23.3763 26.4786 24.1584 28.6943C24.2654 28.993 24.3477 29.3027 24.4712 29.6898C24.5618 29.5534 24.6111 29.5091 24.6235 29.4538C25.3109 26.7403 27.085 24.7642 29.6371 23.1973C31.4277 22.095 33.0989 20.8083 34.6878 19.4773C36.3055 18.1243 37.5774 16.4984 38.6311 14.6661Z" fill="black"></path><path d="M24.4918 44.2563C23.8085 45.5062 22.6847 46.2251 21.3963 46.7486C20.569 47.0841 19.7046 47.3348 18.8484 47.5966C15.8806 48.5072 13.0156 49.5838 10.5994 51.4308C9.46742 52.2972 8.54537 53.3074 8.1214 54.6789C19.0789 54.6789 29.9582 54.6789 40.8827 54.6789C40.4094 53.1894 39.3721 52.1203 38.1166 51.2133C35.6345 49.4142 32.7325 48.3561 29.7318 47.4712C27.6695 46.8629 25.6526 46.1845 24.4918 44.2563Z" fill="black"></path><path d="M22.6148 40.0644C22.6148 40.0644 24.3724 42.3392 26.4923 40.0644C26.4923 40.0644 27.9741 38.3869 24.5535 34.7849C24.5535 34.7886 21.2193 38.0883 22.6148 40.0644Z" fill="black"></path></g></svg>