<svg xmlns="http://www.w3.org/2000/svg" width="200" height="200" viewBox="0 0 200 200" fill="none"><mask id="mask0_65_67" style="mask-type:luminance" maskUnits="userSpaceOnUse" x="0" y="0" width="200" height="200"><path d="M0 0H200V200H0V0Z" fill="white"></path></mask><g mask="url(#mask0_65_67)"><mask id="mask1_65_67" style="mask-type:luminance" maskUnits="userSpaceOnUse" x="0" y="0" width="200" height="200"><path d="M99.9965 0C44.7738 0 0 44.7738 0 99.9965C0 155.226 44.7738 200 99.9965 200C155.226 200 200 155.226 200 99.9965C200 44.7738 155.226 0 99.9965 0Z" fill="white"></path></mask><g mask="url(#mask1_65_67)"><path d="M0 0H200V200H0V0Z" fill="#FFD56A"></path></g></g><g opacity="0.55"><mask id="mask2_65_67" style="mask-type:luminance" maskUnits="userSpaceOnUse" x="13" y="29" width="179" height="144"><path d="M191.556 29.0463H13.6V172.794H191.556V29.0463Z" fill="white"></path></mask><g mask="url(#mask2_65_67)"><mask id="mask3_65_67" style="mask-type:luminance" maskUnits="userSpaceOnUse" x="14" y="31" width="175" height="141"><path d="M14.1055 31.0659H188.405V171.291H14.1055V31.0659Z" fill="white"></path></mask><g mask="url(#mask3_65_67)"><path fill-rule="evenodd" clip-rule="evenodd" d="M133.57 94.4359C133.57 95.3416 132.794 96.1295 131.918 96.1295H70.5291C69.6534 96.1295 68.877 95.3416 68.877 94.4359V84.9173C68.877 84.0026 69.6534 83.2327 70.5291 83.2327H93.6493L87.4291 88.1324C86.2645 89.0471 86.0659 90.6955 86.9416 91.8638C87.8354 92.9687 89.6138 93.1679 90.7333 92.2894L101.224 83.9392L111.813 92.2894C112.933 93.1679 114.576 93.0049 115.506 91.8638C116.381 90.6955 116.183 89.0471 115.018 88.1324L108.798 83.2327H131.918C132.794 83.2327 133.57 84.0026 133.57 84.9173V94.4359ZM125.12 134.593C125.12 136.07 123.955 137.274 122.493 137.274H109.574V101.41H125.12V134.593ZM104.329 101.41V137.274H98.118V101.41H104.329ZM77.327 134.593V101.41H92.8638V137.274H79.9451C78.4916 137.274 77.327 136.07 77.327 134.593ZM82.9604 63.5344C82.9604 62.9819 83.7458 62.1668 84.3236 62.1668C86.2645 62.2302 88.2055 63.3623 90.8236 66.1427C93.8388 69.3126 95.7798 73.1979 96.6555 75.2357C96.9444 75.6975 97.0437 76.1504 97.3326 76.6032C96.8541 76.3949 96.3666 76.2228 95.9784 76.0055C93.9381 75.0907 90.0472 73.0892 86.9416 70.0552C84.125 67.4197 83.0597 65.5178 82.9604 63.5344ZM105.792 75.2357C106.658 73.1979 108.699 69.3126 111.714 66.1427C114.341 63.3623 116.183 62.2302 118.124 62.1668C118.765 62.1487 119.496 63.0363 119.487 63.5344C119.387 65.5178 118.322 67.4197 115.596 70.0552C112.391 73.0892 108.608 75.0907 106.568 76.0055C106.081 76.2228 105.593 76.3949 105.205 76.6032C105.403 76.1504 105.593 75.6975 105.792 75.2357ZM131.918 77.9527H113.953C118.548 75.0636 124.66 69.7292 124.732 63.6431C124.777 59.8845 121.554 56.8415 118.024 56.8777C110.107 56.9773 103.787 67.1661 101.224 72.5186C100.059 70.0914 97.9194 65.9616 94.6152 62.4838C91.9972 59.7758 88.7923 56.9864 84.4138 56.8777C82.7618 56.8777 81.0194 57.5841 79.7555 58.8883C78.3923 60.1562 77.7152 61.9223 77.8145 63.6431C77.8145 68.0175 80.6312 71.2869 83.2493 73.8953C85.0006 75.4802 86.752 76.8568 88.4944 77.9527H70.5291C66.7375 77.9527 63.6319 81.0863 63.6319 84.9173V94.4359C63.6319 98.2759 66.7375 101.41 70.5291 101.41H72.0819V134.593C72.0819 138.986 75.675 142.554 79.9451 142.554H122.493C126.871 142.554 130.365 138.986 130.365 134.593V101.41H131.918C135.71 101.41 138.815 98.2759 138.815 94.4359V84.9173C138.815 81.0863 135.71 77.9527 131.918 77.9527ZM156.889 119.369C160.644 107.668 160.644 94.6804 156.889 82.9882H180.099L168.833 99.716C168.255 100.594 168.255 101.79 168.833 102.677L180.099 119.369H156.889ZM101.224 166.02C128.036 166.02 151.644 149.528 161.159 124.649H154.939C145.911 145.543 125.219 160.206 101.224 160.206C77.2277 160.206 56.5361 145.543 47.5986 124.649H41.2881C50.8034 149.528 74.5104 166.02 101.224 166.02ZM33.7048 102.677C34.2916 101.79 34.2916 100.594 33.7048 99.716L22.3388 82.9882H45.5583C41.8027 94.6804 41.7937 107.668 45.5583 119.369H22.3388L33.7048 102.677ZM101.224 154.917C130.555 154.917 154.46 130.817 154.46 101.192C154.46 71.5677 130.555 47.4315 101.224 47.4315C71.8833 47.4315 47.9868 71.5677 47.9868 101.192C47.9868 130.817 71.8833 154.917 101.224 154.917ZM101.224 36.3461C74.5104 36.3461 50.8034 52.8203 41.2881 77.6991H47.5986C56.5361 56.8143 77.2277 42.1515 101.224 42.1515C125.219 42.1515 145.911 56.8143 154.939 77.6991H161.159C151.644 52.8203 128.036 36.3461 101.224 36.3461ZM174.177 101.192L187.195 81.8199C188.378 80.1263 187.213 77.6991 185.056 77.6991H166.792C156.943 49.7863 130.681 31.057 101.224 31.057C71.7298 31.057 45.6305 49.6957 35.7451 77.6991H17.3916C15.2611 77.6991 14.1145 80.1535 15.2611 81.8199L28.3694 101.192L15.2611 120.537C14.1055 122.222 15.2611 124.649 17.3916 124.649H35.7451C45.6305 152.661 71.6937 171.3 101.224 171.3C130.708 171.3 156.952 152.571 166.792 124.649H185.056C187.231 124.649 188.369 122.231 187.195 120.537L174.177 101.192Z" fill="#242222"></path></g></g></g></svg>