<svg xmlns="http://www.w3.org/2000/svg" width="225" height="230" viewBox="0 0 225 230" fill="none"><mask id="mask0_64_63" style="mask-type:luminance" maskUnits="userSpaceOnUse" x="15" y="16" width="210" height="214"><path d="M15.6667 16H224.556V229.333H15.6667V16Z" fill="white"></path></mask><g mask="url(#mask0_64_63)"><mask id="mask1_64_63" style="mask-type:luminance" maskUnits="userSpaceOnUse" x="15" y="16" width="210" height="214"><path d="M120.107 16C62.4305 16 15.6667 63.7587 15.6667 122.663C15.6667 181.575 62.4305 229.333 120.107 229.333C177.792 229.333 224.556 181.575 224.556 122.663C224.556 63.7587 177.792 16 120.107 16Z" fill="white"></path></mask><g mask="url(#mask1_64_63)"><path d="M15.6667 16H224.556V229.333H15.6667V16Z" fill="#FFD56A"></path></g></g><g opacity="0.55"><mask id="mask2_64_63" style="mask-type:luminance" maskUnits="userSpaceOnUse" x="50" y="44" width="138" height="148"><path d="M188 44.4445H50.4815V192H188V44.4445Z" fill="white"></path></mask><g mask="url(#mask2_64_63)"><path d="M119.423 72.306C120.28 72.306 121.129 72.2298 121.97 72.0602C122.81 71.8992 123.625 71.6534 124.422 71.3313C125.21 71.0177 125.964 70.6193 126.683 70.1531C127.394 69.6869 128.052 69.1529 128.659 68.5595C129.265 67.9662 129.811 67.322 130.288 66.6269C130.764 65.9319 131.163 65.1944 131.492 64.4146C131.821 63.6433 132.072 62.838 132.237 62.0158C132.402 61.1936 132.488 60.3629 132.488 59.5238C132.488 58.6846 132.402 57.8539 132.237 57.0317C132.072 56.2011 131.821 55.4043 131.492 54.6329C131.163 53.8531 130.764 53.1157 130.288 52.4206C129.811 51.7171 129.265 51.0729 128.659 50.4796C128.052 49.8862 127.394 49.3607 126.683 48.8945C125.964 48.4283 125.21 48.0299 124.422 47.7078C123.625 47.3857 122.81 47.1484 121.97 46.9788C121.129 46.8178 120.28 46.733 119.423 46.733C118.565 46.733 117.716 46.8178 116.867 46.9788C116.026 47.1484 115.212 47.3857 114.415 47.7078C113.626 48.0299 112.872 48.4283 112.162 48.8945C111.443 49.3607 110.784 49.8862 110.178 50.4796C109.571 51.0729 109.034 51.7171 108.558 52.4206C108.081 53.1157 107.674 53.8531 107.345 54.6329C107.015 55.4043 106.773 56.2011 106.6 57.0317C106.435 57.8539 106.348 58.6846 106.348 59.5238C106.348 60.3629 106.435 61.1936 106.6 62.0158C106.773 62.838 107.015 63.6433 107.345 64.4146C107.674 65.1944 108.081 65.9319 108.558 66.6269C109.034 67.322 109.571 67.9662 110.178 68.5595C110.784 69.1529 111.443 69.6869 112.162 70.1531C112.872 70.6193 113.626 71.0177 114.415 71.3313C115.212 71.6534 116.026 71.8992 116.867 72.0602C117.716 72.2298 118.565 72.306 119.423 72.306ZM119.423 51.0899C120.566 51.0899 121.658 51.3102 122.715 51.7341C123.772 52.1663 124.708 52.7682 125.514 53.5649C126.319 54.3532 126.943 55.2602 127.376 56.2943C127.818 57.3284 128.035 58.4049 128.035 59.5238C128.035 60.6427 127.818 61.7191 127.376 62.7448C126.943 63.7789 126.319 64.6943 125.514 65.4826C124.708 66.2709 123.772 66.8812 122.715 67.3135C121.658 67.7373 120.566 67.9492 119.423 67.9492C118.279 67.9492 117.179 67.7373 116.122 67.3135C115.064 66.8812 114.137 66.2709 113.332 65.4826C112.517 64.6943 111.893 63.7789 111.46 62.7448C111.027 61.7191 110.802 60.6427 110.802 59.5238C110.802 58.4049 111.027 57.3284 111.46 56.2943C111.893 55.2602 112.517 54.3532 113.332 53.5649C114.137 52.7682 115.064 52.1663 116.122 51.7341C117.179 51.3102 118.279 51.0899 119.423 51.0899Z" fill="black"></path><mask id="mask3_64_63" style="mask-type:luminance" maskUnits="userSpaceOnUse" x="51" y="74" width="137" height="117"><path d="M51.4085 74.8235H187.211V190.983H51.4085V74.8235Z" fill="white"></path></mask><g mask="url(#mask3_64_63)"><path d="M186.57 146.932L178.773 139.328C178.573 139.099 178.331 138.921 178.053 138.786C177.776 138.659 177.482 138.582 177.17 138.574C176.858 138.557 176.563 138.608 176.269 138.718C175.983 138.828 175.731 138.998 175.506 139.21C175.29 139.422 175.125 139.667 175.012 139.956C174.9 140.235 174.848 140.532 174.856 140.829C174.874 141.134 174.943 141.422 175.082 141.693C175.212 141.973 175.402 142.202 175.636 142.405L179.622 146.304H155.552C154.036 141.142 147.157 136.87 136.829 134.539L162.103 109.754V115.222C162.103 115.51 162.155 115.79 162.267 116.052C162.38 116.324 162.544 116.552 162.752 116.756C162.96 116.959 163.203 117.12 163.472 117.231C163.749 117.341 164.026 117.4 164.329 117.4C164.624 117.4 164.901 117.341 165.178 117.231C165.447 117.12 165.69 116.959 165.898 116.756C166.105 116.552 166.27 116.324 166.383 116.052C166.495 115.79 166.547 115.51 166.547 115.222V104.457C166.547 104.169 166.495 103.889 166.383 103.626C166.27 103.355 166.105 103.126 165.898 102.923C165.69 102.711 165.447 102.558 165.178 102.448C164.901 102.338 164.624 102.278 164.329 102.278H153.308C153.014 102.278 152.728 102.338 152.451 102.448C152.182 102.558 151.939 102.711 151.732 102.923C151.524 103.126 151.359 103.355 151.246 103.626C151.134 103.889 151.082 104.169 151.082 104.457C151.082 104.745 151.134 105.025 151.246 105.296C151.359 105.559 151.524 105.796 151.732 105.999C151.939 106.203 152.182 106.364 152.451 106.474C152.728 106.584 153.014 106.635 153.308 106.635H158.957L131.778 133.234V121.469H134.585C135.295 121.469 135.98 121.333 136.647 121.07C137.306 120.799 137.886 120.418 138.389 119.926C138.9 119.434 139.29 118.858 139.558 118.214C139.836 117.57 139.965 116.9 139.965 116.196V86.9447C139.974 85.8004 139.801 84.6815 139.428 83.5881C139.064 82.4947 138.527 81.4944 137.817 80.579C137.115 79.6551 136.275 78.8753 135.304 78.2311C134.334 77.5784 133.285 77.1037 132.159 76.7986C129.958 76.2476 127.732 75.8747 125.479 75.6882C125.011 75.6373 124.578 75.7306 124.162 75.9509C123.755 76.1713 123.451 76.4934 123.252 76.9003L119.31 84.9189L115.394 76.9003C115.186 76.4934 114.883 76.1713 114.475 75.9509C114.068 75.7306 113.626 75.6373 113.167 75.6882C110.906 75.8747 108.679 76.2476 106.487 76.7986C105.352 77.1037 104.304 77.5784 103.333 78.2311C102.363 78.8753 101.522 79.6551 100.812 80.5705C100.101 81.4944 99.5642 82.4947 99.1917 83.5881C98.8278 84.6731 98.6458 85.8004 98.6458 86.9447V116.196C98.6458 116.9 98.7845 117.578 99.0617 118.222C99.339 118.866 99.7289 119.443 100.231 119.934C100.743 120.426 101.323 120.808 101.99 121.079C102.649 121.342 103.342 121.477 104.061 121.469H107.067V133.234L79.8791 106.635H85.5369C85.8315 106.635 86.1174 106.584 86.386 106.474C86.6632 106.364 86.8972 106.203 87.1138 105.999C87.3217 105.796 87.4777 105.559 87.5903 105.296C87.7029 105.025 87.7636 104.745 87.7636 104.457C87.7636 104.169 87.7029 103.889 87.5903 103.626C87.4777 103.355 87.3217 103.126 87.1138 102.923C86.8972 102.711 86.6632 102.558 86.386 102.448C86.1174 102.338 85.8315 102.278 85.5369 102.278H74.5333C74.2387 102.278 73.9615 102.338 73.6842 102.448C73.4156 102.558 73.173 102.711 72.9651 102.923C72.7572 103.126 72.5925 103.355 72.4799 103.626C72.3673 103.889 72.3153 104.169 72.3153 104.457V115.222C72.3153 115.51 72.3673 115.79 72.4799 116.052C72.5925 116.324 72.7572 116.552 72.9651 116.756C73.173 116.959 73.4156 117.12 73.6842 117.231C73.9615 117.341 74.2387 117.4 74.5333 117.4C74.8366 117.4 75.1138 117.341 75.3911 117.231C75.6597 117.12 75.9023 116.959 76.1102 116.756C76.3181 116.552 76.4828 116.324 76.5954 116.052C76.708 115.79 76.76 115.51 76.76 115.222V109.754L102.008 134.454C91.6798 136.785 84.8264 140.99 83.3102 146.211H59.241L63.2092 142.337C63.4171 142.134 63.5817 141.897 63.6944 141.625C63.807 141.363 63.8677 141.083 63.8677 140.795C63.8677 140.498 63.807 140.218 63.6944 139.956C63.5817 139.684 63.4171 139.447 63.2092 139.244C62.9926 139.04 62.7586 138.888 62.4814 138.777C62.2128 138.667 61.9269 138.608 61.6323 138.608C61.3377 138.608 61.0605 138.667 60.7832 138.777C60.5146 138.888 60.272 139.04 60.0641 139.244L52.2749 146.932C52.067 147.135 51.911 147.372 51.7984 147.635C51.6858 147.906 51.6251 148.178 51.6251 148.466C51.6251 148.754 51.6858 149.034 51.7984 149.296C51.911 149.568 52.067 149.797 52.2749 150.008L60.0641 157.629C60.272 157.832 60.5146 157.985 60.7832 158.095C61.0605 158.205 61.3377 158.264 61.6323 158.264C61.9269 158.264 62.2128 158.205 62.4814 158.095C62.7586 157.985 62.9926 157.832 63.2092 157.629C63.4171 157.425 63.5817 157.188 63.6944 156.917C63.807 156.654 63.8677 156.374 63.8677 156.086C63.8677 155.789 63.807 155.51 63.6944 155.247C63.5817 154.976 63.4171 154.738 63.2092 154.535L59.2236 150.568H83.3275C84.8697 155.798 91.8618 160.087 101.99 162.375L80.8582 183.049V177.556C80.8582 177.268 80.8062 176.989 80.6936 176.726C80.5809 176.455 80.4163 176.226 80.2084 176.022C80.0004 175.81 79.7578 175.658 79.4892 175.548C79.212 175.437 78.9261 175.378 78.6315 175.378C78.3369 175.378 78.051 175.437 77.7824 175.548C77.5051 175.658 77.2712 175.81 77.0633 176.022C76.8467 176.226 76.6907 176.455 76.5781 176.726C76.4654 176.989 76.4048 177.268 76.4048 177.556V188.321C76.4048 188.61 76.4654 188.889 76.5781 189.152C76.6907 189.423 76.8467 189.652 77.0633 189.856C77.2712 190.067 77.5051 190.22 77.7824 190.33C78.051 190.44 78.3369 190.5 78.6315 190.5H89.635C89.9296 190.5 90.2069 190.44 90.4841 190.33C90.7527 190.22 90.9953 190.067 91.2033 189.856C91.4112 189.652 91.5758 189.423 91.6885 189.152C91.8011 188.889 91.8618 188.61 91.8618 188.321C91.8618 188.033 91.8011 187.753 91.6885 187.482C91.5758 187.219 91.4112 186.982 91.2033 186.779C90.9953 186.575 90.7527 186.414 90.4841 186.304C90.2069 186.194 89.9296 186.143 89.635 186.143H83.9773L107.284 163.333C115.376 164.477 123.469 164.477 131.553 163.333L154.859 186.143H149.21C148.916 186.143 148.63 186.194 148.352 186.304C148.084 186.414 147.841 186.575 147.633 186.779C147.425 186.982 147.261 187.219 147.148 187.482C147.035 187.753 146.984 188.033 146.984 188.321C146.984 188.61 147.035 188.889 147.148 189.152C147.261 189.423 147.425 189.652 147.633 189.856C147.841 190.067 148.084 190.22 148.352 190.33C148.63 190.44 148.916 190.5 149.21 190.5H160.205C160.5 190.5 160.786 190.44 161.054 190.33C161.331 190.22 161.574 190.067 161.782 189.856C161.99 189.652 162.155 189.423 162.267 189.152C162.38 188.889 162.432 188.61 162.432 188.321V177.556C162.432 177.268 162.38 176.989 162.267 176.726C162.155 176.455 161.99 176.226 161.782 176.022C161.574 175.81 161.331 175.658 161.054 175.548C160.786 175.437 160.5 175.378 160.205 175.378C159.911 175.378 159.625 175.437 159.356 175.548C159.079 175.658 158.845 175.81 158.628 176.022C158.42 176.226 158.264 176.455 158.152 176.726C158.039 176.989 157.978 177.268 157.978 177.556V183.049L136.872 162.375C147.001 160.087 153.993 155.84 155.535 150.568H179.622L175.636 154.467C175.428 154.67 175.264 154.908 175.16 155.179C175.047 155.442 174.986 155.721 174.986 156.01C174.986 156.289 175.047 156.569 175.16 156.84C175.264 157.103 175.428 157.34 175.636 157.544C175.844 157.747 176.087 157.9 176.355 158.01C176.624 158.12 176.91 158.171 177.204 158.171C177.499 158.171 177.785 158.12 178.053 158.01C178.322 157.9 178.565 157.747 178.773 157.544L186.57 149.941C187.004 149.508 187.211 149 187.211 148.389C187.194 147.822 186.978 147.338 186.57 146.932ZM104.191 117.205C103.931 117.205 103.706 117.12 103.515 116.942C103.325 116.764 103.238 116.544 103.238 116.29V86.9447C103.229 86.2836 103.325 85.6309 103.532 85.0036C103.74 84.3679 104.044 83.7831 104.451 83.249C104.849 82.7066 105.326 82.2488 105.88 81.8674C106.435 81.4775 107.041 81.1893 107.691 81.0028C109.104 80.6383 110.533 80.3671 111.98 80.1976L117.239 90.8862C117.638 91.7169 118.305 92.1237 119.241 92.1322C120.176 92.1237 120.844 91.7169 121.242 90.8862L126.519 80.1976C127.974 80.3756 129.404 80.6383 130.816 81.0028C131.466 81.1893 132.072 81.4775 132.627 81.8674C133.181 82.2488 133.658 82.7066 134.056 83.249C134.464 83.7831 134.767 84.3679 134.975 85.0036C135.183 85.6309 135.278 86.2836 135.269 86.9447V116.196C135.269 116.451 135.183 116.671 135.001 116.849C134.819 117.027 134.594 117.112 134.334 117.112H131.778V100.558C131.778 100.269 131.717 99.9897 131.605 99.727C131.492 99.4557 131.336 99.2269 131.128 99.0234C130.911 98.8115 130.677 98.659 130.4 98.5488C130.132 98.4386 129.846 98.3792 129.551 98.3792C129.257 98.3792 128.971 98.4386 128.702 98.5488C128.425 98.659 128.182 98.8115 127.974 99.0234C127.766 99.2269 127.61 99.4557 127.489 99.727C127.376 99.9897 127.324 100.269 127.324 100.558V143.448C127.29 143.795 127.194 144.126 127.038 144.439C126.883 144.753 126.675 145.024 126.406 145.262C126.146 145.491 125.851 145.677 125.514 145.804C125.184 145.931 124.838 145.991 124.483 145.991C124.127 145.991 123.781 145.931 123.451 145.804C123.122 145.677 122.828 145.491 122.559 145.262C122.299 145.024 122.091 144.753 121.927 144.439C121.771 144.126 121.675 143.795 121.649 143.448V124.478C121.649 124.19 121.589 123.91 121.476 123.639C121.363 123.376 121.199 123.139 120.991 122.935C120.783 122.732 120.549 122.571 120.272 122.46C120.003 122.35 119.717 122.299 119.423 122.299C119.128 122.299 118.842 122.35 118.565 122.46C118.296 122.571 118.054 122.732 117.846 122.935C117.638 123.139 117.473 123.376 117.361 123.639C117.248 123.91 117.196 124.19 117.196 124.478V143.448C117.161 143.795 117.066 144.126 116.91 144.439C116.754 144.753 116.546 145.024 116.278 145.262C116.018 145.491 115.723 145.677 115.385 145.804C115.056 145.931 114.709 145.991 114.354 145.991C113.999 145.991 113.652 145.931 113.323 145.804C112.994 145.677 112.691 145.491 112.431 145.262C112.171 145.024 111.954 144.753 111.798 144.439C111.642 144.126 111.547 143.795 111.521 143.448V100.558C111.521 100.269 111.46 99.9897 111.348 99.727C111.235 99.4557 111.07 99.2269 110.862 99.0234C110.654 98.8115 110.412 98.659 110.143 98.5488C109.866 98.4386 109.589 98.3792 109.294 98.3792C108.991 98.3792 108.714 98.4386 108.436 98.5488C108.168 98.659 107.925 98.8115 107.717 99.0234C107.509 99.2269 107.345 99.4557 107.232 99.727C107.119 99.9897 107.067 100.269 107.067 100.558V117.112L104.191 117.205ZM119.327 159.917C100.474 159.917 87.339 153.882 87.339 148.483C87.339 144.779 94.1924 140.032 106.972 138.006V143.448C106.981 144.389 107.163 145.296 107.535 146.169C107.908 147.042 108.428 147.813 109.112 148.483C109.797 149.144 110.585 149.661 111.469 150.025C112.361 150.381 113.288 150.568 114.259 150.568C116.234 150.576 117.924 149.907 119.327 148.542C120.74 149.907 122.429 150.576 124.405 150.568C125.384 150.576 126.319 150.407 127.22 150.051C128.122 149.695 128.919 149.178 129.603 148.508C130.296 147.839 130.833 147.067 131.206 146.194C131.587 145.313 131.769 144.397 131.778 143.448V137.938C144.558 139.939 151.437 144.694 151.437 148.389C151.437 153.797 138.276 159.832 119.423 159.832L119.327 159.917Z" fill="black"></path></g></g></g></svg>