<svg xmlns="http://www.w3.org/2000/svg" width="150" height="150" viewBox="0 0 150 150" fill="none"><mask id="mask0_64_64" style="mask-type:luminance" maskUnits="userSpaceOnUse" x="0" y="0" width="150" height="150"><path d="M0 0H149.339V149.339H0V0Z" fill="white"></path></mask><g mask="url(#mask0_64_64)"><mask id="mask1_64_64" style="mask-type:luminance" maskUnits="userSpaceOnUse" x="0" y="0" width="150" height="150"><path d="M74.6667 0C33.4323 0 0 33.4323 0 74.6667C0 115.906 33.4323 149.339 74.6667 149.339C115.906 149.339 149.339 115.906 149.339 74.6667C149.339 33.4323 115.906 0 74.6667 0Z" fill="white"></path></mask><g mask="url(#mask1_64_64)"><path d="M0 0H149.339V149.339H0V0Z" fill="#FFD56A"></path></g></g><g opacity="0.55"><mask id="mask2_64_64" style="mask-type:luminance" maskUnits="userSpaceOnUse" x="42" y="21" width="67" height="96"><path d="M108.667 21H42V117H108.667V21Z" fill="white"></path></mask><g mask="url(#mask2_64_64)"><mask id="mask3_64_64" style="mask-type:luminance" maskUnits="userSpaceOnUse" x="76" y="21" width="22" height="27"><path d="M76.6667 21.9792H98V47.6667H76.6667V21.9792Z" fill="white"></path></mask><g mask="url(#mask3_64_64)"><path d="M81.0938 40.2969L85.7813 42.6823L92.8802 28.9375L88.1927 26.5469L81.0938 40.2969ZM86.5938 47.0625C86.2969 47.0625 86.0052 46.9948 85.7344 46.8594L77.7032 42.7657C76.7761 42.2969 76.4167 41.1719 76.8854 40.2552L85.7032 23.1823C85.9323 22.7448 86.3282 22.4115 86.8021 22.2552C87.2761 22.1042 87.7917 22.1459 88.2344 22.375L96.2709 26.4636C97.1927 26.9375 97.5573 28.0573 97.0834 28.974L88.2709 46.0469C88.0417 46.4896 87.6459 46.823 87.1719 46.974C86.9844 47.0365 86.7917 47.0625 86.5938 47.0625Z" fill="black"></path></g><path d="M63.4479 74.4844L68.1302 76.8646L70.375 72.5208L65.6875 70.1354L63.4479 74.4844ZM68.9479 81.2448C68.6511 81.2448 68.3542 81.1771 68.0886 81.0365L60.0573 76.9531C59.6146 76.7292 59.2761 76.3385 59.125 75.8646C58.9688 75.3958 59.0104 74.8854 59.2396 74.4427L63.1979 66.776C63.6719 65.8594 64.8073 65.4948 65.7292 65.9635L73.7604 70.0469C74.6875 70.5156 75.0521 71.6406 74.5782 72.5573L70.6198 80.2292C70.3907 80.6719 70 81 69.5261 81.1562C69.3334 81.2135 69.1407 81.2448 68.9479 81.2448Z" fill="black"></path><path d="M64.6511 65.4115L74.849 70.6042L86.8178 47.4063L76.6251 42.224L64.6511 65.4115ZM75.6667 74.9844C75.3699 74.9844 75.073 74.9115 74.8074 74.7761L61.2657 67.8802C60.3386 67.4115 59.974 66.2865 60.448 65.3698L74.1303 38.8646C74.6042 37.9479 75.7397 37.5833 76.6615 38.0521L90.2032 44.9271C90.6511 45.1511 90.9844 45.5469 91.1407 46.0156C91.2917 46.4896 91.2501 47 91.0209 47.4427L77.3386 73.9688C77.1094 74.4115 76.7188 74.7396 76.2397 74.8959C76.0521 74.9531 75.8594 74.9844 75.6667 74.9844Z" fill="black"></path><mask id="mask4_64_64" style="mask-type:luminance" maskUnits="userSpaceOnUse" x="43" y="47" width="66" height="69"><path d="M43.3802 47.6667H108.094V115.563H43.3802V47.6667Z" fill="white"></path></mask><g mask="url(#mask4_64_64)"><path d="M47.3177 111.74H104.156C103.276 107.25 99.2813 103.854 94.5052 103.854H91.125C90.3125 103.854 89.5938 103.333 89.3385 102.568C89.0885 101.802 89.3594 100.958 90.0156 100.479C97.5156 95.0417 101.99 86.3073 101.99 77.1198C101.99 67.1251 96.8125 57.9011 88.3594 52.6042L85.9844 57.2136C92.7708 62.0626 97.0781 69.7084 97.0781 77.1198C97.0781 85.4271 92.8229 93.0417 85.6979 97.5001C85.3958 97.6876 85.0469 97.7865 84.6927 97.7865C83.8646 97.7865 83.099 98.099 82.5312 98.6719C81.9323 99.2605 81.6146 100.016 81.6146 100.839C81.6146 102.5 80.2552 103.854 78.5781 103.854H56.9687C52.1875 103.854 48.1979 107.25 47.3177 111.74ZM106.214 115.474H45.2552C44.2187 115.474 43.375 114.641 43.375 113.609C43.375 106.172 49.474 100.12 56.9687 100.12H77.8906C78.0521 98.5626 78.7448 97.1355 79.875 96.0313C80.9948 94.9011 82.4844 94.2136 84.099 94.0782C89.8802 90.2813 93.3177 83.9792 93.3177 77.1198C93.3177 69.5365 87.9115 62.7605 82.5521 59.4167C81.7292 58.9011 81.4375 57.849 81.8802 56.9896L85.9167 49.1459C86.1458 48.698 86.5521 48.3646 87.0312 48.2136C87.5156 48.0626 88.0417 48.1146 88.4896 48.3542C99.1354 54.0938 105.75 65.1146 105.75 77.1198C105.75 85.8073 102.208 94.1303 96.0938 100.214C102.844 100.995 108.099 106.703 108.099 113.609C108.099 114.641 107.255 115.474 106.214 115.474Z" fill="black"></path></g><mask id="mask5_64_64" style="mask-type:luminance" maskUnits="userSpaceOnUse" x="43" y="86" width="38" height="19"><path d="M43.3802 86.3334H80.6667V105H43.3802V86.3334Z" fill="white"></path></mask><g mask="url(#mask5_64_64)"><path d="M78.5782 103.854C78.3334 103.854 78.0834 103.807 77.8438 103.703L45.6146 90.0782C44.6615 89.6719 44.2136 88.5782 44.6251 87.6303C45.0313 86.6823 46.1355 86.2396 47.0886 86.6459L79.3178 100.271C80.2709 100.677 80.7188 101.771 80.3126 102.719C80.0053 103.427 79.3126 103.854 78.5782 103.854Z" fill="black"></path></g></g></g></svg>