<svg xmlns="http://www.w3.org/2000/svg" width="27" height="26" viewBox="0 0 27 26" fill="none"><path fill-rule="evenodd" clip-rule="evenodd" d="M8.4375 1.08333C9.05882 1.08333 9.5625 1.56835 9.5625 2.16666V3.24999H17.4375V2.16666C17.4375 1.56835 17.9412 1.08333 18.5625 1.08333C19.1838 1.08333 19.6875 1.56835 19.6875 2.16666V3.27674C22.53 3.54851 24.75 5.85793 24.75 8.66666V18.4167C24.75 21.4082 22.2316 23.8333 19.125 23.8333H7.875C4.7684 23.8333 2.25 21.4082 2.25 18.4167V8.66666C2.25 5.85793 4.47001 3.54851 7.3125 3.27674V2.16666C7.3125 1.56835 7.81618 1.08333 8.4375 1.08333ZM4.69204 7.58333H22.308C21.8446 6.32104 20.5945 5.41666 19.125 5.41666H7.875C6.4055 5.41666 5.15536 6.32104 4.69204 7.58333ZM22.5 9.75H4.5V18.4167C4.5 20.2116 6.01104 21.6667 7.875 21.6667H19.125C20.989 21.6667 22.5 20.2116 22.5 18.4167V9.75Z" fill="black"></path><line x1="9.3" y1="15.6" x2="13.3" y2="18.6" stroke="black"></line><line x1="12.6159" y1="18.6799" x2="17.6159" y2="12.6799" stroke="black"></line></svg>