<svg xmlns="http://www.w3.org/2000/svg" width="180" height="180" viewBox="0 0 180 180" fill="none"><mask id="mask0_64_61" style="mask-type:luminance" maskUnits="userSpaceOnUse" x="0" y="0" width="180" height="180"><path d="M180 0H0V180H180V0Z" fill="black" fill-opacity="0.62"></path></mask><g mask="url(#mask0_64_61)"><mask id="mask1_64_61" style="mask-type:luminance" maskUnits="userSpaceOnUse" x="39" y="48" width="103" height="83"><path d="M141.667 48.3333H39V131H141.667V48.3333Z" fill="white"></path></mask><g mask="url(#mask1_64_61)"><mask id="mask2_64_61" style="mask-type:luminance" maskUnits="userSpaceOnUse" x="39" y="49" width="101" height="82"><path d="M39.2916 49.4948H139.849V130.135H39.2916V49.4948Z" fill="white"></path></mask><g mask="url(#mask2_64_61)"><path fill-rule="evenodd" clip-rule="evenodd" d="M108.213 85.9375C108.213 86.4583 107.766 86.9115 107.26 86.9115H71.8437C71.3385 86.9115 70.8906 86.4583 70.8906 85.9375V80.4636C70.8906 79.9375 71.3385 79.4948 71.8437 79.4948H85.1822L81.5937 82.3125C80.9218 82.8386 80.8072 83.7865 81.3124 84.4583C81.8281 85.0938 82.8541 85.2083 83.4999 84.7031L89.552 79.9011L95.6614 84.7031C96.3072 85.2083 97.2552 85.1146 97.7916 84.4583C98.2968 83.7865 98.1822 82.8386 97.5104 82.3125L93.9218 79.4948H107.26C107.766 79.4948 108.213 79.9375 108.213 80.4636V85.9375ZM103.338 109.031C103.338 109.88 102.667 110.573 101.823 110.573H94.3697V89.9479H103.338V109.031ZM91.3437 89.9479V110.573H87.7604V89.9479H91.3437ZM75.7656 109.031V89.9479H84.7291V110.573H77.276C76.4374 110.573 75.7656 109.88 75.7656 109.031ZM79.0156 68.1667C79.0156 67.849 79.4687 67.3802 79.802 67.3802C80.9218 67.4167 82.0416 68.0677 83.552 69.6667C85.2916 71.4896 86.4114 73.724 86.9166 74.8958C87.0833 75.1615 87.1406 75.4219 87.3072 75.6823C87.0312 75.5625 86.7499 75.4636 86.526 75.3386C85.3489 74.8125 83.1041 73.6615 81.3124 71.9167C79.6874 70.4011 79.0729 69.3073 79.0156 68.1667ZM92.1874 74.8958C92.6874 73.724 93.8645 71.4896 95.6041 69.6667C97.1197 68.0677 98.1822 67.4167 99.302 67.3802C99.6718 67.3698 100.094 67.8802 100.088 68.1667C100.031 69.3073 99.4166 70.4011 97.8437 71.9167C95.9947 73.6615 93.8124 74.8125 92.6354 75.3386C92.3541 75.4636 92.0729 75.5625 91.8489 75.6823C91.9635 75.4219 92.0729 75.1615 92.1874 74.8958ZM107.26 76.4583H96.8958C99.5468 74.7969 103.073 71.7292 103.115 68.2292C103.141 66.0677 101.281 64.3177 99.2447 64.3386C94.677 64.3958 91.0312 70.2552 89.552 73.3333C88.8802 71.9375 87.6458 69.5625 85.7395 67.5625C84.2291 66.0052 82.3802 64.4011 79.8541 64.3386C78.901 64.3386 77.8958 64.7448 77.1666 65.4948C76.3802 66.224 75.9895 67.2396 76.0468 68.2292C76.0468 70.7448 77.6718 72.625 79.1822 74.125C80.1927 75.0365 81.2031 75.8281 82.2083 76.4583H71.8437C69.6562 76.4583 67.8645 78.2604 67.8645 80.4636V85.9375C67.8645 88.1458 69.6562 89.9479 71.8437 89.9479H72.7395V109.031C72.7395 111.557 74.8124 113.609 77.276 113.609H101.823C104.349 113.609 106.365 111.557 106.365 109.031V89.9479H107.26C109.448 89.9479 111.24 88.1458 111.24 85.9375V80.4636C111.24 78.2604 109.448 76.4583 107.26 76.4583ZM121.667 100.276C123.833 93.5469 123.833 86.0781 121.667 79.3542H135.057L128.557 88.974C128.224 89.4792 128.224 90.1667 128.557 90.6771L135.057 100.276H121.667ZM89.552 127.104C105.021 127.104 118.641 117.62 124.13 103.313H120.542C115.333 115.328 103.396 123.76 89.552 123.76C75.7083 123.76 63.7708 115.328 58.6145 103.313H54.9739C60.4635 117.62 74.1406 127.104 89.552 127.104ZM50.5989 90.6771C50.9374 90.1667 50.9374 89.4792 50.5989 88.974L44.0416 79.3542H57.4374C55.2708 86.0781 55.2656 93.5469 57.4374 100.276H44.0416L50.5989 90.6771ZM89.552 120.719C106.474 120.719 120.266 106.859 120.266 89.8229C120.266 72.7865 106.474 58.9063 89.552 58.9063C72.6249 58.9063 58.8385 72.7865 58.8385 89.8229C58.8385 106.859 72.6249 120.719 89.552 120.719ZM89.552 52.5313C74.1406 52.5313 60.4635 62.0052 54.9739 76.3125H58.6145C63.7708 64.3021 75.7083 55.8698 89.552 55.8698C103.396 55.8698 115.333 64.3021 120.542 76.3125H124.13C118.641 62.0052 105.021 52.5313 89.552 52.5313ZM131.641 89.8229L139.151 78.6823C139.833 77.7083 139.161 76.3125 137.917 76.3125H127.38C121.698 60.2604 106.547 49.4896 89.552 49.4896C72.5364 49.4896 57.4791 60.2083 51.776 76.3125H41.1874C39.9583 76.3125 39.2968 77.724 39.9583 78.6823L47.5208 89.8229L39.9583 100.948C39.2916 101.917 39.9583 103.313 41.1874 103.313H51.776C57.4791 119.422 72.5156 130.141 89.552 130.141C106.562 130.141 121.703 119.37 127.38 103.313H137.917C139.172 103.313 139.828 101.922 139.151 100.948L131.641 89.8229Z" fill="#242222"></path></g></g></g></svg>