<svg xmlns="http://www.w3.org/2000/svg" width="180" height="180" viewBox="0 0 180 180" fill="none"><mask id="mask0_64_63" style="mask-type:luminance" maskUnits="userSpaceOnUse" x="15" y="15" width="150" height="150"><path d="M15 15H164.339V164.339H15V15Z" fill="white"></path></mask><g mask="url(#mask0_64_63)"><mask id="mask1_64_63" style="mask-type:luminance" maskUnits="userSpaceOnUse" x="15" y="15" width="150" height="150"><path d="M89.6667 15C48.4323 15 15 48.4323 15 89.6667C15 130.906 48.4323 164.339 89.6667 164.339C130.906 164.339 164.339 130.906 164.339 89.6667C164.339 48.4323 130.906 15 89.6667 15Z" fill="white"></path></mask><g mask="url(#mask1_64_63)"><path d="M15 15H164.339V164.339H15V15Z" fill="#FFD56A"></path></g></g><mask id="mask2_64_63" style="mask-type:luminance" maskUnits="userSpaceOnUse" x="0" y="0" width="180" height="180"><path d="M180 0H0V180H180V0Z" fill="black" fill-opacity="0.6"></path></mask><g mask="url(#mask2_64_63)"><mask id="mask3_64_63" style="mask-type:luminance" maskUnits="userSpaceOnUse" x="48" y="41" width="83" height="92"><path d="M131 41.6667H48.3333V132.333H131V41.6667Z" fill="white"></path></mask><g mask="url(#mask3_64_63)"><path d="M89.7761 58.7865C90.2917 58.7865 90.8021 58.7396 91.3073 58.6354C91.8125 58.5365 92.3021 58.3854 92.7813 58.1875C93.2552 57.9948 93.7084 57.75 94.1406 57.4636C94.5677 57.1771 94.9636 56.849 95.3281 56.4844C95.6927 56.1198 96.0209 55.724 96.3073 55.2969C96.5938 54.8698 96.8334 54.4167 97.0313 53.9375C97.2292 53.4636 97.3802 52.9688 97.4792 52.4636C97.5781 51.9584 97.6302 51.4479 97.6302 50.9323C97.6302 50.4167 97.5781 49.9063 97.4792 49.4011C97.3802 48.8906 97.2292 48.4011 97.0313 47.9271C96.8334 47.4479 96.5938 46.9948 96.3073 46.5677C96.0209 46.1354 95.6927 45.7396 95.3281 45.375C94.9636 45.0104 94.5677 44.6875 94.1406 44.4011C93.7084 44.1146 93.2552 43.8698 92.7813 43.6719C92.3021 43.474 91.8125 43.3281 91.3073 43.224C90.8021 43.125 90.2917 43.0729 89.7761 43.0729C89.2604 43.0729 88.75 43.125 88.2396 43.224C87.7344 43.3281 87.2448 43.474 86.7656 43.6719C86.2917 43.8698 85.8386 44.1146 85.4115 44.4011C84.9792 44.6875 84.5834 45.0104 84.2188 45.375C83.8542 45.7396 83.5313 46.1354 83.2448 46.5677C82.9584 46.9948 82.7136 47.4479 82.5156 47.9271C82.3177 48.4011 82.1719 48.8906 82.0677 49.4011C81.9688 49.9063 81.9167 50.4167 81.9167 50.9323C81.9167 51.4479 81.9688 51.9584 82.0677 52.4636C82.1719 52.9688 82.3177 53.4636 82.5156 53.9375C82.7136 54.4167 82.9584 54.8698 83.2448 55.2969C83.5313 55.724 83.8542 56.1198 84.2188 56.4844C84.5834 56.849 84.9792 57.1771 85.4115 57.4636C85.8386 57.75 86.2917 57.9948 86.7656 58.1875C87.2448 58.3854 87.7344 58.5365 88.2396 58.6354C88.75 58.7396 89.2604 58.7865 89.7761 58.7865ZM89.7761 45.75C90.4636 45.75 91.1198 45.8854 91.7552 46.1459C92.3906 46.4115 92.9531 46.7813 93.4375 47.2709C93.9219 47.7552 94.2969 48.3125 94.5573 48.9479C94.8229 49.5834 94.9531 50.2448 94.9531 50.9323C94.9531 51.6198 94.8229 52.2813 94.5573 52.9115C94.2969 53.5469 93.9219 54.1094 93.4375 54.5938C92.9531 55.0781 92.3906 55.4531 91.7552 55.7188C91.1198 55.9792 90.4636 56.1094 89.7761 56.1094C89.0886 56.1094 88.4271 55.9792 87.7917 55.7188C87.1563 55.4531 86.599 55.0781 86.1146 54.5938C85.625 54.1094 85.25 53.5469 84.9896 52.9115C84.7292 52.2813 84.5938 51.6198 84.5938 50.9323C84.5938 50.2448 84.7292 49.5834 84.9896 48.9479C85.25 48.3125 85.625 47.7552 86.1146 47.2709C86.599 46.7813 87.1563 46.4115 87.7917 46.1459C88.4271 45.8854 89.0886 45.75 89.7761 45.75Z" fill="black"></path><mask id="mask4_64_63" style="mask-type:luminance" maskUnits="userSpaceOnUse" x="48" y="60" width="83" height="72"><path d="M48.8906 60.3334H130.526V131.708H48.8906V60.3334Z" fill="white"></path></mask><g mask="url(#mask4_64_63)"><path d="M130.141 104.641L125.453 99.9688C125.333 99.8282 125.187 99.7188 125.021 99.6355C124.854 99.5574 124.677 99.5105 124.49 99.5053C124.302 99.4949 124.125 99.5261 123.948 99.5938C123.776 99.6615 123.625 99.7657 123.49 99.8959C123.359 100.026 123.26 100.177 123.193 100.354C123.125 100.526 123.094 100.708 123.099 100.891C123.109 101.078 123.151 101.255 123.234 101.422C123.312 101.594 123.427 101.734 123.568 101.859L125.964 104.255H111.495C110.583 101.083 106.448 98.4584 100.24 97.0261L115.432 81.7969V85.1563C115.432 85.3334 115.464 85.5053 115.531 85.6667C115.599 85.8334 115.698 85.974 115.823 86.099C115.948 86.224 116.094 86.323 116.255 86.3907C116.422 86.4584 116.589 86.4949 116.771 86.4949C116.948 86.4949 117.115 86.4584 117.281 86.3907C117.443 86.323 117.589 86.224 117.714 86.099C117.839 85.974 117.937 85.8334 118.005 85.6667C118.073 85.5053 118.104 85.3334 118.104 85.1563V78.5417C118.104 78.3647 118.073 78.1928 118.005 78.0313C117.937 77.8647 117.839 77.724 117.714 77.599C117.589 77.4688 117.443 77.3751 117.281 77.3074C117.115 77.2397 116.948 77.2032 116.771 77.2032H110.146C109.969 77.2032 109.797 77.2397 109.63 77.3074C109.469 77.3751 109.323 77.4688 109.198 77.599C109.073 77.724 108.974 77.8647 108.906 78.0313C108.839 78.1928 108.807 78.3647 108.807 78.5417C108.807 78.7188 108.839 78.8907 108.906 79.0574C108.974 79.2188 109.073 79.3647 109.198 79.4897C109.323 79.6147 109.469 79.7136 109.63 79.7813C109.797 79.849 109.969 79.8803 110.146 79.8803H113.542L97.2031 96.224V88.9949H98.8906C99.3177 88.9949 99.7291 88.9115 100.13 88.7501C100.526 88.5834 100.875 88.349 101.177 88.0469C101.484 87.7449 101.719 87.3907 101.88 86.9949C102.047 86.599 102.125 86.1876 102.125 85.7553V67.7813C102.13 67.0782 102.026 66.3907 101.802 65.7188C101.583 65.0469 101.26 64.4324 100.833 63.8699C100.411 63.3022 99.9062 62.823 99.3229 62.4272C98.7396 62.0261 98.1094 61.7344 97.4323 61.5469C96.1094 61.2084 94.7708 60.9792 93.4166 60.8647C93.1354 60.8334 92.875 60.8907 92.625 61.0261C92.3802 61.1615 92.1979 61.3594 92.0781 61.6094L89.7083 66.5365L87.3541 61.6094C87.2291 61.3594 87.0469 61.1615 86.8021 61.0261C86.5573 60.8907 86.2916 60.8334 86.0156 60.8647C84.6562 60.9792 83.3177 61.2084 82 61.5469C81.3177 61.7344 80.6875 62.0261 80.1041 62.4272C79.5208 62.823 79.0156 63.3022 78.5885 63.8647C78.1614 64.4324 77.8385 65.0469 77.6146 65.7188C77.3958 66.3855 77.2864 67.0782 77.2864 67.7813V85.7553C77.2864 86.1876 77.3698 86.6042 77.5364 87.0001C77.7031 87.3959 77.9375 87.7501 78.2396 88.0522C78.5469 88.3542 78.8958 88.5886 79.2969 88.7553C79.6927 88.9167 80.1094 89.0001 80.5416 88.9949H82.3489V96.224L66.0052 79.8803H69.4062C69.5833 79.8803 69.7552 79.849 69.9166 79.7813C70.0833 79.7136 70.2239 79.6147 70.3541 79.4897C70.4791 79.3647 70.5729 79.2188 70.6406 79.0574C70.7083 78.8907 70.7448 78.7188 70.7448 78.5417C70.7448 78.3647 70.7083 78.1928 70.6406 78.0313C70.5729 77.8647 70.4791 77.724 70.3541 77.599C70.2239 77.4688 70.0833 77.3751 69.9166 77.3074C69.7552 77.2397 69.5833 77.2032 69.4062 77.2032H62.7916C62.6146 77.2032 62.4479 77.2397 62.2812 77.3074C62.1198 77.3751 61.9739 77.4688 61.8489 77.599C61.7239 77.724 61.625 77.8647 61.5573 78.0313C61.4896 78.1928 61.4583 78.3647 61.4583 78.5417V85.1563C61.4583 85.3334 61.4896 85.5053 61.5573 85.6667C61.625 85.8334 61.7239 85.974 61.8489 86.099C61.9739 86.224 62.1198 86.323 62.2812 86.3907C62.4479 86.4584 62.6146 86.4949 62.7916 86.4949C62.9739 86.4949 63.1406 86.4584 63.3073 86.3907C63.4687 86.323 63.6146 86.224 63.7396 86.099C63.8646 85.974 63.9635 85.8334 64.0312 85.6667C64.0989 85.5053 64.1302 85.3334 64.1302 85.1563V81.7969L79.3073 96.974C73.0989 98.4063 68.9791 100.99 68.0677 104.198H53.5989L55.9844 101.818C56.1094 101.693 56.2083 101.547 56.276 101.38C56.3437 101.219 56.3802 101.047 56.3802 100.87C56.3802 100.688 56.3437 100.516 56.276 100.354C56.2083 100.188 56.1094 100.042 55.9844 99.9167C55.8541 99.7917 55.7135 99.698 55.5469 99.6303C55.3854 99.5626 55.2135 99.5261 55.0364 99.5261C54.8594 99.5261 54.6927 99.5626 54.526 99.6303C54.3646 99.698 54.2187 99.7917 54.0937 99.9167L49.4114 104.641C49.2864 104.766 49.1927 104.912 49.125 105.073C49.0573 105.24 49.0208 105.406 49.0208 105.583C49.0208 105.76 49.0573 105.932 49.125 106.094C49.1927 106.26 49.2864 106.401 49.4114 106.531L54.0937 111.214C54.2187 111.339 54.3646 111.432 54.526 111.5C54.6927 111.568 54.8594 111.604 55.0364 111.604C55.2135 111.604 55.3854 111.568 55.5469 111.5C55.7135 111.432 55.8541 111.339 55.9844 111.214C56.1094 111.089 56.2083 110.943 56.276 110.776C56.3437 110.615 56.3802 110.443 56.3802 110.266C56.3802 110.083 56.3437 109.912 56.276 109.75C56.2083 109.583 56.1094 109.438 55.9844 109.313L53.5885 106.875H68.0781C69.0052 110.089 73.2083 112.724 79.2969 114.13L66.5937 126.833V123.458C66.5937 123.281 66.5625 123.109 66.4948 122.948C66.4271 122.781 66.3281 122.641 66.2031 122.516C66.0781 122.385 65.9323 122.292 65.7708 122.224C65.6041 122.156 65.4323 122.12 65.2552 122.12C65.0781 122.12 64.9062 122.156 64.7448 122.224C64.5781 122.292 64.4375 122.385 64.3125 122.516C64.1823 122.641 64.0885 122.781 64.0208 122.948C63.9531 123.109 63.9166 123.281 63.9166 123.458V130.073C63.9166 130.25 63.9531 130.422 64.0208 130.583C64.0885 130.75 64.1823 130.891 64.3125 131.016C64.4375 131.146 64.5781 131.24 64.7448 131.307C64.9062 131.375 65.0781 131.412 65.2552 131.412H71.8698C72.0469 131.412 72.2135 131.375 72.3802 131.307C72.5416 131.24 72.6875 131.146 72.8125 131.016C72.9375 130.891 73.0364 130.75 73.1041 130.583C73.1719 130.422 73.2083 130.25 73.2083 130.073C73.2083 129.896 73.1719 129.724 73.1041 129.557C73.0364 129.396 72.9375 129.25 72.8125 129.125C72.6875 129 72.5416 128.901 72.3802 128.833C72.2135 128.766 72.0469 128.734 71.8698 128.734H68.4687L82.4791 114.719C87.3437 115.422 92.2083 115.422 97.0677 114.719L111.078 128.734H107.682C107.505 128.734 107.333 128.766 107.167 128.833C107.005 128.901 106.859 129 106.734 129.125C106.609 129.25 106.51 129.396 106.443 129.557C106.375 129.724 106.344 129.896 106.344 130.073C106.344 130.25 106.375 130.422 106.443 130.583C106.51 130.75 106.609 130.891 106.734 131.016C106.859 131.146 107.005 131.24 107.167 131.307C107.333 131.375 107.505 131.412 107.682 131.412H114.292C114.469 131.412 114.641 131.375 114.802 131.307C114.969 131.24 115.115 131.146 115.24 131.016C115.365 130.891 115.464 130.75 115.531 130.583C115.599 130.422 115.63 130.25 115.63 130.073V123.458C115.63 123.281 115.599 123.109 115.531 122.948C115.464 122.781 115.365 122.641 115.24 122.516C115.115 122.385 114.969 122.292 114.802 122.224C114.641 122.156 114.469 122.12 114.292 122.12C114.115 122.12 113.943 122.156 113.781 122.224C113.615 122.292 113.474 122.385 113.344 122.516C113.219 122.641 113.125 122.781 113.057 122.948C112.99 123.109 112.953 123.281 112.953 123.458V126.833L100.266 114.13C106.354 112.724 110.557 110.115 111.484 106.875H125.964L123.568 109.271C123.443 109.396 123.344 109.542 123.281 109.708C123.214 109.87 123.177 110.042 123.177 110.219C123.177 110.391 123.214 110.563 123.281 110.729C123.344 110.891 123.443 111.037 123.568 111.162C123.693 111.287 123.839 111.38 124 111.448C124.161 111.516 124.333 111.547 124.51 111.547C124.687 111.547 124.859 111.516 125.021 111.448C125.182 111.38 125.328 111.287 125.453 111.162L130.141 106.49C130.401 106.224 130.526 105.912 130.526 105.537C130.516 105.188 130.385 104.891 130.141 104.641ZM80.6198 86.3751C80.4635 86.3751 80.3281 86.323 80.2135 86.2136C80.0989 86.1042 80.0469 85.9688 80.0469 85.8126V67.7813C80.0416 67.3751 80.0989 66.974 80.2239 66.5886C80.3489 66.198 80.5312 65.8386 80.776 65.5105C81.0156 65.1772 81.3021 64.8959 81.6354 64.6615C81.9687 64.4219 82.3333 64.2449 82.7239 64.1303C83.5729 63.9063 84.4323 63.7397 85.3021 63.6355L88.4635 70.2032C88.7031 70.7136 89.1041 70.9636 89.6666 70.9688C90.2291 70.9636 90.6302 70.7136 90.8698 70.2032L94.0416 63.6355C94.9166 63.7449 95.776 63.9063 96.625 64.1303C97.0156 64.2449 97.3802 64.4219 97.7135 64.6615C98.0469 64.8959 98.3333 65.1772 98.5729 65.5105C98.8177 65.8386 99 66.198 99.125 66.5886C99.25 66.974 99.3073 67.3751 99.3021 67.7813V85.7553C99.3021 85.9115 99.25 86.0469 99.1406 86.1563C99.0312 86.2657 98.8958 86.3178 98.7396 86.3178H97.2031V76.1459C97.2031 75.9688 97.1666 75.7969 97.0989 75.6355C97.0312 75.4688 96.9375 75.3282 96.8125 75.2032C96.6823 75.073 96.5416 74.9792 96.375 74.9115C96.2135 74.8438 96.0416 74.8074 95.8646 74.8074C95.6875 74.8074 95.5156 74.8438 95.3541 74.9115C95.1875 74.9792 95.0416 75.073 94.9166 75.2032C94.7916 75.3282 94.6979 75.4688 94.625 75.6355C94.5573 75.7969 94.526 75.9688 94.526 76.1459V102.5C94.5052 102.714 94.4479 102.917 94.3541 103.109C94.2604 103.302 94.1354 103.469 93.9739 103.615C93.8177 103.755 93.6406 103.87 93.4375 103.948C93.2396 104.026 93.0312 104.063 92.8177 104.063C92.6041 104.063 92.3958 104.026 92.1979 103.948C92 103.87 91.8229 103.755 91.6614 103.615C91.5052 103.469 91.3802 103.302 91.2812 103.109C91.1875 102.917 91.1302 102.714 91.1146 102.5V90.8438C91.1146 90.6667 91.0781 90.4949 91.0104 90.3282C90.9427 90.1667 90.8437 90.0209 90.7187 89.8959C90.5937 89.7709 90.4531 89.6719 90.2864 89.6042C90.125 89.5365 89.9531 89.5053 89.776 89.5053C89.5989 89.5053 89.4271 89.5365 89.2604 89.6042C89.0989 89.6719 88.9531 89.7709 88.8281 89.8959C88.7031 90.0209 88.6041 90.1667 88.5364 90.3282C88.4687 90.4949 88.4375 90.6667 88.4375 90.8438V102.5C88.4166 102.714 88.3594 102.917 88.2656 103.109C88.1719 103.302 88.0469 103.469 87.8854 103.615C87.7291 103.755 87.5521 103.87 87.3489 103.948C87.151 104.026 86.9427 104.063 86.7291 104.063C86.5156 104.063 86.3073 104.026 86.1094 103.948C85.9114 103.87 85.7291 103.755 85.5729 103.615C85.4166 103.469 85.2864 103.302 85.1927 103.109C85.0989 102.917 85.0416 102.714 85.026 102.5V76.1459C85.026 75.9688 84.9896 75.7969 84.9219 75.6355C84.8541 75.4688 84.7552 75.3282 84.6302 75.2032C84.5052 75.073 84.3594 74.9792 84.1979 74.9115C84.0312 74.8438 83.8646 74.8074 83.6875 74.8074C83.5052 74.8074 83.3385 74.8438 83.1719 74.9115C83.0104 74.9792 82.8646 75.073 82.7396 75.2032C82.6146 75.3282 82.5156 75.4688 82.4479 75.6355C82.3802 75.7969 82.3489 75.9688 82.3489 76.1459V86.3178L80.6198 86.3751ZM89.7187 112.62C78.3854 112.62 70.4896 108.912 70.4896 105.594C70.4896 103.318 74.6094 100.401 82.2916 99.1563V102.5C82.2969 103.078 82.4062 103.635 82.6302 104.172C82.8541 104.708 83.1666 105.182 83.5781 105.594C83.9896 106 84.4635 106.318 84.9948 106.542C85.5312 106.76 86.0885 106.875 86.6719 106.875C87.8594 106.88 88.875 106.469 89.7187 105.63C90.5677 106.469 91.5833 106.88 92.7708 106.875C93.3594 106.88 93.9219 106.776 94.4635 106.557C95.0052 106.339 95.4844 106.021 95.8958 105.609C96.3125 105.198 96.6354 104.724 96.8594 104.188C97.0885 103.646 97.1979 103.083 97.2031 102.5V99.1147C104.885 100.344 109.021 103.266 109.021 105.537C109.021 108.859 101.109 112.568 89.776 112.568L89.7187 112.62Z" fill="black"></path></g></g></g></svg>