<svg xmlns="http://www.w3.org/2000/svg" width="200" height="200" viewBox="0 0 200 200" fill="none"><mask id="mask0_69_68" style="mask-type:luminance" maskUnits="userSpaceOnUse" x="0" y="0" width="200" height="200"><path d="M0 0H200V200H0V0Z" fill="white"></path></mask><g mask="url(#mask0_69_68)"><mask id="mask1_69_68" style="mask-type:luminance" maskUnits="userSpaceOnUse" x="0" y="0" width="200" height="200"><path d="M99.9965 0C44.7738 0 0 44.7738 0 99.9965C0 155.226 44.7738 200 99.9965 200C155.226 200 200 155.226 200 99.9965C200 44.7738 155.226 0 99.9965 0Z" fill="white"></path></mask><g mask="url(#mask1_69_68)"><path d="M0 0H200V200H0V0Z" fill="#FFD56A"></path></g><g opacity="0.55"><mask id="mask2_69_68" style="mask-type:luminance" maskUnits="userSpaceOnUse" x="24" y="17" width="151" height="166"><path d="M174.255 17.8125H24.8936V182.396H174.255V17.8125Z" fill="white"></path></mask><g mask="url(#mask2_69_68)"><path d="M99.772 48.8893C100.704 48.8893 101.626 48.8042 102.539 48.6151C103.451 48.4355 104.336 48.1613 105.202 47.802C106.058 47.4522 106.877 47.0079 107.658 46.4879C108.43 45.9679 109.145 45.3722 109.803 44.7104C110.462 44.0486 111.055 43.3301 111.573 42.5548C112.09 41.7795 112.523 40.957 112.881 40.0872C113.238 39.2268 113.511 38.3287 113.69 37.4116C113.869 36.4945 113.963 35.568 113.963 34.632C113.963 33.696 113.869 32.7694 113.69 31.8523C113.511 30.9258 113.238 30.0371 112.881 29.1767C112.523 28.3069 112.09 27.4844 111.573 26.7091C111.055 25.9244 110.462 25.2059 109.803 24.544C109.145 23.8822 108.43 23.2961 107.658 22.7761C106.877 22.2561 106.058 21.8117 105.202 21.4524C104.336 21.0932 103.451 20.8284 102.539 20.6394C101.626 20.4597 100.704 20.3652 99.772 20.3652C98.8404 20.3652 97.9181 20.4597 96.9959 20.6394C96.0831 20.8284 95.1985 21.0932 94.3328 21.4524C93.4764 21.8117 92.6577 22.2561 91.8861 22.7761C91.105 23.2961 90.3898 23.8822 89.7311 24.544C89.0724 25.2059 88.4889 25.9244 87.9714 26.7091C87.4538 27.4844 87.0115 28.3069 86.6539 29.1767C86.2963 30.0371 86.0328 30.9258 85.8446 31.8523C85.6658 32.7694 85.5717 33.696 85.5717 34.632C85.5717 35.568 85.6658 36.4945 85.8446 37.4116C86.0328 38.3287 86.2963 39.2268 86.6539 40.0872C87.0115 40.957 87.4538 41.7795 87.9714 42.5548C88.4889 43.3301 89.0724 44.0486 89.7311 44.7104C90.3898 45.3722 91.105 45.9679 91.8861 46.4879C92.6577 47.0079 93.4764 47.4522 94.3328 47.802C95.1985 48.1613 96.0831 48.4355 96.9959 48.6151C97.9181 48.8042 98.8404 48.8893 99.772 48.8893ZM99.772 25.2248C101.014 25.2248 102.2 25.4706 103.348 25.9433C104.496 26.4255 105.512 27.0968 106.388 27.9855C107.263 28.8647 107.94 29.8764 108.411 31.0298C108.891 32.1833 109.126 33.384 109.126 34.632C109.126 35.8799 108.891 37.0807 108.411 38.2247C107.94 39.3781 107.263 40.3992 106.388 41.2784C105.512 42.1577 104.496 42.8384 103.348 43.3206C102.2 43.7933 101.014 44.0297 99.772 44.0297C98.5298 44.0297 97.3347 43.7933 96.1866 43.3206C95.0386 42.8384 94.0317 42.1577 93.1565 41.2784C92.2719 40.3992 91.5944 39.3781 91.1238 38.2247C90.6533 37.0807 90.4087 35.8799 90.4087 34.632C90.4087 33.384 90.6533 32.1833 91.1238 31.0298C91.5944 29.8764 92.2719 28.8647 93.1565 27.9855C94.0317 27.0968 95.0386 26.4255 96.1866 25.9433C97.3347 25.4706 98.5298 25.2248 99.772 25.2248Z" fill="black"></path><mask id="mask3_69_68" style="mask-type:luminance" maskUnits="userSpaceOnUse" x="25" y="51" width="149" height="131"><path d="M25.9005 51.6972H173.399V181.261H25.9005V51.6972Z" fill="white"></path></mask><g mask="url(#mask3_69_68)"><path d="M172.702 132.126L164.233 123.646C164.017 123.391 163.753 123.192 163.452 123.041C163.151 122.899 162.831 122.814 162.492 122.804C162.153 122.785 161.833 122.842 161.514 122.965C161.203 123.088 160.93 123.277 160.685 123.513C160.45 123.75 160.271 124.024 160.149 124.345C160.027 124.657 159.97 124.988 159.98 125.319C159.998 125.66 160.074 125.981 160.224 126.284C160.365 126.596 160.572 126.851 160.827 127.078L165.155 131.427H139.013C137.366 125.669 129.895 120.904 118.677 118.304L146.128 90.6592V96.7573C146.128 97.0787 146.184 97.3907 146.306 97.6838C146.429 97.9864 146.607 98.2416 146.833 98.4685C147.059 98.6954 147.323 98.8751 147.614 98.998C147.916 99.1209 148.217 99.1871 148.546 99.1871C148.866 99.1871 149.167 99.1209 149.468 98.998C149.76 98.8751 150.023 98.6954 150.249 98.4685C150.475 98.2416 150.654 97.9864 150.776 97.6838C150.899 97.3907 150.955 97.0787 150.955 96.7573V84.7501C150.955 84.4287 150.899 84.1167 150.776 83.8236C150.654 83.521 150.475 83.2658 150.249 83.0389C150.023 82.8025 149.76 82.6323 149.468 82.5094C149.167 82.3865 148.866 82.3203 148.546 82.3203H136.576C136.256 82.3203 135.946 82.3865 135.644 82.5094C135.353 82.6323 135.089 82.8025 134.863 83.0389C134.637 83.2658 134.459 83.521 134.336 83.8236C134.214 84.1167 134.158 84.4287 134.158 84.7501C134.158 85.0716 134.214 85.3836 134.336 85.6861C134.459 85.9792 134.637 86.2439 134.863 86.4708C135.089 86.6977 135.353 86.8774 135.644 87.0003C135.946 87.1232 136.256 87.1799 136.576 87.1799H142.712L113.191 116.848V103.725H116.24C117.012 103.725 117.755 103.574 118.48 103.281C119.195 102.978 119.826 102.553 120.371 102.005C120.927 101.456 121.35 100.813 121.642 100.095C121.943 99.3762 122.084 98.6293 122.084 97.8445V65.2172C122.093 63.9408 121.905 62.6929 121.501 61.4732C121.105 60.2536 120.522 59.138 119.75 58.1169C118.988 57.0864 118.075 56.2165 117.021 55.498C115.967 54.77 114.829 54.2406 113.605 53.9002C111.215 53.2857 108.797 52.8697 106.35 52.6617C105.842 52.6049 105.371 52.7089 104.919 52.9548C104.477 53.2006 104.148 53.5598 103.931 54.0137L99.6496 62.9576L95.3961 54.0137C95.1703 53.5598 94.8409 53.2006 94.3986 52.9548C93.9564 52.7089 93.4764 52.6049 92.9777 52.6617C90.5216 52.8697 88.1031 53.2857 85.7223 53.9002C84.4895 54.2406 83.3508 54.77 82.2969 55.498C81.2429 56.2165 80.3301 57.0864 79.5585 58.1074C78.7868 59.138 78.2034 60.2536 77.7987 61.4732C77.4035 62.6834 77.2059 63.9408 77.2059 65.2172V97.8445C77.2059 98.6293 77.3564 99.3856 77.6576 100.104C77.9587 100.823 78.3822 101.466 78.928 102.014C79.4832 102.562 80.1137 102.988 80.8383 103.29C81.5535 103.583 82.3063 103.735 83.0874 103.725H86.3528V116.848L56.823 87.1799H62.9679C63.2879 87.1799 63.5984 87.1232 63.8902 87.0003C64.1913 86.8774 64.4454 86.6977 64.6806 86.4708C64.9065 86.2439 65.0759 85.9792 65.1982 85.6861C65.3205 85.3836 65.3864 85.0716 65.3864 84.7501C65.3864 84.4287 65.3205 84.1167 65.1982 83.8236C65.0759 83.521 64.9065 83.2658 64.6806 83.0389C64.4454 82.8025 64.1913 82.6323 63.8902 82.5094C63.5984 82.3865 63.2879 82.3203 62.9679 82.3203H51.0167C50.6968 82.3203 50.3957 82.3865 50.0945 82.5094C49.8028 82.6323 49.5393 82.8025 49.3135 83.0389C49.0876 83.2658 48.9088 83.521 48.7865 83.8236C48.6642 84.1167 48.6077 84.4287 48.6077 84.7501V96.7573C48.6077 97.0787 48.6642 97.3907 48.7865 97.6838C48.9088 97.9864 49.0876 98.2416 49.3135 98.4685C49.5393 98.6954 49.8028 98.8751 50.0945 98.998C50.3957 99.1209 50.6968 99.1871 51.0167 99.1871C51.3461 99.1871 51.6472 99.1209 51.9484 98.998C52.2401 98.8751 52.5036 98.6954 52.7294 98.4685C52.9553 98.2416 53.1341 97.9864 53.2564 97.6838C53.3788 97.3907 53.4352 97.0787 53.4352 96.7573V90.6592L80.8571 118.209C69.6399 120.809 62.1963 125.499 60.5495 131.323H34.4074L38.7174 127.002C38.9432 126.775 39.122 126.51 39.2444 126.208C39.3667 125.915 39.4326 125.603 39.4326 125.281C39.4326 124.95 39.3667 124.638 39.2444 124.345C39.122 124.043 38.9432 123.778 38.7174 123.551C38.4821 123.324 38.228 123.154 37.9269 123.031C37.6352 122.908 37.3246 122.842 37.0047 122.842C36.6847 122.842 36.3836 122.908 36.0825 123.031C35.7907 123.154 35.5272 123.324 35.3014 123.551L26.8415 132.126C26.6156 132.353 26.4462 132.618 26.3239 132.911C26.2016 133.214 26.1357 133.516 26.1357 133.838C26.1357 134.159 26.2016 134.471 26.3239 134.764C26.4462 135.067 26.6156 135.322 26.8415 135.558L35.3014 144.058C35.5272 144.285 35.7907 144.455 36.0825 144.578C36.3836 144.701 36.6847 144.767 37.0047 144.767C37.3246 144.767 37.6352 144.701 37.9269 144.578C38.228 144.455 38.4821 144.285 38.7174 144.058C38.9432 143.831 39.122 143.566 39.2444 143.264C39.3667 142.971 39.4326 142.659 39.4326 142.337C39.4326 142.006 39.3667 141.694 39.2444 141.401C39.122 141.099 38.9432 140.834 38.7174 140.607L34.3886 136.182H60.5683C62.2433 142.016 69.8375 146.8 80.8383 149.352L57.8863 172.412V166.285C57.8863 165.964 57.8299 165.652 57.7075 165.359C57.5852 165.056 57.4064 164.801 57.1806 164.574C56.9547 164.338 56.6912 164.168 56.3995 164.045C56.0984 163.922 55.7878 163.856 55.4679 163.856C55.1479 163.856 54.8374 163.922 54.5456 164.045C54.2445 164.168 53.9904 164.338 53.7646 164.574C53.5293 164.801 53.3599 165.056 53.2376 165.359C53.1153 165.652 53.0494 165.964 53.0494 166.285V178.293C53.0494 178.614 53.1153 178.926 53.2376 179.219C53.3599 179.522 53.5293 179.777 53.7646 180.004C53.9904 180.24 54.2445 180.41 54.5456 180.533C54.8374 180.656 55.1479 180.722 55.4679 180.722H67.4191C67.739 180.722 68.0401 180.656 68.3413 180.533C68.633 180.41 68.8965 180.24 69.1223 180.004C69.3482 179.777 69.527 179.522 69.6493 179.219C69.7717 178.926 69.8375 178.614 69.8375 178.293C69.8375 177.971 69.7717 177.659 69.6493 177.357C69.527 177.064 69.3482 176.799 69.1223 176.572C68.8965 176.345 68.633 176.165 68.3413 176.042C68.0401 175.92 67.739 175.863 67.4191 175.863H61.2741L86.588 150.421C95.3773 151.697 104.167 151.697 112.947 150.421L138.26 175.863H132.125C131.805 175.863 131.494 175.92 131.193 176.042C130.902 176.165 130.638 176.345 130.412 176.572C130.186 176.799 130.008 177.064 129.885 177.357C129.763 177.659 129.706 177.971 129.706 178.293C129.706 178.614 129.763 178.926 129.885 179.219C130.008 179.522 130.186 179.777 130.412 180.004C130.638 180.24 130.902 180.41 131.193 180.533C131.494 180.656 131.805 180.722 132.125 180.722H144.067C144.387 180.722 144.697 180.656 144.989 180.533C145.29 180.41 145.554 180.24 145.779 180.004C146.005 179.777 146.184 179.522 146.306 179.219C146.429 178.926 146.485 178.614 146.485 178.293V166.285C146.485 165.964 146.429 165.652 146.306 165.359C146.184 165.056 146.005 164.801 145.779 164.574C145.554 164.338 145.29 164.168 144.989 164.045C144.697 163.922 144.387 163.856 144.067 163.856C143.747 163.856 143.436 163.922 143.144 164.045C142.843 164.168 142.589 164.338 142.354 164.574C142.128 164.801 141.959 165.056 141.836 165.359C141.714 165.652 141.648 165.964 141.648 166.285V172.412L118.724 149.352C129.725 146.8 137.319 142.063 138.994 136.182H165.155L160.827 140.531C160.601 140.758 160.422 141.023 160.309 141.326C160.187 141.619 160.121 141.931 160.121 142.252C160.121 142.564 160.187 142.876 160.309 143.179C160.422 143.472 160.601 143.737 160.827 143.963C161.052 144.19 161.316 144.361 161.608 144.483C161.899 144.606 162.21 144.663 162.53 144.663C162.85 144.663 163.16 144.606 163.452 144.483C163.744 144.361 164.007 144.19 164.233 143.963L172.702 135.483C173.173 135.001 173.399 134.433 173.399 133.753C173.38 133.119 173.145 132.58 172.702 132.126ZM83.2285 98.9696C82.9462 98.9696 82.7015 98.8751 82.4945 98.6765C82.2875 98.478 82.1934 98.2322 82.1934 97.9485V65.2172C82.184 64.4797 82.2875 63.7518 82.5133 63.0521C82.7392 62.343 83.0685 61.6907 83.5108 61.095C83.9437 60.49 84.4613 59.9794 85.0635 59.554C85.6658 59.1191 86.3245 58.7976 87.0303 58.5896C88.5642 58.1831 90.1169 57.8805 91.6884 57.6914L97.4006 69.6135C97.8334 70.5401 98.558 70.9939 99.5744 71.0033C100.591 70.9939 101.315 70.5401 101.748 69.6135L107.479 57.6914C109.06 57.89 110.613 58.1831 112.147 58.5896C112.852 58.7976 113.511 59.1191 114.113 59.554C114.716 59.9794 115.233 60.49 115.666 61.095C116.108 61.6907 116.438 62.343 116.664 63.0521C116.889 63.7518 116.993 64.4797 116.984 65.2172V97.8445C116.984 98.1282 116.889 98.374 116.692 98.5725C116.494 98.7711 116.25 98.8656 115.967 98.8656H113.191V80.4011C113.191 80.0796 113.125 79.7676 113.003 79.4745C112.881 79.172 112.711 78.9167 112.485 78.6898C112.25 78.4534 111.996 78.2833 111.695 78.1604C111.403 78.0374 111.093 77.9713 110.773 77.9713C110.453 77.9713 110.142 78.0374 109.85 78.1604C109.549 78.2833 109.286 78.4534 109.06 78.6898C108.834 78.9167 108.665 79.172 108.533 79.4745C108.411 79.7676 108.354 80.0796 108.354 80.4011V128.241C108.317 128.628 108.213 128.997 108.044 129.347C107.874 129.697 107.648 129.999 107.357 130.264C107.074 130.519 106.754 130.727 106.387 130.869C106.03 131.011 105.653 131.077 105.268 131.077C104.882 131.077 104.505 131.011 104.148 130.869C103.79 130.727 103.47 130.519 103.179 130.264C102.896 129.999 102.67 129.697 102.492 129.347C102.322 128.997 102.219 128.628 102.19 128.241V107.082C102.19 106.76 102.125 106.448 102.002 106.146C101.88 105.852 101.701 105.588 101.475 105.361C101.249 105.134 100.995 104.954 100.694 104.831C100.402 104.708 100.092 104.652 99.772 104.652C99.452 104.652 99.1415 104.708 98.8403 104.831C98.5486 104.954 98.2851 105.134 98.0593 105.361C97.8334 105.588 97.6546 105.852 97.5323 106.146C97.41 106.448 97.3535 106.76 97.3535 107.082V128.241C97.3159 128.628 97.2123 128.997 97.043 129.347C96.8736 129.697 96.6477 129.999 96.356 130.264C96.0737 130.519 95.7537 130.727 95.3867 130.869C95.0291 131.011 94.6527 131.077 94.2669 131.077C93.8811 131.077 93.5047 131.011 93.1471 130.869C92.7895 130.727 92.4601 130.519 92.1778 130.264C91.8955 129.999 91.6602 129.697 91.4908 129.347C91.3214 128.997 91.2179 128.628 91.1897 128.241V80.4011C91.1897 80.0796 91.1238 79.7676 91.0015 79.4745C90.8792 79.172 90.7004 78.9167 90.4745 78.6898C90.2487 78.4534 89.9852 78.2833 89.6934 78.1604C89.3923 78.0374 89.0912 77.9713 88.7712 77.9713C88.4419 77.9713 88.1407 78.0374 87.8396 78.1604C87.5479 78.2833 87.2844 78.4534 87.0585 78.6898C86.8327 78.9167 86.6539 79.172 86.5316 79.4745C86.4092 79.7676 86.3528 80.0796 86.3528 80.4011V98.8656L83.2285 98.9696ZM99.6685 146.611C79.1915 146.611 64.9253 139.879 64.9253 133.857C64.9253 129.725 72.3689 124.43 86.2492 122.171V128.241C86.2587 129.29 86.4563 130.302 86.8609 131.276C87.2656 132.249 87.8302 133.11 88.5736 133.857C89.317 134.594 90.1734 135.171 91.1332 135.577C92.1025 135.974 93.1094 136.182 94.1634 136.182C96.309 136.192 98.144 135.445 99.6685 133.923C101.202 135.445 103.037 136.192 105.183 136.182C106.246 136.192 107.263 136.003 108.241 135.606C109.22 135.209 110.086 134.632 110.829 133.885C111.582 133.138 112.165 132.278 112.57 131.304C112.984 130.321 113.182 129.3 113.191 128.241V122.095C127.072 124.326 134.543 129.63 134.543 133.753C134.543 139.785 120.249 146.516 99.772 146.516L99.6685 146.611Z" fill="black"></path></g></g></g></g></svg>