<svg xmlns="http://www.w3.org/2000/svg" width="200" height="200" viewBox="0 0 200 200" fill="none"><mask id="mask0_64_64" style="mask-type:luminance" maskUnits="userSpaceOnUse" x="0" y="0" width="200" height="200"><path d="M0 0H200V200H0V0Z" fill="white"></path></mask><g mask="url(#mask0_64_64)"><mask id="mask1_64_64" style="mask-type:luminance" maskUnits="userSpaceOnUse" x="0" y="0" width="200" height="200"><path d="M99.9965 0C44.7738 0 0 44.7738 0 99.9965C0 155.226 44.7738 200 99.9965 200C155.226 200 200 155.226 200 99.9965C200 44.7738 155.226 0 99.9965 0Z" fill="white"></path></mask><g mask="url(#mask1_64_64)"><path d="M0 0H200V200H0V0Z" fill="#FFD56A"></path></g></g><g opacity="0.55"><mask id="mask2_64_64" style="mask-type:luminance" maskUnits="userSpaceOnUse" x="47" y="22" width="107" height="144"><path d="M154 22H47V166H154V22Z" fill="white"></path></mask><g mask="url(#mask2_64_64)"><mask id="mask3_64_64" style="mask-type:luminance" maskUnits="userSpaceOnUse" x="102" y="23" width="35" height="39"><path d="M102.64 23.4688H136.88V62H102.64V23.4688Z" fill="white"></path></mask><g mask="url(#mask3_64_64)"><path d="M109.745 50.9454L117.269 54.5235L128.663 33.9063L121.139 30.3204L109.745 50.9454ZM118.573 61.0938C118.097 61.0938 117.628 60.9922 117.194 60.7891L104.304 54.6485C102.816 53.9454 102.239 52.2579 102.991 50.8829L117.144 25.2735C117.511 24.6172 118.147 24.1172 118.907 23.8829C119.668 23.6563 120.496 23.7188 121.206 24.0626L134.105 30.1954C135.584 30.9063 136.169 32.586 135.409 33.961L121.265 59.5704C120.897 60.2344 120.262 60.7344 119.501 60.961C119.2 61.0547 118.891 61.0938 118.573 61.0938Z" fill="black"></path></g><path d="M81.4239 102.227L88.939 105.797L92.5419 99.2812L85.0185 95.7031L81.4239 102.227ZM90.2514 112.367C89.7749 112.367 89.2985 112.266 88.8721 112.055L75.982 105.93C75.2714 105.594 74.7281 105.008 74.4857 104.297C74.2349 103.594 74.3017 102.828 74.6696 102.164L81.0227 90.6641C81.7834 89.2891 83.6057 88.7422 85.0853 89.4453L97.9755 95.5703C99.4635 96.2734 100.049 97.9609 99.2879 99.3359L92.9348 110.844C92.567 111.508 91.94 112 91.1793 112.234C90.87 112.32 90.5607 112.367 90.2514 112.367Z" fill="black"></path><path d="M83.355 88.6172L99.7227 96.4062L118.933 61.6094L102.573 53.8359L83.355 88.6172ZM101.035 102.977C100.559 102.977 100.082 102.867 99.6558 102.664L77.9214 92.3203C76.4335 91.6172 75.8483 89.9297 76.609 88.5547L98.5691 48.7969C99.3298 47.4219 101.152 46.875 102.632 47.5781L124.366 57.8906C125.085 58.2266 125.62 58.8203 125.871 59.5234C126.113 60.2344 126.046 61 125.679 61.6641L103.718 101.453C103.351 102.117 102.724 102.609 101.955 102.844C101.654 102.93 101.344 102.977 101.035 102.977Z" fill="black"></path><mask id="mask4_64_64" style="mask-type:luminance" maskUnits="userSpaceOnUse" x="49" y="62" width="105" height="102"><path d="M49.2153 62H153.081V163.844H49.2153V62Z" fill="white"></path></mask><g mask="url(#mask4_64_64)"><path d="M55.535 158.109H146.761C145.348 151.375 138.936 146.281 131.271 146.281H125.846C124.542 146.281 123.388 145.5 122.978 144.352C122.577 143.203 123.012 141.938 124.065 141.219C136.103 133.063 143.283 119.961 143.283 106.18C143.283 91.1876 134.974 77.3516 121.407 69.4063L117.595 76.3204C128.487 83.5938 135.4 95.0626 135.4 106.18C135.4 118.641 128.571 130.063 117.135 136.75C116.65 137.031 116.09 137.18 115.522 137.18C114.193 137.18 112.964 137.649 112.053 138.508C111.091 139.391 110.581 140.524 110.581 141.758C110.581 144.25 108.4 146.281 105.708 146.281H71.0249C63.351 146.281 56.9477 151.375 55.535 158.109ZM150.063 163.711H52.2246C50.5611 163.711 49.2069 162.461 49.2069 160.914C49.2069 149.758 58.9957 140.68 71.0249 140.68H104.604C104.864 138.344 105.975 136.203 107.789 134.547C109.587 132.852 111.977 131.82 114.569 131.617C123.848 125.922 129.365 116.469 129.365 106.18C129.365 94.8048 120.688 84.6407 112.086 79.6251C110.765 78.8516 110.297 77.2735 111.008 75.9845L117.486 64.2188C117.854 63.547 118.506 63.047 119.275 62.8204C120.053 62.5938 120.897 62.672 121.616 63.0313C138.702 71.6407 149.319 88.172 149.319 106.18C149.319 119.211 143.634 131.695 133.82 140.82C144.654 141.992 153.089 150.555 153.089 160.914C153.089 162.461 151.735 163.711 150.063 163.711Z" fill="black"></path></g><mask id="mask5_64_64" style="mask-type:luminance" maskUnits="userSpaceOnUse" x="49" y="120" width="61" height="28"><path d="M49.2153 120H109.06V148H49.2153V120Z" fill="white"></path></mask><g mask="url(#mask5_64_64)"><path d="M105.708 146.281C105.315 146.281 104.914 146.211 104.529 146.055L52.8015 125.617C51.2717 125.008 50.5528 123.367 51.2132 121.945C51.8653 120.524 53.6374 119.859 55.1672 120.469L106.895 140.906C108.425 141.516 109.144 143.156 108.492 144.578C107.998 145.641 106.887 146.281 105.708 146.281Z" fill="black"></path></g></g></g></svg>