<svg xmlns="http://www.w3.org/2000/svg" width="180" height="50" viewBox="0 0 180 50" fill="none"><mask id="mask0_36_92" style="mask-type:luminance" maskUnits="userSpaceOnUse" x="6" y="2" width="46" height="47"><path d="M6.11979 2.85938H51.5156V48.2552H6.11979V2.85938Z" fill="white"></path></mask><g mask="url(#mask0_36_92)"><path d="M10.8385 2.85938H46.7917C49.4062 2.85938 51.5156 4.96875 51.5156 7.58333V43.5365C51.5156 46.151 49.4062 48.2552 46.7917 48.2552H10.8385C8.22396 48.2552 6.11979 46.151 6.11979 43.5365V7.58333C6.11979 4.96875 8.22396 2.85938 10.8385 2.85938Z" fill="#354CA1"></path></g><path d="M18.9167 23.4115C15.599 25.349 13.5469 28.8958 13.5312 32.7396C13.5104 38.7344 18.3594 43.6094 24.3542 43.6302C29.3281 43.6406 33.6719 40.2656 34.8958 35.4427L32.6354 31.5052C32.7031 31.9323 32.7396 32.3646 32.7396 32.8021C32.724 37.4167 28.974 41.1458 24.3594 41.1302C19.7448 41.1146 16.0156 37.3646 16.0312 32.75C16.0417 30.2448 17.1719 27.875 19.1198 26.2917L18.9167 23.4115Z" fill="white"></path><path d="M22.0156 7.48959C20.9635 7.48959 19.9531 7.90626 19.2083 8.65105C18.4635 9.39584 18.0469 10.4063 18.0469 11.4636C18.0469 12.6823 18.6094 13.8386 19.5729 14.5886C19.5781 14.6094 19.5781 14.625 19.5781 14.6458L20.5573 28.0417C20.6198 28.9063 21.349 29.5573 22.2083 29.5313C22.2292 29.5313 22.2448 29.5313 22.2656 29.5313H33.1823L38.7604 39.1875C39.0625 39.7188 39.625 40.0052 40.1927 39.9896C40.4583 39.9844 40.724 39.9167 40.9688 39.7761L43.2969 38.4271C44.0677 37.9844 44.3281 37.0052 43.8854 36.2344C43.4375 35.4688 42.4635 35.2031 41.6927 35.6511L40.7396 36.1979L35.5 27.125C35.1927 26.5938 34.6302 26.3021 34.0573 26.3229C34.0365 26.3229 34.0156 26.3229 33.9948 26.3229H23.651L23.3333 21.9792H30.4219C31.3125 21.9792 32.026 21.2656 32.026 20.375C32.026 19.4844 31.3125 18.7708 30.4219 18.7708H23.099L22.849 15.3438C24.6771 14.9531 25.9896 13.3333 25.9896 11.4636C25.9896 10.4063 25.5729 9.39584 24.8281 8.65105C24.0833 7.90626 23.0729 7.48959 22.0156 7.48959Z" fill="white"></path><mask id="mask1_36_92" style="mask-type:luminance" maskUnits="userSpaceOnUse" x="44" y="2" width="132" height="46"><path d="M44.1094 2.94791H175.339V47.8594H44.1094V2.94791Z" fill="white"></path></mask><g mask="url(#mask1_36_92)"><mask id="mask2_36_92" style="mask-type:luminance" maskUnits="userSpaceOnUse" x="44" y="2" width="132" height="46"><path d="M46.0833 2.94791H173.292C173.813 2.94791 174.313 3.15624 174.688 3.52603C175.057 3.89582 175.266 4.40103 175.266 4.92186V45.8906C175.266 46.4114 175.057 46.9114 174.688 47.2812C174.313 47.6562 173.813 47.8594 173.292 47.8594H46.0833C45.5625 47.8594 45.0625 47.6562 44.6875 47.2812C44.3177 46.9114 44.1094 46.4114 44.1094 45.8906V4.92186C44.1094 4.40103 44.3177 3.89582 44.6875 3.52603C45.0625 3.15624 45.5625 2.94791 46.0833 2.94791Z" fill="white"></path></mask><g mask="url(#mask2_36_92)"><path d="M44.1094 2.94791H175.339V47.8594H44.1094V2.94791Z" fill="#354CA1"></path></g></g><path d="M56.5188 24.5738H54.6438L51.8313 12.303H53.248L55.5605 22.4488H55.7688L58.5188 12.303H59.8522L62.6022 22.4488H62.8313L65.1438 12.303H66.5188L63.7272 24.5738H61.8313L59.2688 15.2821H59.0813L56.5188 24.5738Z" fill="white"></path><path d="M76.8427 17.2821V12.303H78.2802V24.5738H76.8427V18.5113H70.4677V24.5738H69.0302V12.303H70.4677V17.2821H76.8427Z" fill="white"></path><path d="M83.4345 18.7821V23.3863H89.6845V24.5738H81.997V12.303H89.5595V13.4905H83.4345V17.5946H88.8304V18.7821H83.4345Z" fill="white"></path><path d="M93.7928 18.7821V23.3863H100.043V24.5738H92.3553V12.303H99.9178V13.4905H93.7928V17.5946H99.1887V18.7821H93.7928Z" fill="white"></path><path d="M104.151 12.303V23.3863H110.068V24.5738H102.714V12.303H104.151Z" fill="white"></path><path d="M117.351 24.7405C116.278 24.7405 115.32 24.5009 114.476 24.0113C113.643 23.5269 112.987 22.8134 112.518 21.8655C112.044 20.9072 111.81 19.7717 111.81 18.4488C111.81 17.1155 112.044 15.9801 112.518 15.0322C112.987 14.0738 113.643 13.3551 114.476 12.8655C115.32 12.3811 116.278 12.1363 117.351 12.1363C118.502 12.1363 119.461 12.3551 120.226 12.7822C120.987 13.2144 121.539 13.8655 121.872 14.7405L120.935 15.3447H120.726C120.393 14.6519 119.955 14.1572 119.414 13.8655C118.882 13.5738 118.195 13.428 117.351 13.428C116.586 13.428 115.903 13.6051 115.31 13.9488C114.711 14.2822 114.231 14.8238 113.872 15.5738C113.523 16.3238 113.351 17.2822 113.351 18.4488C113.351 19.6051 113.523 20.553 113.872 21.303C114.231 22.0426 114.711 22.5842 115.31 22.928C115.903 23.2769 116.586 23.4488 117.351 23.4488C118.252 23.4488 118.981 23.2509 119.539 22.8447C120.106 22.4436 120.528 21.7978 120.81 20.9072H121.018L121.976 21.3863C121.685 22.4697 121.143 23.303 120.351 23.8863C119.57 24.4592 118.57 24.7405 117.351 24.7405Z" fill="white"></path><path d="M132.274 17.2821V12.303H133.712V24.5738H132.274V18.5113H125.899V24.5738H124.462V12.303H125.899V17.2821H132.274Z" fill="white"></path><path d="M146.616 24.5738H145.075L143.95 21.1988H138.72L137.575 24.5738H136.054L140.345 12.303H142.345L146.616 24.5738ZM141.22 13.7821L139.116 19.9905H143.533L141.429 13.7821H141.22Z" fill="white"></path><path d="M150.39 24.5738H148.953V12.303H150.39V24.5738Z" fill="white"></path><path d="M154.111 24.5738V12.303H158.569C159.387 12.303 160.075 12.4436 160.632 12.7196C161.2 12.9853 161.622 13.3655 161.903 13.8655C162.179 14.3551 162.319 14.9384 162.319 15.6155C162.319 16.3811 162.122 17.0113 161.736 17.5113C161.361 18.0009 160.767 18.3655 159.965 18.6155V18.7821C160.366 18.9488 160.694 19.1988 160.944 19.5321C161.194 19.8655 161.424 20.3655 161.632 21.0321L162.778 24.5738H161.278L160.069 20.8238C159.913 20.3811 159.741 20.0321 159.549 19.7821C159.366 19.5321 159.132 19.3551 158.84 19.2405C158.549 19.1311 158.179 19.0738 157.736 19.0738H155.549V24.5738H154.111ZM158.528 17.8446C159.304 17.8446 159.872 17.6728 160.236 17.3238C160.611 16.9644 160.799 16.4176 160.799 15.678C160.799 14.9592 160.611 14.4228 160.236 14.0738C159.872 13.7144 159.304 13.5321 158.528 13.5321H155.549V17.8446H158.528Z" fill="white"></path><path d="M62.1601 40.3633H60.6184L59.4934 36.9883H54.2643L53.1184 40.3633H51.5976L55.8893 28.0924H57.8893L62.1601 40.3633ZM56.7643 29.5716L54.6601 35.7799H59.0768L56.9726 29.5716H56.7643Z" fill="white"></path><path d="M69.4134 40.5299C68.3405 40.5299 67.3822 40.2904 66.5384 39.8008C65.7051 39.3164 65.0488 38.6029 64.5801 37.6549C64.1061 36.6966 63.8718 35.5612 63.8718 34.2383C63.8718 32.9049 64.1061 31.7695 64.5801 30.8216C65.0488 29.8633 65.7051 29.1445 66.5384 28.6549C67.3822 28.1706 68.3405 27.9258 69.4134 27.9258C70.5645 27.9258 71.5228 28.1445 72.2884 28.5716C73.0488 29.0039 73.6009 29.6549 73.9343 30.5299L72.9968 31.1341H72.7884C72.4551 30.4414 72.0176 29.9466 71.4759 29.6549C70.9447 29.3633 70.2572 29.2174 69.4134 29.2174C68.6478 29.2174 67.9655 29.3945 67.3718 29.7383C66.7728 30.0716 66.2936 30.6133 65.9343 31.3633C65.5853 32.1133 65.4134 33.0716 65.4134 34.2383C65.4134 35.3945 65.5853 36.3424 65.9343 37.0924C66.2936 37.832 66.7728 38.3737 67.3718 38.7174C67.9655 39.0664 68.6478 39.2383 69.4134 39.2383C70.3145 39.2383 71.0436 39.0404 71.6009 38.6341C72.1686 38.2331 72.5905 37.5872 72.8718 36.6966H73.0801L74.0384 37.1758C73.7468 38.2591 73.2051 39.0924 72.4134 39.6758C71.6322 40.2487 70.6322 40.5299 69.4134 40.5299Z" fill="white"></path><path d="M81.4408 40.5299C80.3679 40.5299 79.4096 40.2904 78.5658 39.8008C77.7325 39.3164 77.0762 38.6029 76.6075 37.6549C76.1335 36.6966 75.8992 35.5612 75.8992 34.2383C75.8992 32.9049 76.1335 31.7695 76.6075 30.8216C77.0762 29.8633 77.7325 29.1445 78.5658 28.6549C79.4096 28.1706 80.3679 27.9258 81.4408 27.9258C82.5919 27.9258 83.5502 28.1445 84.3158 28.5716C85.0762 29.0039 85.6283 29.6549 85.9617 30.5299L85.0242 31.1341H84.8158C84.4825 30.4414 84.045 29.9466 83.5033 29.6549C82.9721 29.3633 82.2846 29.2174 81.4408 29.2174C80.6752 29.2174 79.9929 29.3945 79.3992 29.7383C78.8002 30.0716 78.321 30.6133 77.9617 31.3633C77.6127 32.1133 77.4408 33.0716 77.4408 34.2383C77.4408 35.3945 77.6127 36.3424 77.9617 37.0924C78.321 37.832 78.8002 38.3737 79.3992 38.7174C79.9929 39.0664 80.6752 39.2383 81.4408 39.2383C82.3419 39.2383 83.071 39.0404 83.6283 38.6341C84.196 38.2331 84.6179 37.5872 84.8992 36.6966H85.1075L86.0658 37.1758C85.7742 38.2591 85.2325 39.0924 84.4408 39.6758C83.6596 40.2487 82.6596 40.5299 81.4408 40.5299Z" fill="white"></path><path d="M89.9891 34.5716V39.1758H96.2391V40.3633H88.5516V28.0924H96.1141V29.2799H89.9891V33.3841H95.3849V34.5716H89.9891Z" fill="white"></path><path d="M102.41 40.5299C101.644 40.5299 100.957 40.4258 100.347 40.2174C99.7328 40.0091 99.2224 39.7383 98.8057 39.4049C98.3995 39.0612 98.0974 38.6862 97.8891 38.2799L98.6807 37.3216H98.8891C99.6495 38.6029 100.827 39.2383 102.41 39.2383C103.337 39.2383 104.024 39.0456 104.472 38.6549C104.931 38.2695 105.16 37.7331 105.16 37.0508C105.16 36.6497 105.082 36.3112 104.931 36.0299C104.774 35.7539 104.524 35.5195 104.181 35.3216C103.847 35.1133 103.389 34.9414 102.806 34.8008L101.368 34.4466C100.295 34.1862 99.5037 33.7747 98.9932 33.2174C98.4932 32.6497 98.2432 31.9362 98.2432 31.0716C98.2432 30.4622 98.3943 29.9206 98.7016 29.4466C99.0193 28.9622 99.4776 28.5872 100.077 28.3216C100.686 28.0612 101.415 27.9258 102.264 27.9258C103.181 27.9258 103.957 28.0612 104.597 28.3216C105.233 28.5716 105.743 28.9622 106.118 29.4883L105.41 30.4258H105.202C104.853 29.9987 104.436 29.6862 103.952 29.4883C103.462 29.2799 102.899 29.1758 102.264 29.1758C101.415 29.1758 100.769 29.3424 100.327 29.6758C99.8943 30.0091 99.6807 30.4622 99.6807 31.0299C99.6807 31.5872 99.837 32.0299 100.16 32.3633C100.478 32.6862 101.014 32.9362 101.764 33.1133L103.243 33.4674C104.436 33.7487 105.295 34.1758 105.827 34.7591C106.368 35.3424 106.639 36.0872 106.639 36.9883C106.639 37.6862 106.478 38.3008 106.16 38.8424C105.853 39.3737 105.379 39.7904 104.743 40.0924C104.118 40.3841 103.337 40.5299 102.41 40.5299Z" fill="white"></path><path d="M112.919 40.5299C112.154 40.5299 111.466 40.4258 110.857 40.2174C110.242 40.0091 109.732 39.7383 109.315 39.4049C108.909 39.0612 108.607 38.6862 108.398 38.2799L109.19 37.3216H109.398C110.159 38.6029 111.336 39.2383 112.919 39.2383C113.846 39.2383 114.534 39.0456 114.982 38.6549C115.44 38.2695 115.669 37.7331 115.669 37.0508C115.669 36.6497 115.591 36.3112 115.44 36.0299C115.284 35.7539 115.034 35.5195 114.69 35.3216C114.357 35.1133 113.898 34.9414 113.315 34.8008L111.878 34.4466C110.805 34.1862 110.013 33.7747 109.503 33.2174C109.003 32.6497 108.753 31.9362 108.753 31.0716C108.753 30.4622 108.904 29.9206 109.211 29.4466C109.529 28.9622 109.987 28.5872 110.586 28.3216C111.195 28.0612 111.924 27.9258 112.773 27.9258C113.69 27.9258 114.466 28.0612 115.107 28.3216C115.742 28.5716 116.253 28.9622 116.628 29.4883L115.919 30.4258H115.711C115.362 29.9987 114.945 29.6862 114.461 29.4883C113.971 29.2799 113.409 29.1758 112.773 29.1758C111.924 29.1758 111.279 29.3424 110.836 29.6758C110.404 30.0091 110.19 30.4622 110.19 31.0299C110.19 31.5872 110.346 32.0299 110.669 32.3633C110.987 32.6862 111.523 32.9362 112.273 33.1133L113.753 33.4674C114.945 33.7487 115.805 34.1758 116.336 34.7591C116.878 35.3424 117.148 36.0872 117.148 36.9883C117.148 37.6862 116.987 38.3008 116.669 38.8424C116.362 39.3737 115.888 39.7904 115.253 40.0924C114.628 40.3841 113.846 40.5299 112.919 40.5299Z" fill="white"></path></svg>