<svg xmlns="http://www.w3.org/2000/svg" width="500" height="300" viewBox="0 0 500 300" fill="none"><path d="M77.95 284.35C72.5833 284.35 66.6333 283.883 60.1 282.95C53.5667 282.25 48.0833 281.317 43.65 280.15V260.2C51.35 262.533 60.5667 263.7 71.3 263.7C89.7333 263.7 105.6 260.783 118.9 254.95C132.433 249.117 142.7 241.183 149.7 231.15C156.933 221.117 160.55 210.15 160.55 198.25C160.55 182.383 155.65 170.133 145.85 161.5C136.283 152.633 121.467 148.083 101.4 147.85L90.55 150.65C82.85 152.983 79.1167 154.033 79.35 153.8L73.4 135.25C83.2 133.383 92.4167 130.583 101.05 126.85C115.517 120.783 127.183 112.733 136.05 102.7C144.917 92.4333 149.35 81.5833 149.35 70.15C149.35 56.85 145.383 47.1667 137.45 41.1C129.75 34.8 119.833 31.65 107.7 31.65C97.2 31.65 87.05 33.5167 77.25 37.25C67.6833 40.9833 59.4 45.5333 52.4 50.9L42.95 35.15C49.4833 28.6167 59.8667 22.3167 74.1 16.25C88.5667 9.94999 103.267 6.79999 118.2 6.79999C139.433 6.79999 156.583 11.4667 169.65 20.8C182.717 29.9 189.25 43.9 189.25 62.8C189.25 79.3667 182.717 94.4167 169.65 107.95C156.583 121.483 141.067 131.4 123.1 137.7C125.433 137.467 128.7 137.35 132.9 137.35C146.667 137.35 158.8 139.917 169.3 145.05C179.8 150.183 187.85 157.183 193.45 166.05C199.283 174.683 202.2 184.483 202.2 195.45C202.2 212.483 197.067 227.767 186.8 241.3C176.533 254.833 161.95 265.333 143.05 272.8C124.383 280.5 102.683 284.35 77.95 284.35Z" fill="#F6ECE3" fill-opacity="0.3"></path></svg>