<svg xmlns="http://www.w3.org/2000/svg" width="66" height="63" viewBox="0 0 66 63" fill="none"><mask id="mask0_48_59" style="mask-type:luminance" maskUnits="userSpaceOnUse" x="0" y="0" width="66" height="63"><path d="M66 0H0V63H66V0Z" fill="white"></path></mask><g mask="url(#mask0_48_59)"><mask id="mask1_48_59" style="mask-type:luminance" maskUnits="userSpaceOnUse" x="0" y="0" width="66" height="63"><path d="M0.559814 0.53437H65.6169V62.6344H0.559814V0.53437Z" fill="white"></path></mask><g mask="url(#mask1_48_59)"><path d="M33.059 0.5168C15.1005 0.5168 0.541443 14.4141 0.541443 31.5563C0.541443 48.6984 15.1005 62.5992 33.059 62.5992C51.0211 62.5992 65.5802 48.6984 65.5802 31.5563C65.5802 14.4141 51.0211 0.5168 33.059 0.5168ZM47.1208 37.4625H33.3315C33.2873 37.4625 33.2431 37.452 33.1952 37.4484C33.151 37.452 33.1068 37.4625 33.059 37.4625C31.8178 37.4625 30.8123 36.4992 30.8123 35.3145V13.398C30.8123 12.2133 31.8178 11.25 33.059 11.25C34.3038 11.25 35.3093 12.2133 35.3093 13.398V33.1664H47.1208C48.362 33.1664 49.3674 34.1297 49.3674 35.3145C49.3674 36.4992 48.362 37.4625 47.1208 37.4625Z" fill="black"></path></g></g></svg>