<svg xmlns="http://www.w3.org/2000/svg" width="500" height="300" viewBox="0 0 500 300" fill="none"><path d="M42.8 255.2C67.3333 241.333 89.8667 225.467 110.4 207.6C130.933 189.467 147.2 170.8 159.2 151.6C171.467 132.4 177.6 114.267 177.6 97.2C177.6 82.5333 173.2 70.9333 164.4 62.4C155.6 53.6 143.067 49.2 126.8 49.2C111.6 49.2 98.5333 52.2667 87.6 58.4C76.6667 64.2667 66.5333 71.6 57.2 80.4L44.4 62.4C53.7333 51.4667 67.0667 41.6 84.4 32.8C101.733 23.7333 120.267 19.2 140 19.2C158.667 19.2 174.4 22.6667 187.2 29.6C200 36.2667 209.467 45.0667 215.6 56C221.733 66.9333 224.8 78.9333 224.8 92C224.8 118.4 212.133 145.6 186.8 173.6C161.467 201.333 129.733 226.267 91.6 248.4L215.6 239.2L229.6 204.8L250 208.8L239.6 272H48.8L42.8 255.2Z" fill="#F6ECE3" fill-opacity="0.3"></path></svg>