<svg xmlns="http://www.w3.org/2000/svg" width="500" height="300" viewBox="0 0 500 300" fill="none"><mask id="mask0_187_164" style="mask-type:luminance" maskUnits="userSpaceOnUse" x="0" y="0" width="168" height="300"><path d="M168 0H0V300H168V0Z" fill="white"></path></mask><g mask="url(#mask0_187_164)"><mask id="mask1_187_164" style="mask-type:luminance" maskUnits="userSpaceOnUse" x="0" y="0" width="168" height="300"><path d="M168 0H0V300H168V0Z" fill="white"></path></mask><g mask="url(#mask1_187_164)"><path d="M66.9502 67.0938C61.3929 69.2188 52.6585 71.7396 40.7419 74.6563C28.8252 77.5625 19.1585 79.5469 11.7419 80.6146L7.7627 58.3646C21.2731 55.4479 35.1064 50.5521 49.2627 43.6771C63.4294 36.7917 75.2835 29.2396 84.8252 21.0312H85.221L109.45 25.0104V248.99L158.679 252.573V272.031H15.721V252.573L66.9502 248.99V67.0938Z" fill="#8A8581"></path></g></g></svg>