<svg xmlns="http://www.w3.org/2000/svg" width="500" height="300" viewBox="0 0 500 300" fill="none"><mask id="mask0_187_118" style="mask-type:luminance" maskUnits="userSpaceOnUse" x="0" y="0" width="160" height="300"><path d="M160 0H0V300H160V0Z" fill="white"></path></mask><g mask="url(#mask0_187_118)"><mask id="mask1_187_118" style="mask-type:luminance" maskUnits="userSpaceOnUse" x="0" y="0" width="160" height="300"><path d="M0.640625 0H159.042V300H0.640625V0Z" fill="white"></path></mask><g mask="url(#mask1_187_118)"><mask id="mask2_187_118" style="mask-type:luminance" maskUnits="userSpaceOnUse" x="0" y="0" width="160" height="300"><path d="M160 0H0V300H160V0Z" fill="white"></path></mask><g mask="url(#mask2_187_118)"><path d="M45.0501 276.404C40.7272 276.404 35.946 276.071 30.696 275.404C25.446 274.748 21.0345 273.956 17.4668 273.029V256.987C23.6595 258.862 31.071 259.8 39.696 259.8C54.5137 259.8 67.321 257.451 78.1126 252.758C88.9043 248.06 97.1595 241.68 102.883 233.612C108.602 225.56 111.467 216.748 111.467 207.175C111.467 194.414 107.571 184.519 99.7793 177.487C91.9876 170.446 80.0293 166.836 63.9043 166.654L55.1751 168.904C48.9772 170.779 45.9772 171.623 46.1751 171.425L41.3835 156.508C49.2585 155.008 56.6647 152.758 63.6126 149.758C75.248 144.883 84.6335 138.373 91.7585 130.216C98.8835 122.05 102.446 113.373 102.446 104.175C102.446 93.4821 99.3001 85.6488 93.0085 80.6748C86.7272 75.7061 78.7168 73.2165 68.9668 73.2165C60.5189 73.2165 52.4043 74.7165 44.6126 77.7165C36.8314 80.7165 30.1335 84.3779 24.5085 88.6956L16.9043 76.029C22.1543 70.779 30.5501 65.6696 42.0918 60.6956C53.6335 55.7269 65.4043 53.2373 77.4043 53.2373C94.472 53.2373 108.258 56.9456 118.758 64.3623C129.269 71.7686 134.529 83.0654 134.529 98.2581C134.529 111.581 129.269 123.685 118.758 134.571C108.258 145.446 95.7845 153.42 81.3418 158.487C83.2168 158.295 85.847 158.196 89.2376 158.196C100.29 158.196 110.04 160.269 118.488 164.404C126.93 168.529 133.451 174.112 138.05 181.154C142.644 188.185 144.946 196.107 144.946 204.925C144.946 218.623 140.811 230.904 132.55 241.779C124.3 252.664 112.623 261.159 97.5293 267.258C82.4303 273.352 64.9355 276.404 45.0501 276.404Z" fill="#8A8581"></path></g></g></g></svg>