<svg xmlns="http://www.w3.org/2000/svg" width="555" height="300" viewBox="0 0 555 300" fill="none"><mask id="mask0_187_187" style="mask-type:luminance" maskUnits="userSpaceOnUse" x="0" y="0" width="222" height="300"><path d="M221.333 0H0V300H221.333V0Z" fill="white"></path></mask><g mask="url(#mask0_187_187)"><mask id="mask1_187_187" style="mask-type:luminance" maskUnits="userSpaceOnUse" x="0" y="0" width="221" height="300"><path d="M0 0H220.479V300H0V0Z" fill="white"></path></mask><g mask="url(#mask1_187_187)"><mask id="mask2_187_187" style="mask-type:luminance" maskUnits="userSpaceOnUse" x="0" y="0" width="222" height="300"><path d="M221.333 0H0V300H221.333V0Z" fill="white"></path></mask><g mask="url(#mask2_187_187)"><path d="M17.208 253.094C39.6768 240.401 60.3174 225.812 79.1247 209.323C97.9268 192.838 112.885 175.802 124 158.219C135.125 140.635 140.687 124.026 140.687 108.385C140.687 94.9582 136.651 84.2759 128.583 76.3436C120.526 68.4009 109.047 64.4269 94.1455 64.4269C80.2288 64.4269 68.2601 67.1769 58.2497 72.6769C48.234 78.1665 38.958 84.9425 30.4163 93.0103L18.6872 76.5103C27.2288 66.4998 39.4372 57.4009 55.3122 49.2186C71.1872 41.0415 88.1663 36.9478 106.25 36.9478C123.343 36.9478 137.755 40.0675 149.479 46.3019C161.198 52.5259 169.864 60.6457 175.479 70.6561C181.104 80.6717 183.916 91.6665 183.916 103.635C183.916 127.818 172.312 152.672 149.104 178.198C125.906 203.713 96.8434 226.604 61.9163 246.864L175.479 238.448L188.312 206.948L207 210.614L197.458 268.489H22.708L17.208 253.094Z" fill="#F6ECE3" fill-opacity="0.3"></path></g></g></g></svg>