<svg xmlns="http://www.w3.org/2000/svg" width="500" height="300" viewBox="0 0 500 300" fill="none"><mask id="mask0_187_117" style="mask-type:luminance" maskUnits="userSpaceOnUse" x="35" y="0" width="183" height="300"><path d="M217.667 0H35V300H217.667V0Z" fill="white"></path></mask><g mask="url(#mask0_187_117)"><mask id="mask1_187_117" style="mask-type:luminance" maskUnits="userSpaceOnUse" x="35" y="0" width="182" height="300"><path d="M35 0H216.76V300H35V0Z" fill="white"></path></mask><g mask="url(#mask1_187_117)"><mask id="mask2_187_117" style="mask-type:luminance" maskUnits="userSpaceOnUse" x="35" y="0" width="183" height="300"><path d="M217.667 0H35V300H217.667V0Z" fill="white"></path></mask><g mask="url(#mask2_187_117)"><path d="M146.167 231.091H52.7295L45.417 218.425C56.4847 197.414 70.0837 169.602 86.2087 134.987C102.344 100.378 116.797 68.6279 129.563 39.7373H136.875L159.396 51.8206L83.3962 198.175L72.1462 215.341L146.167 211.383L147.292 156.508L171.209 154.55V209.987L210.875 208.008V231.091H171.209V276.404H146.167V231.091Z" fill="#F6ECE3" fill-opacity="0.5"></path></g></g></g></svg>