<svg width="130" height="20" viewBox="0 0 130 20" fill="none" xmlns="http://www.w3.org/2000/svg">
<path d="M0 0H129.5V20H0V0Z" fill="#FFFFFF"/>
<rect x="2" y="3" width="121" height="15" rx="7" fill="#E09DB1"/>
<path d="M15.82 5.912H16.792V14H15.82V10.34H11.896V14H10.924V5.912H11.896V9.464H15.82V5.912ZM21.8629 11.192H20.8069C20.2949 11.192 19.9109 11.292 19.6549 11.492C19.3989 11.692 19.2709 11.944 19.2709 12.248C19.2709 12.552 19.3709 12.8 19.5709 12.992C19.7709 13.176 20.0629 13.268 20.4469 13.268C20.8789 13.268 21.2229 13.148 21.4789 12.908C21.7349 12.66 21.8629 12.348 21.8629 11.972V11.192ZM18.7189 9.188V8.24C19.1749 7.96 19.7749 7.82 20.5189 7.82C22.0469 7.82 22.8109 8.596 22.8109 10.148V14H21.8749V13.28C21.5629 13.8 20.9949 14.06 20.1709 14.06C19.6029 14.06 19.1429 13.892 18.7909 13.556C18.4469 13.22 18.2749 12.796 18.2749 12.284C18.2749 11.7 18.4949 11.248 18.9349 10.928C19.3829 10.6 19.9909 10.436 20.7589 10.436H21.8629V10.124C21.8629 9.644 21.7549 9.284 21.5389 9.044C21.3229 8.796 20.9589 8.672 20.4469 8.672C19.7989 8.672 19.2229 8.844 18.7189 9.188ZM25.4292 7.916V8.9C25.7652 8.188 26.3372 7.832 27.1452 7.832C28.0812 7.832 28.6732 8.228 28.9212 9.02C29.0972 8.636 29.3412 8.344 29.6532 8.144C29.9732 7.936 30.3292 7.832 30.7212 7.832C31.3532 7.832 31.8292 8.012 32.1492 8.372C32.4692 8.732 32.6292 9.216 32.6292 9.824V14H31.6812V10.064C31.6812 9.144 31.2932 8.684 30.5172 8.684C30.1332 8.684 29.7892 8.86 29.4852 9.212C29.1812 9.556 29.0292 10.044 29.0292 10.676V14H28.0812V10.064C28.0812 9.144 27.6932 8.684 26.9172 8.684C26.5332 8.684 26.1892 8.86 25.8852 9.212C25.5812 9.556 25.4292 10.044 25.4292 10.676V14H24.4932V7.916H25.4292ZM35.2495 7.916V8.9C35.5855 8.188 36.1575 7.832 36.9655 7.832C37.9015 7.832 38.4935 8.228 38.7415 9.02C38.9175 8.636 39.1615 8.344 39.4735 8.144C39.7935 7.936 40.1495 7.832 40.5415 7.832C41.1735 7.832 41.6495 8.012 41.9695 8.372C42.2895 8.732 42.4495 9.216 42.4495 9.824V14H41.5015V10.064C41.5015 9.144 41.1135 8.684 40.3375 8.684C39.9535 8.684 39.6095 8.86 39.3055 9.212C39.0015 9.556 38.8495 10.044 38.8495 10.676V14H37.9015V10.064C37.9015 9.144 37.5135 8.684 36.7375 8.684C36.3535 8.684 36.0095 8.86 35.7055 9.212C35.4015 9.556 35.2495 10.044 35.2495 10.676V14H34.3135V7.916H35.2495ZM48.0098 10.568V10.328C48.0098 9.824 47.8738 9.424 47.6018 9.128C47.3298 8.824 46.9538 8.672 46.4738 8.672C46.0178 8.672 45.6298 8.836 45.3098 9.164C44.9898 9.492 44.8018 9.96 44.7458 10.568H48.0098ZM48.5738 12.8V13.688C48.1018 13.936 47.5258 14.06 46.8458 14.06C45.9258 14.06 45.1818 13.78 44.6138 13.22C44.0538 12.652 43.7738 11.904 43.7738 10.976C43.7738 10.008 44.0258 9.244 44.5298 8.684C45.0338 8.124 45.6818 7.844 46.4738 7.844C47.2338 7.844 47.8378 8.088 48.2858 8.576C48.7338 9.064 48.9578 9.756 48.9578 10.652C48.9578 10.908 48.9378 11.144 48.8978 11.36H44.7458C44.8178 11.96 45.0458 12.42 45.4298 12.74C45.8138 13.06 46.3178 13.22 46.9418 13.22C47.6218 13.22 48.1658 13.08 48.5738 12.8ZM51.3393 7.916V8.984C51.6593 8.232 52.2113 7.856 52.9953 7.856C53.1393 7.856 53.2513 7.864 53.3313 7.88V8.816C53.1633 8.76 52.9913 8.732 52.8153 8.732C52.3913 8.732 52.0393 8.928 51.7593 9.32C51.4793 9.712 51.3393 10.164 51.3393 10.676V14H50.3913L50.4033 7.916H51.3393ZM57.6294 8.12V9.02C57.2614 8.796 56.7574 8.684 56.1174 8.684C55.7974 8.684 55.5414 8.76 55.3494 8.912C55.1654 9.056 55.0734 9.244 55.0734 9.476C55.0734 9.62 55.1014 9.748 55.1574 9.86C55.2134 9.964 55.3214 10.068 55.4814 10.172C55.6494 10.276 55.7694 10.348 55.8414 10.388C55.9214 10.42 56.0894 10.492 56.3454 10.604C56.8574 10.812 57.2574 11.048 57.5454 11.312C57.8334 11.576 57.9774 11.932 57.9774 12.38C57.9774 12.9 57.7934 13.312 57.4254 13.616C57.0654 13.92 56.5694 14.072 55.9374 14.072C55.2014 14.072 54.6054 13.948 54.1494 13.7V12.776C54.6854 13.096 55.2614 13.256 55.8774 13.256C56.2454 13.256 56.5254 13.184 56.7174 13.04C56.9094 12.896 57.0054 12.7 57.0054 12.452C57.0054 12.164 56.8974 11.94 56.6814 11.78C56.4734 11.62 56.1214 11.44 55.6254 11.24C55.1694 11.064 54.8014 10.844 54.5214 10.58C54.2494 10.316 54.1134 9.96 54.1134 9.512C54.1134 9.008 54.3014 8.608 54.6774 8.312C55.0614 8.008 55.5374 7.856 56.1054 7.856C56.7374 7.856 57.2454 7.944 57.6294 8.12ZM60.1987 7.916V8.9C60.5347 8.188 61.1067 7.832 61.9147 7.832C62.8507 7.832 63.4427 8.228 63.6907 9.02C63.8667 8.636 64.1107 8.344 64.4227 8.144C64.7427 7.936 65.0987 7.832 65.4907 7.832C66.1227 7.832 66.5987 8.012 66.9187 8.372C67.2387 8.732 67.3987 9.216 67.3987 9.824V14H66.4507V10.064C66.4507 9.144 66.0627 8.684 65.2867 8.684C64.9027 8.684 64.5587 8.86 64.2547 9.212C63.9507 9.556 63.7987 10.044 63.7987 10.676V14H62.8507V10.064C62.8507 9.144 62.4627 8.684 61.6867 8.684C61.3027 8.684 60.9587 8.86 60.6547 9.212C60.3507 9.556 60.1987 10.044 60.1987 10.676V14H59.2627V7.916H60.1987ZM69.131 14V7.916H70.079V14H69.131ZM69.155 6.452C69.043 6.332 68.987 6.184 68.987 6.008C68.987 5.832 69.043 5.684 69.155 5.564C69.275 5.444 69.423 5.384 69.599 5.384C69.775 5.384 69.923 5.444 70.043 5.564C70.163 5.684 70.223 5.832 70.223 6.008C70.223 6.184 70.163 6.332 70.043 6.452C69.923 6.564 69.775 6.62 69.599 6.62C69.423 6.62 69.275 6.564 69.155 6.452ZM73.1918 8.684V12.248C73.1918 12.896 73.4958 13.22 74.1038 13.22C74.4158 13.22 74.6918 13.128 74.9318 12.944V13.844C74.6678 13.988 74.3718 14.06 74.0438 14.06C72.8438 14.06 72.2438 13.448 72.2438 12.224V8.684H71.2718V7.916H72.2438V6.404H73.1918V7.916H74.8718V8.684H73.1918ZM77.2495 5.516V8.972C77.6095 8.212 78.2495 7.832 79.1695 7.832C79.7535 7.832 80.2215 8.012 80.5735 8.372C80.9335 8.732 81.1135 9.22 81.1135 9.836V14H80.1655V10.064C80.1655 9.624 80.0495 9.284 79.8175 9.044C79.5935 8.804 79.2975 8.684 78.9295 8.684C78.4815 8.684 78.0895 8.856 77.7535 9.2C77.4175 9.544 77.2495 10.036 77.2495 10.676V14H76.3135V5.516H77.2495ZM88.6277 13.22C89.3797 13.22 90.0037 13.02 90.4997 12.62C90.2197 12.356 89.8917 12.052 89.5157 11.708C89.1397 11.356 88.8317 11.072 88.5917 10.856C88.3597 10.64 88.2037 10.492 88.1237 10.412C87.6117 10.604 87.2317 10.816 86.9837 11.048C86.7357 11.28 86.6117 11.556 86.6117 11.876C86.6117 12.284 86.7997 12.612 87.1757 12.86C87.5517 13.1 88.0357 13.22 88.6277 13.22ZM88.6637 6.584C88.3037 6.584 88.0037 6.688 87.7637 6.896C87.5317 7.096 87.4157 7.376 87.4157 7.736C87.4157 7.992 87.4877 8.248 87.6317 8.504C87.7837 8.752 88.0517 9.072 88.4357 9.464C88.9717 9.216 89.3597 8.964 89.5997 8.708C89.8477 8.444 89.9717 8.144 89.9717 7.808C89.9717 7.464 89.8597 7.176 89.6357 6.944C89.4117 6.704 89.0877 6.584 88.6637 6.584ZM93.2597 14H91.9757L91.1597 13.244C90.5117 13.812 89.6757 14.096 88.6517 14.096C87.7477 14.096 87.0157 13.892 86.4557 13.484C85.9037 13.068 85.6277 12.536 85.6277 11.888C85.6277 10.984 86.2597 10.292 87.5237 9.812C87.1477 9.404 86.8717 9.044 86.6957 8.732C86.5197 8.412 86.4317 8.076 86.4317 7.724C86.4317 7.124 86.6357 6.64 87.0437 6.272C87.4517 5.904 87.9957 5.72 88.6757 5.72C89.3557 5.72 89.9037 5.92 90.3197 6.32C90.7357 6.712 90.9437 7.204 90.9437 7.796C90.9437 8.252 90.7957 8.664 90.4997 9.032C90.2117 9.4 89.7237 9.744 89.0357 10.064L91.0637 11.96C91.2557 11.608 91.3677 11.216 91.3997 10.784H92.3117C92.2637 11.472 92.0717 12.072 91.7357 12.584L93.2597 14ZM102.911 6.236V7.232C102.559 7.048 102.243 6.916 101.963 6.836C101.683 6.756 101.315 6.716 100.859 6.716C99.9868 6.716 99.2588 7.012 98.6748 7.604C98.0988 8.196 97.8108 8.968 97.8108 9.92C97.8108 10.912 98.0988 11.704 98.6748 12.296C99.2508 12.888 100.015 13.184 100.967 13.184C101.735 13.184 102.391 12.98 102.935 12.572V13.592C102.439 13.928 101.759 14.096 100.895 14.096C99.6788 14.096 98.6908 13.724 97.9308 12.98C97.1708 12.228 96.7908 11.208 96.7908 9.92C96.7908 8.704 97.1748 7.716 97.9428 6.956C98.7188 6.188 99.6908 5.804 100.859 5.804C101.699 5.804 102.383 5.948 102.911 6.236ZM104.358 14V7.916H105.306V14H104.358ZM104.382 6.452C104.27 6.332 104.214 6.184 104.214 6.008C104.214 5.832 104.27 5.684 104.382 5.564C104.502 5.444 104.65 5.384 104.826 5.384C105.002 5.384 105.15 5.444 105.27 5.564C105.39 5.684 105.45 5.832 105.45 6.008C105.45 6.184 105.39 6.332 105.27 6.452C105.15 6.564 105.002 6.62 104.826 6.62C104.65 6.62 104.502 6.564 104.382 6.452ZM108.418 8.684V12.248C108.418 12.896 108.722 13.22 109.33 13.22C109.642 13.22 109.918 13.128 110.158 12.944V13.844C109.894 13.988 109.598 14.06 109.27 14.06C108.07 14.06 107.47 13.448 107.47 12.224V8.684H106.498V7.916H107.47V6.404H108.418V7.916H110.098V8.684H108.418ZM113.22 13.844L110.76 7.916H111.828L112.62 9.92L113.688 12.68C113.752 12.472 114.072 11.552 114.648 9.92L115.356 7.916H116.376L114.18 13.844C113.868 14.668 113.496 15.248 113.064 15.584C112.64 15.92 112.152 16.088 111.6 16.088C111.392 16.088 111.224 16.068 111.096 16.028V15.176C111.216 15.208 111.352 15.224 111.504 15.224C112.312 15.224 112.884 14.764 113.22 13.844Z" fill="#2F06A0"/>
</svg>
