<svg xmlns="http://www.w3.org/2000/svg" width="24" height="25" viewBox="0 0 24 25" fill="none"><path fill-rule="evenodd" clip-rule="evenodd" d="M11.093 3.84755C10.6316 4.14432 10.0779 4.60343 9.2472 5.29569L5.07944 8.76884C4.29997 9.4184 4.16673 9.5582 4.09441 9.71259C4.0221 9.86699 4 10.0588 4 11.0735V17C4 17.9711 4.00213 18.5988 4.06431 19.0613C4.12262 19.495 4.21677 19.631 4.2929 19.7071C4.36902 19.7832 4.50497 19.8774 4.93871 19.9357C5.40121 19.9979 6.02892 20 7 20H17C17.9711 20 18.5988 19.9979 19.0613 19.9357C19.495 19.8774 19.631 19.7832 19.7071 19.7071C19.7832 19.631 19.8774 19.495 19.9357 19.0613C19.9979 18.5988 20 17.9711 20 17V11.0735C20 10.0588 19.9779 9.86699 19.9056 9.71259C19.8333 9.5582 19.7 9.4184 18.9206 8.76884L14.7528 5.29569C13.9221 4.60343 13.3684 4.14432 12.907 3.84755C12.4689 3.56578 12.2157 3.4995 12 3.4995C11.7843 3.4995 11.5311 3.56578 11.093 3.84755ZM10.0112 2.16543C10.6241 1.7712 11.2563 1.4995 12 1.4995C12.7437 1.4995 13.3759 1.7712 13.9888 2.16543C14.5667 2.53707 15.215 3.07742 15.9859 3.71983L20.2009 7.2324C20.2414 7.26615 20.2817 7.29959 20.3217 7.33277C20.909 7.82055 21.4309 8.25393 21.7168 8.86429C22.0026 9.47465 22.0015 10.153 22.0002 10.9165C22.0001 10.9684 22 11.0208 22 11.0735L22 17.0658C22.0001 17.9523 22.0001 18.7161 21.9179 19.3278C21.8297 19.9833 21.631 20.6117 21.1213 21.1213C20.6117 21.631 19.9833 21.8297 19.3278 21.9179C18.7161 22.0001 17.9523 22.0001 17.0658 22H6.9342C6.0477 22.0001 5.28388 22.0001 4.67221 21.9179C4.01669 21.8297 3.38834 21.631 2.87868 21.1213C2.36902 20.6117 2.17027 19.9833 2.08214 19.3278C1.99991 18.7161 1.99995 17.9523 2 17.0658L2 11.0735C2 11.0208 1.99991 10.9684 1.99982 10.9165C1.99852 10.153 1.99735 9.47465 2.28323 8.86429C2.56911 8.25392 3.09097 7.82055 3.67835 7.33277C3.7183 7.29959 3.75856 7.26615 3.79907 7.2324L8.01411 3.71984C8.78495 3.07743 9.43332 2.53707 10.0112 2.16543Z" fill="black"></path><path fill-rule="evenodd" clip-rule="evenodd" d="M8 16C8 15.4477 8.44772 15 9 15H15C15.5523 15 16 15.4477 16 16C16 16.5523 15.5523 17 15 17H9C8.44772 17 8 16.5523 8 16Z" fill="black"></path></svg>