<svg xmlns="http://www.w3.org/2000/svg" width="50" height="50" viewBox="0 0 50 50" fill="none"><path fill-rule="evenodd" clip-rule="evenodd" d="M18.1853 18.1853C19.9926 16.3779 22.444 15.3625 25 15.3625C27.556 15.3625 30.0074 16.3779 31.8147 18.1853C33.6221 19.9926 34.6375 22.444 34.6375 25C34.6375 27.556 33.6221 30.0074 31.8147 31.8147C30.0074 33.6221 27.556 34.6375 25 34.6375C22.444 34.6375 19.9926 33.6221 18.1853 31.8147C16.3779 30.0074 15.3625 27.556 15.3625 25C15.3625 22.444 16.3779 19.9926 18.1853 18.1853ZM22.6058 30.78C23.3649 31.0944 24.1784 31.2563 25 31.2563C26.6593 31.2563 28.2506 30.5971 29.4238 29.4238C30.5971 28.2506 31.2562 26.6593 31.2562 25C31.2562 23.3407 30.5971 21.7494 29.4238 20.5762C28.2506 19.4029 26.6593 18.7438 25 18.7438C24.1784 18.7438 23.3649 18.9056 22.6058 19.22C21.8468 19.5344 21.1571 19.9952 20.5762 20.5762C19.9952 21.1571 19.5344 21.8468 19.22 22.6058C18.9056 23.3649 18.7437 24.1784 18.7437 25C18.7437 25.8216 18.9056 26.6351 19.22 27.3942C19.5344 28.1532 19.9952 28.8429 20.5762 29.4238C21.1571 30.0048 21.8468 30.4656 22.6058 30.78Z" fill="#F6ECE3"></path><path d="M36.774 16.7984C37.2012 16.3712 37.4412 15.7917 37.4412 15.1875C37.4412 14.5833 37.2012 14.0039 36.774 13.5766C36.3468 13.1494 35.7673 12.9094 35.1631 12.9094C34.5589 12.9094 33.9795 13.1494 33.5522 13.5766C33.125 14.0039 32.885 14.5833 32.885 15.1875C32.885 15.7917 33.125 16.3712 33.5522 16.7984C33.9795 17.2256 34.5589 17.4656 35.1631 17.4656C35.7673 17.4656 36.3468 17.2256 36.774 16.7984Z" fill="#F6ECE3"></path><path fill-rule="evenodd" clip-rule="evenodd" d="M17.27 6.3625C19.27 6.27125 19.9075 6.25 25 6.25C30.0938 6.25 30.73 6.2725 32.7288 6.3625C34.725 6.45375 36.09 6.7725 37.2825 7.23375C38.5331 7.70482 39.6661 8.44278 40.6025 9.39625C41.5563 10.3329 42.2943 11.4663 42.765 12.7175C43.2287 13.91 43.5462 15.2738 43.6375 17.27C43.7288 19.27 43.75 19.9075 43.75 25C43.75 30.0925 43.7288 30.73 43.6375 32.73C43.5462 34.7262 43.2287 36.09 42.7662 37.2825C42.2952 38.5331 41.5572 39.6661 40.6038 40.6025C39.6662 41.5575 38.5325 42.295 37.2825 42.765C36.09 43.2287 34.7262 43.5462 32.73 43.6375C30.73 43.7288 30.0925 43.75 25 43.75C19.9075 43.75 19.27 43.7288 17.27 43.6375C15.2738 43.5462 13.91 43.2287 12.7175 42.7662C11.4669 42.2951 10.3339 41.5572 9.3975 40.6038C8.4425 39.6662 7.705 38.5325 7.235 37.2825C6.77125 36.09 6.45375 34.7262 6.3625 32.73C6.27125 30.73 6.25 30.0938 6.25 25C6.25 19.9062 6.2725 19.27 6.3625 17.2712C6.45375 15.275 6.7725 13.91 7.23375 12.7175C7.70482 11.4669 8.44278 10.3339 9.39625 9.3975C10.3338 8.4425 11.4675 7.705 12.7175 7.235C13.91 6.77125 15.2738 6.45375 17.27 6.3625ZM32.5775 9.7375C30.6 9.6475 30.0063 9.62875 25 9.62875C19.9937 9.62875 19.4 9.6475 17.4225 9.7375C15.595 9.82125 14.6025 10.1262 13.9412 10.3837C13.1268 10.6837 12.3899 11.1626 11.785 11.785C11.13 12.4412 10.7225 13.0662 10.3837 13.9412C10.125 14.6025 9.82125 15.595 9.7375 17.4225C9.6475 19.4 9.62875 19.9937 9.62875 25C9.62875 30.0063 9.6475 30.6 9.7375 32.5775C9.82125 34.405 10.1262 35.3975 10.3837 36.0588C10.6839 36.8731 11.1627 37.6099 11.785 38.215C12.39 38.8373 13.1268 39.3162 13.9412 39.6162C14.6025 39.875 15.595 40.1787 17.4225 40.2625C19.4 40.3525 19.9925 40.3713 25 40.3713C30.0075 40.3713 30.6 40.3525 32.5775 40.2625C34.405 40.1787 35.3975 39.8737 36.0588 39.6162C36.8733 39.3163 37.6101 38.8375 38.215 38.215C38.8373 37.61 39.3162 36.8732 39.6162 36.0588C39.875 35.3975 40.1787 34.405 40.2625 32.5775C40.3525 30.6 40.3713 30.0063 40.3713 25C40.3713 19.9937 40.3525 19.4 40.2625 17.4225C40.1787 15.595 39.8737 14.6025 39.6162 13.9412C39.2775 13.0662 38.8713 12.4412 38.215 11.785C37.5588 11.13 36.9338 10.7225 36.0588 10.3837C35.3975 10.125 34.405 9.82125 32.5775 9.7375Z" fill="#F6ECE3"></path></svg>