<svg xmlns="http://www.w3.org/2000/svg" width="200" height="100" viewBox="0 0 200 100" fill="none"><mask id="mask0_129_91" style="mask-type:luminance" maskUnits="userSpaceOnUse" x="41" y="93" width="6" height="7"><path d="M41.811 93.4473H46.3651V100H41.811V93.4473Z" fill="white"></path></mask><g mask="url(#mask0_129_91)"><path d="M46.0173 93.5942H45.5073V97.4315C45.5073 98.6557 44.8807 99.3101 43.9438 99.3101C43.003 99.3101 42.3783 98.6557 42.3783 97.4315V93.5942H41.8704V97.4426C41.8704 98.9228 42.7401 99.8198 43.9438 99.8198C45.1476 99.8198 46.0173 98.9228 46.0173 97.4426V93.5942Z" fill="white"></path></g><mask id="mask1_129_91" style="mask-type:luminance" maskUnits="userSpaceOnUse" x="52" y="93" width="7" height="7"><path d="M52.9431 93.4473H58.0032V100H52.9431V93.4473Z" fill="white"></path></mask><g mask="url(#mask1_129_91)"><path d="M57.8016 93.5942H57.2758V98.3752L53.4511 93.5942H53.4373V99.7574H53.9531V94.9854L57.7779 99.7574H57.8016V93.5942Z" fill="white"></path></g><mask id="mask2_129_91" style="mask-type:luminance" maskUnits="userSpaceOnUse" x="64" y="93" width="2" height="7"><path d="M64.0754 93.4473H65.0875V100H64.0754V93.4473Z" fill="white"></path></mask><g mask="url(#mask2_129_91)"><path d="M64.0991 99.7574H64.6229V93.5942H64.0991V99.7574Z" fill="white"></path></g><mask id="mask3_129_91" style="mask-type:luminance" maskUnits="userSpaceOnUse" x="70" y="93" width="5" height="7"><path d="M70.1475 93.4473H74.7015V100H70.1475V93.4473Z" fill="white"></path></mask><g mask="url(#mask3_129_91)"><path d="M74.3279 93.5942H70.5427V94.1106H72.1754V99.7574H72.7091V94.1106H74.3279V93.5942Z" fill="white"></path></g><mask id="mask4_129_91" style="mask-type:luminance" maskUnits="userSpaceOnUse" x="80" y="93" width="5" height="7"><path d="M80.7737 93.4473H84.8218V100H80.7737V93.4473Z" fill="white"></path></mask><g mask="url(#mask4_129_91)"><path d="M81.594 99.2388V96.9218H83.6912V96.3943H81.594V94.1106H84.4719V93.5942H81.0603V99.7574H84.549V99.2388H81.594Z" fill="white"></path></g><mask id="mask5_129_91" style="mask-type:luminance" maskUnits="userSpaceOnUse" x="91" y="93" width="6" height="7"><path d="M91.3999 93.4473H96.46V100H91.3999V93.4473Z" fill="white"></path></mask><g mask="url(#mask5_129_91)"><path d="M93.2559 93.5942H91.7141V99.7574H93.2559C94.847 99.7574 95.9836 98.393 95.9836 96.6836C95.9836 94.9586 94.847 93.5942 93.2559 93.5942ZM93.2559 99.2455H92.2359V94.1039H93.2559C94.6217 94.1039 95.4756 95.2124 95.4756 96.6836C95.4756 98.1282 94.6217 99.2455 93.2559 99.2455Z" fill="white"></path></g><mask id="mask6_129_91" style="mask-type:luminance" maskUnits="userSpaceOnUse" x="109" y="93" width="6" height="7"><path d="M109.616 93.4473H114.676V100H109.616V93.4473Z" fill="white"></path></mask><g mask="url(#mask6_129_91)"><path d="M114.39 93.5942H113.739L110.549 97.4248V93.5942H110.017V99.7574H110.549V98.2016L111.589 96.9663L113.903 99.7574H114.554L111.903 96.579L114.39 93.5942Z" fill="white"></path></g><mask id="mask7_129_91" style="mask-type:luminance" maskUnits="userSpaceOnUse" x="120" y="93" width="2" height="7"><path d="M120.242 93.4473H121.254V100H120.242V93.4473Z" fill="white"></path></mask><g mask="url(#mask7_129_91)"><path d="M120.462 99.7574H120.985V93.5942H120.462V99.7574Z" fill="white"></path></g><mask id="mask8_129_91" style="mask-type:luminance" maskUnits="userSpaceOnUse" x="126" y="93" width="6" height="7"><path d="M126.82 93.4473H131.88V100H126.82V93.4473Z" fill="white"></path></mask><g mask="url(#mask8_129_91)"><path d="M131.651 93.5942H131.127V98.3752L127.303 93.5942H127.289V99.7574H127.805V94.9854L131.627 99.7574H131.651V93.5942Z" fill="white"></path></g><mask id="mask9_129_91" style="mask-type:luminance" maskUnits="userSpaceOnUse" x="138" y="93" width="7" height="7"><path d="M138.965 93.4473H144.531V100H138.965V93.4473Z" fill="white"></path></mask><g mask="url(#mask9_129_91)"><path d="M144.367 96.7304H142.499V97.2468H143.843C143.697 98.491 142.953 99.2656 141.872 99.2656C140.771 99.2656 139.666 98.2084 139.666 96.677C139.666 95.1434 140.74 94.0862 141.872 94.0862C142.592 94.0862 143.155 94.4379 143.461 94.8341L143.79 94.449C143.406 93.9527 142.726 93.532 141.872 93.532C140.449 93.532 139.119 94.8163 139.119 96.677C139.119 98.5333 140.481 99.8198 141.866 99.8198C143.335 99.8198 144.39 98.5956 144.367 96.7304Z" fill="white"></path></g><mask id="mask10_129_91" style="mask-type:luminance" maskUnits="userSpaceOnUse" x="151" y="93" width="6" height="7"><path d="M151.615 93.4473H156.169V100H151.615V93.4473Z" fill="white"></path></mask><g mask="url(#mask10_129_91)"><path d="M153.423 93.5942H151.884V99.7574H153.423C155.02 99.7574 156.153 98.393 156.153 96.6836C156.153 94.9586 155.02 93.5942 153.423 93.5942ZM153.423 99.2455H152.407V94.1039H153.423C154.793 94.1039 155.643 95.2124 155.643 96.6836C155.643 98.1282 154.793 99.2455 153.423 99.2455Z" fill="white"></path></g><mask id="mask11_129_91" style="mask-type:luminance" maskUnits="userSpaceOnUse" x="163" y="93" width="7" height="7"><path d="M163.253 93.4473H169.325V100H163.253V93.4473Z" fill="white"></path></mask><g mask="url(#mask11_129_91)"><path d="M166.339 93.532C164.994 93.532 163.609 94.8163 163.609 96.677C163.609 98.5333 164.994 99.8198 166.339 99.8198C167.724 99.8198 169.068 98.5333 169.068 96.677C169.068 94.8163 167.724 93.532 166.339 93.532ZM166.339 94.0862C167.489 94.0862 168.511 95.1345 168.511 96.677C168.511 98.2173 167.489 99.2656 166.339 99.2656C165.267 99.2656 164.166 98.2173 164.166 96.677C164.166 95.1345 165.267 94.0862 166.339 94.0862Z" fill="white"></path></g><mask id="mask12_129_91" style="mask-type:luminance" maskUnits="userSpaceOnUse" x="176" y="93" width="7" height="7"><path d="M176.915 93.4473H182.987V100H176.915V93.4473Z" fill="white"></path></mask><g mask="url(#mask12_129_91)"><path d="M182.728 93.5942H182.22L179.939 98.9294L177.645 93.5942H177.145V99.7574H177.66V94.8852L179.734 99.7574H180.141L182.215 94.8852V99.7574H182.728V93.5942Z" fill="white"></path></g><mask id="mask13_129_91" style="mask-type:luminance" maskUnits="userSpaceOnUse" x="24" y="64" width="31" height="21"><path d="M24.668 64.9573H54.4612V84.3305H24.668V64.9573Z" fill="white"></path></mask><g mask="url(#mask13_129_91)"><path d="M24.6838 74.606C24.6838 79.8299 28.7062 83.932 33.3927 83.932H54.2399V81.0296H33.3927C29.9831 81.0296 27.4036 77.9357 27.4036 74.606C27.4274 74.2075 27.4511 73.9137 27.5242 73.6199L27.5934 73.2482C28.1864 70.3436 30.6453 68.238 33.2247 68.238C33.2722 68.238 33.3216 68.238 33.369 68.238H54.2162V65.3066H33.369C28.7537 65.3066 24.6838 69.3821 24.6838 74.606Z" fill="white"></path></g><path d="M61.2962 81.0563V65.3066H58.5962V83.9609H82.6889V81.0563H61.2962Z" fill="white"></path><path d="M87.0474 83.9609H89.7672V65.3066H87.0474V83.9609Z" fill="white"></path><path d="M95.0742 83.8275H97.794V69.8385C120.345 81.6707 123.919 83.6428 124.51 83.9054L124.607 83.9611V65.3068H121.907V79.2958L95.0742 65.2021V83.8275Z" fill="white"></path><path d="M129.91 83.9609H132.63V65.3066H129.91V83.9609Z" fill="white"></path><path d="M137.225 74.606C137.225 79.8299 141.248 83.932 145.934 83.932H166.783V81.0296H145.934C142.529 81.0296 139.949 77.9357 139.949 74.606C139.971 74.2075 139.995 73.9137 140.066 73.6199L140.135 73.2482C140.728 70.3436 143.191 68.238 145.77 68.238C145.816 68.238 145.863 68.238 145.911 68.238H166.758V65.3066H145.911C141.295 65.3066 137.225 69.3821 137.225 74.606Z" fill="white"></path><mask id="mask14_129_91" style="mask-type:luminance" maskUnits="userSpaceOnUse" x="170" y="64" width="30" height="21"><path d="M170.337 64.9573H200V84.3305H170.337V64.9573Z" fill="white"></path></mask><g mask="url(#mask14_129_91)"><path d="M170.43 83.9053H194.9C197.668 83.9053 199.915 81.4547 199.915 78.4966C199.915 75.5141 197.456 73.1169 194.922 73.1169H175.423C174.146 73.1169 173.13 71.9951 173.13 70.6374C173.13 69.224 174.194 68.238 175.306 68.238C175.352 68.238 175.399 68.238 175.449 68.238H199.915V65.3066H175.449C172.822 65.3066 170.454 67.6526 170.454 70.6374V70.742C170.454 73.8091 172.94 76.0728 175.399 76.0728H194.946C196.177 76.0728 197.195 77.1389 197.195 78.5233C197.195 79.8833 196.177 81.0029 194.9 81.0029H170.43V83.9053Z" fill="white"></path></g><mask id="mask15_129_91" style="mask-type:luminance" maskUnits="userSpaceOnUse" x="0" y="0" width="50" height="100"><path d="M0 0H49.0829V100H0V0Z" fill="white"></path></mask><g mask="url(#mask15_129_91)"><path d="M48.4939 48.3397C47.4858 47.4894 47.4028 47.5295 36.2943 53.775C18.0425 64.0359 12.5831 66.6423 9.80993 66.4063C6.91421 66.1593 7.3708 60.8686 10.8555 54.2602C12.419 51.2955 15.459 46.5679 25.2076 31.9312C35.0649 17.1386 39.9135 8.88988 40.0637 6.67077C40.1191 5.80717 40.0321 5.57346 39.5755 5.40207C38.5635 5.01924 38.0318 5.34865 37.508 6.6819C36.4762 9.29942 31.6493 16.9049 21.7545 31.4994C10.6184 47.9279 7.92821 52.3327 6.1552 57.0625L5.20643 59.591L5.32898 55.3331C5.51083 49.092 6.48924 35.1786 7.07827 30.5356C8.29981 20.8468 9.52727 14.2273 11.5889 6.14103C12.8855 1.05957 12.8993 0.970539 12.4645 0.545414C11.9387 0.033484 10.1934 -0.177966 9.52134 0.189289C7.91239 1.0618 4.7696 13.0565 2.93928 25.3028C2.68232 27.0211 2.0676 29.6587 1.5438 31.2746C-0.179794 36.6009 -0.207466 36.937 1.03186 37.0394C1.56356 37.0861 1.56949 37.1974 1.41137 42.0385C0.875709 58.4937 0.966632 79.5897 1.62286 89.9841C2.06957 97.1222 2.43327 98.6312 3.85049 99.2901C4.86448 99.7597 5.82511 99.6596 6.0702 99.0608C6.16113 98.836 6.10776 97.4939 5.94766 96.0493C5.5978 92.8576 5.3527 88.1122 5.24201 82.294C5.14516 77.3483 5.10958 67.3746 5.18271 66.2661L5.23213 65.5138L5.87452 66.3552C7.85705 68.946 12.3044 68.5765 19.3569 65.2356C22.6499 63.6775 47.6578 49.7196 48.4504 48.9985C48.7963 48.6869 48.8022 48.5956 48.4939 48.3397Z" fill="#F6ECE3"></path></g></svg>