<svg xmlns="http://www.w3.org/2000/svg" width="531" height="94" viewBox="0 0 531 94" fill="none"><mask id="mask0_40_182" style="mask-type:luminance" maskUnits="userSpaceOnUse" x="52" y="76" width="15" height="18"><path d="M52.6104 76.4229H66.3664V94.0001H52.6104V76.4229Z" fill="white"></path></mask><g mask="url(#mask0_40_182)"><path d="M65.3157 76.8169H63.7753V87.1101C63.7753 90.3939 61.8827 92.1492 59.0526 92.1492C56.2107 92.1492 54.324 90.3939 54.324 87.1101V76.8169H52.7896V87.1399C52.7896 91.1103 55.4166 93.5164 59.0526 93.5164C62.6887 93.5164 65.3157 91.1103 65.3157 87.1399V76.8169Z" fill="#91766D"></path></g><mask id="mask1_40_182" style="mask-type:luminance" maskUnits="userSpaceOnUse" x="86" y="76" width="16" height="18"><path d="M86.2363 76.4229H101.521V94.0001H86.2363V76.4229Z" fill="white"></path></mask><g mask="url(#mask1_40_182)"><path d="M100.912 76.8169H99.3238V89.6416L87.7708 76.8169H87.729V93.3493H89.2873V80.5485L100.84 93.3493H100.912V76.8169Z" fill="#91766D"></path></g><mask id="mask2_40_182" style="mask-type:luminance" maskUnits="userSpaceOnUse" x="119" y="76" width="4" height="18"><path d="M119.863 76.4229H122.919V94.0001H119.863V76.4229Z" fill="white"></path></mask><g mask="url(#mask2_40_182)"><path d="M119.934 93.3493H121.516V76.8169H119.934V93.3493Z" fill="#91766D"></path></g><mask id="mask3_40_182" style="mask-type:luminance" maskUnits="userSpaceOnUse" x="138" y="76" width="14" height="18"><path d="M138.204 76.4229H151.96V94.0001H138.204V76.4229Z" fill="white"></path></mask><g mask="url(#mask3_40_182)"><path d="M150.832 76.8169H139.398V78.2021H144.33V93.3493H145.942V78.2021H150.832V76.8169Z" fill="#91766D"></path></g><mask id="mask4_40_182" style="mask-type:luminance" maskUnits="userSpaceOnUse" x="170" y="76" width="13" height="18"><path d="M170.302 76.4229H182.529V94.0001H170.302V76.4229Z" fill="white"></path></mask><g mask="url(#mask4_40_182)"><path d="M172.779 91.9581V85.7428H179.114V84.3278H172.779V78.2021H181.472V76.8169H171.167V93.3493H181.705V91.9581H172.779Z" fill="#91766D"></path></g><mask id="mask5_40_182" style="mask-type:luminance" maskUnits="userSpaceOnUse" x="202" y="76" width="16" height="18"><path d="M202.399 76.4229H217.683V94.0001H202.399V76.4229Z" fill="white"></path></mask><g mask="url(#mask5_40_182)"><path d="M208.005 76.8169H203.348V93.3493H208.005C212.812 93.3493 216.245 89.6893 216.245 85.104C216.245 80.4768 212.812 76.8169 208.005 76.8169ZM208.005 91.9761H204.925V78.1841H208.005C212.131 78.1841 214.71 81.1575 214.71 85.104C214.71 88.9788 212.131 91.9761 208.005 91.9761Z" fill="#91766D"></path></g><mask id="mask6_40_182" style="mask-type:luminance" maskUnits="userSpaceOnUse" x="257" y="76" width="16" height="18"><path d="M257.423 76.4229H272.708V94.0001H257.423V76.4229Z" fill="white"></path></mask><g mask="url(#mask6_40_182)"><path d="M271.842 76.8169H269.878L260.242 87.0922V76.8169H258.635V93.3493H260.242V89.1759L263.382 85.8622L270.374 93.3493H272.338L264.331 84.8234L271.842 76.8169Z" fill="#91766D"></path></g><mask id="mask7_40_182" style="mask-type:luminance" maskUnits="userSpaceOnUse" x="289" y="76" width="4" height="18"><path d="M289.521 76.4229H292.578V94.0001H289.521V76.4229Z" fill="white"></path></mask><g mask="url(#mask7_40_182)"><path d="M290.184 93.3493H291.766V76.8169H290.184V93.3493Z" fill="#91766D"></path></g><mask id="mask8_40_182" style="mask-type:luminance" maskUnits="userSpaceOnUse" x="309" y="76" width="16" height="18"><path d="M309.391 76.4229H324.675V94.0001H309.391V76.4229Z" fill="white"></path></mask><g mask="url(#mask8_40_182)"><path d="M323.983 76.8169H322.4V89.6416L310.847 76.8169H310.806V93.3493H312.364V80.5485L323.911 93.3493H323.983V76.8169Z" fill="#91766D"></path></g><mask id="mask9_40_182" style="mask-type:luminance" maskUnits="userSpaceOnUse" x="346" y="76" width="17" height="18"><path d="M346.073 76.4229H362.886V94.0001H346.073V76.4229Z" fill="white"></path></mask><g mask="url(#mask9_40_182)"><path d="M362.391 85.2293H356.749V86.6145H360.809C360.367 89.952 358.122 92.0297 354.856 92.0297C351.531 92.0297 348.193 89.1937 348.193 85.086C348.193 80.9723 351.435 78.1363 354.856 78.1363C357.03 78.1363 358.731 79.0797 359.657 80.1424L360.648 79.1095C359.489 77.7781 357.436 76.6497 354.856 76.6497C350.557 76.6497 346.539 80.0946 346.539 85.086C346.539 90.0654 350.653 93.5164 354.838 93.5164C359.274 93.5164 362.463 90.2326 362.391 85.2293Z" fill="#91766D"></path></g><mask id="mask10_40_182" style="mask-type:luminance" maskUnits="userSpaceOnUse" x="384" y="76" width="15" height="18"><path d="M384.285 76.4229H398.041V94.0001H384.285V76.4229Z" fill="white"></path></mask><g mask="url(#mask10_40_182)"><path d="M389.748 76.8169H385.097V93.3493H389.748C394.572 93.3493 397.993 89.6893 397.993 85.104C397.993 80.4768 394.572 76.8169 389.748 76.8169ZM389.748 91.9761H386.679V78.1841H389.748C393.885 78.1841 396.453 81.1575 396.453 85.104C396.453 88.9788 393.885 91.9761 389.748 91.9761Z" fill="#91766D"></path></g><mask id="mask11_40_182" style="mask-type:luminance" maskUnits="userSpaceOnUse" x="419" y="76" width="19" height="18"><path d="M419.439 76.4229H437.781V94.0001H419.439V76.4229Z" fill="white"></path></mask><g mask="url(#mask11_40_182)"><path d="M428.759 76.6497C424.699 76.6497 420.514 80.0946 420.514 85.086C420.514 90.0654 424.699 93.5164 428.759 93.5164C432.945 93.5164 437.005 90.0654 437.005 85.086C437.005 80.0946 432.945 76.6497 428.759 76.6497ZM428.759 78.1363C432.234 78.1363 435.321 80.9484 435.321 85.086C435.321 89.2176 432.234 92.0297 428.759 92.0297C425.523 92.0297 422.198 89.2176 422.198 85.086C422.198 80.9484 425.523 78.1363 428.759 78.1363Z" fill="#91766D"></path></g><mask id="mask12_40_182" style="mask-type:luminance" maskUnits="userSpaceOnUse" x="460" y="76" width="20" height="18"><path d="M460.708 76.4229H479.049V94.0001H460.708V76.4229Z" fill="white"></path></mask><g mask="url(#mask12_40_182)"><path d="M478.267 76.8169H476.733L469.843 91.1282L462.911 76.8169H461.4V93.3493H462.959V80.2798L469.222 93.3493H470.452L476.715 80.2798V93.3493H478.267V76.8169Z" fill="#91766D"></path></g><mask id="mask13_40_182" style="mask-type:luminance" maskUnits="userSpaceOnUse" x="0" y="0" width="91" height="52"><path d="M0.828125 0H90.8218V51.9674H0.828125V0Z" fill="white"></path></mask><g mask="url(#mask13_40_182)"><path d="M0.875977 25.8821C0.875977 39.8949 13.026 50.8986 27.1821 50.8986H90.1532V43.113H27.1821C16.8829 43.113 9.09142 34.814 9.09142 25.8821C9.16306 24.8134 9.23471 24.0253 9.45562 23.2372L9.66459 22.2401C11.4557 14.4485 18.8831 8.80043 26.6746 8.80043C26.8179 8.80043 26.9672 8.80043 27.1105 8.80043H90.0816V0.937256H27.1105C13.1693 0.937256 0.875977 11.8693 0.875977 25.8821Z" fill="#91766D"></path></g><path d="M111.468 43.1847V0.937256H103.312V50.9762H176.087V43.1847H111.468Z" fill="#91766D"></path><path d="M189.252 50.9762H197.467V0.937256H189.252V50.9762Z" fill="#91766D"></path><path d="M213.498 50.6181H221.713V13.0933C289.831 44.8326 300.626 50.1225 302.411 50.827L302.704 50.9763V0.937353H294.548V38.4621L213.498 0.656738V50.6181Z" fill="#91766D"></path><path d="M318.723 50.9762H326.938V0.937256H318.723V50.9762Z" fill="#91766D"></path><path d="M340.82 25.8821C340.82 39.8949 352.97 50.8986 367.126 50.8986H430.103V43.113H367.126C356.838 43.113 349.047 34.814 349.047 25.8821C349.113 24.8134 349.184 24.0253 349.399 23.2372L349.608 22.2401C351.399 14.4485 358.839 8.80043 366.63 8.80043C366.767 8.80043 366.911 8.80043 367.054 8.80043H430.025V0.937256H367.054C353.113 0.937256 340.82 11.8693 340.82 25.8821Z" fill="#91766D"></path><mask id="mask14_40_182" style="mask-type:luminance" maskUnits="userSpaceOnUse" x="440" y="0" width="91" height="52"><path d="M440.838 0H530.438V51.9674H440.838V0Z" fill="white"></path></mask><g mask="url(#mask14_40_182)"><path d="M441.118 50.8269H515.033C523.392 50.8269 530.181 44.2534 530.181 36.3186C530.181 28.3181 522.753 21.8878 515.099 21.8878H456.2C452.343 21.8878 449.274 18.8787 449.274 15.2367C449.274 11.4454 452.486 8.80043 455.848 8.80043C455.985 8.80043 456.128 8.80043 456.278 8.80043H530.181V0.937256H456.278C448.343 0.937256 441.19 7.23019 441.19 15.2367V15.5173C441.19 23.7447 448.701 29.8167 456.128 29.8167H515.171C518.89 29.8167 521.965 32.6766 521.965 36.3902C521.965 40.0382 518.89 43.0414 515.033 43.0414H441.118V50.8269Z" fill="#91766D"></path></g></svg>