<svg xmlns="http://www.w3.org/2000/svg" width="92" height="95" viewBox="0 0 92 95" fill="none"><mask id="mask0_48_54" style="mask-type:luminance" maskUnits="userSpaceOnUse" x="0" y="0" width="92" height="95"><path d="M92 0H0V95H92V0Z" fill="black" fill-opacity="0.65"></path></mask><g mask="url(#mask0_48_54)"><mask id="mask1_48_54" style="mask-type:luminance" maskUnits="userSpaceOnUse" x="19" y="10" width="50" height="72"><path d="M69 10.0278H19.9333V81.8056H69V10.0278Z" fill="white"></path></mask><g mask="url(#mask1_48_54)"><mask id="mask2_48_54" style="mask-type:luminance" maskUnits="userSpaceOnUse" x="20" y="10" width="49" height="72"><path d="M20.6641 10.737H68.1974V81.1953H20.6641V10.737Z" fill="white"></path></mask><g mask="url(#mask2_48_54)"><path d="M51.738 40.775C53.2913 39.6905 54.8127 38.5154 56.2022 37.2207C60.4229 33.2706 63.3538 28.4918 64.5397 22.6903C64.8312 21.2554 64.951 19.7834 65.1227 18.3073H68.2173V10.7329H20.7239V18.3073H23.8186C23.9943 24.5417 26.2823 29.9102 30.1875 34.6189C32.2479 37.1053 34.6917 39.138 37.3271 40.944C39.7069 42.5727 40.5774 45.5044 39.5552 48.201C39.0401 49.5616 38.0778 50.5059 36.9118 51.3017C31.3894 55.0703 27.2087 59.9729 25.0285 66.5165C24.2698 68.809 23.8824 71.1717 23.8186 73.5797H20.676V81.1541H68.1694V73.5797H65.0509C64.963 70.582 64.364 67.6793 63.238 64.8961C60.8581 59.0245 56.8411 54.6044 51.742 51.145C47.9246 48.5556 47.9486 43.4262 51.738 40.775ZM46.5989 45.7682C46.5311 48.8524 47.7969 51.2934 50.2805 53.0004C52.8361 54.7528 55.196 56.732 57.1765 59.1647C60.5227 63.2797 62.4594 67.9885 62.7469 73.3776C62.7509 73.4436 62.7509 73.5137 62.7509 73.5797H26.1026C26.1944 72.5241 26.2663 71.4603 26.458 70.4212C27.8595 62.8592 32.18 57.3958 38.2654 53.2437C40.797 51.5202 42.2425 49.1741 42.2625 46.0239C42.2864 42.9397 40.9568 40.5441 38.4651 38.8494C36.4087 37.4475 34.48 35.8889 32.787 34.0334C29.2531 30.1782 26.9651 25.6838 26.2743 20.3937C26.1944 19.7834 26.1625 19.1691 26.1226 18.5547C26.1186 18.4722 26.1186 18.3856 26.1186 18.3032H62.7748C62.675 19.3917 62.5991 20.4638 62.4035 21.5152C61.0219 29.0278 56.7533 34.4787 50.7158 38.602C48.1962 40.3379 46.6708 42.6139 46.5989 45.7682Z" fill="black"></path></g><path d="M58.1389 27.1393C48.9589 27.1393 39.8827 27.1393 30.7985 27.1393C30.8104 27.2342 30.8064 27.2878 30.8264 27.329C30.9222 27.5269 31.0221 27.7248 31.1299 27.9104C33.2702 31.6873 36.265 34.5942 39.7948 36.9568C41.9151 38.3752 43.3407 40.3503 44.0993 42.8283C44.2032 43.1623 44.283 43.5087 44.4028 43.9416C44.4907 43.7891 44.5386 43.7396 44.5505 43.6777C45.2174 40.643 46.9384 38.4329 49.4141 36.6806C51.1511 35.4477 52.7722 34.0087 54.3136 32.5202C55.8828 31.0069 57.1167 29.1886 58.1389 27.1393Z" fill="black"></path><path d="M44.4227 60.2327C43.7599 61.6304 42.6698 62.4345 41.42 63.02C40.6174 63.3952 39.7788 63.6756 38.9483 63.9683C36.0693 64.9868 33.2901 66.1908 30.9462 68.2565C29.8481 69.2255 28.9536 70.3553 28.5424 71.8891C39.1719 71.8891 49.7255 71.8891 60.3231 71.8891C59.8639 70.2233 58.8576 69.0276 57.6398 68.0133C55.2319 66.0011 52.4168 64.8177 49.5059 63.8281C47.5054 63.1478 45.5488 62.3891 44.4227 60.2327Z" fill="black"></path><path d="M42.6019 55.5445C42.6019 55.5445 44.3069 58.0886 46.3634 55.5445C46.3634 55.5445 47.8009 53.6684 44.4826 49.64C44.4826 49.6441 41.2483 53.3344 42.6019 55.5445Z" fill="black"></path></g></g></svg>