<svg xmlns="http://www.w3.org/2000/svg" width="92" height="87" viewBox="0 0 92 87" fill="none"><mask id="mask0_48_33" style="mask-type:luminance" maskUnits="userSpaceOnUse" x="0" y="0" width="92" height="87"><path d="M92 0H0V87H92V0Z" fill="black" fill-opacity="0.65"></path></mask><g mask="url(#mask0_48_33)"><mask id="mask1_48_33" style="mask-type:luminance" maskUnits="userSpaceOnUse" x="14" y="11" width="66" height="66"><path d="M79.2222 11.1167H14.8222V76.85H79.2222V11.1167Z" fill="white"></path></mask><g mask="url(#mask1_48_33)"><path d="M27.3165 47.3289C27.4323 52.8872 27.9314 56.2555 28.8698 61.7572C29.3649 64.6836 29.9639 67.6176 31.2057 70.3703C31.9125 71.9298 32.9627 74.6146 34.9153 75.2716C38.8484 76.5932 39.9545 71.0689 40.3698 68.5805C41.2203 63.4942 40.6653 60.5337 42.3823 55.5569C43.0491 53.6311 44.846 52.0188 46.7547 51.8904C48.6634 52.0188 50.4603 53.6311 51.1271 55.5569C52.8441 60.5337 52.2891 63.4942 53.1396 68.5805C53.5549 71.0689 54.6649 76.5932 58.5941 75.2716C60.5467 74.6146 61.5969 71.9298 62.3037 70.3703C63.5455 67.6176 64.1445 64.6836 64.6436 61.7572C65.578 56.2555 66.0771 52.8872 66.1929 47.3289C66.3566 47.2194 66.4964 47.0608 66.5762 46.8456C69.9783 37.7718 78.1481 21.7576 66.8478 14.2432C64.1884 12.4723 60.6505 12.0645 57.3802 12.4949C53.0238 13.0727 50.2486 14.3188 46.7547 14.5227C43.2608 14.3188 40.4856 13.0727 36.1292 12.4949C32.8589 12.0645 29.325 12.4723 26.6616 14.2432C15.3613 21.7576 23.5311 37.7718 26.9332 46.8456C27.017 47.0608 27.1528 47.2194 27.3165 47.3289Z" fill="black"></path></g></g></svg>