<svg width="86" height="20" viewBox="0 0 86 20" fill="none" xmlns="http://www.w3.org/2000/svg">
<rect width="86" height="20" fill="#FFFFFF"/>
<rect x="2" y="3" width="80" height="15" rx="7" fill="#7C1A62"/>
<path d="M10.84 14L11.428 5.912H12.664L13.732 8.864L15.028 12.632C15.492 11.32 15.948 10.064 16.396 8.864L17.512 5.912H18.748L19.456 14H18.484L18.208 10.808L17.92 7.22C17.496 8.404 17.06 9.6 16.612 10.808L15.484 13.82H14.56L13.492 10.808L12.268 7.292C12.268 7.604 12.192 8.776 12.04 10.808L11.812 14H10.84ZM25.0411 10.568V10.328C25.0411 9.824 24.9051 9.424 24.6331 9.128C24.3611 8.824 23.9851 8.672 23.5051 8.672C23.0491 8.672 22.6611 8.836 22.3411 9.164C22.0211 9.492 21.8331 9.96 21.7771 10.568H25.0411ZM25.6051 12.8V13.688C25.1331 13.936 24.5571 14.06 23.8771 14.06C22.9571 14.06 22.2131 13.78 21.6451 13.22C21.0851 12.652 20.8051 11.904 20.8051 10.976C20.8051 10.008 21.0571 9.244 21.5611 8.684C22.0651 8.124 22.7131 7.844 23.5051 7.844C24.2651 7.844 24.8691 8.088 25.3171 8.576C25.7651 9.064 25.9891 9.756 25.9891 10.652C25.9891 10.908 25.9691 11.144 25.9291 11.36H21.7771C21.8491 11.96 22.0771 12.42 22.4611 12.74C22.8451 13.06 23.3491 13.22 23.9731 13.22C24.6531 13.22 25.1971 13.08 25.6051 12.8ZM28.7426 8.684V12.248C28.7426 12.896 29.0466 13.22 29.6546 13.22C29.9666 13.22 30.2426 13.128 30.4826 12.944V13.844C30.2186 13.988 29.9226 14.06 29.5946 14.06C28.3946 14.06 27.7946 13.448 27.7946 12.224V8.684H26.8226V7.916H27.7946V6.404H28.7426V7.916H30.4226V8.684H28.7426ZM32.8003 7.916V8.984C33.1203 8.232 33.6723 7.856 34.4563 7.856C34.6003 7.856 34.7123 7.864 34.7923 7.88V8.816C34.6243 8.76 34.4523 8.732 34.2763 8.732C33.8523 8.732 33.5003 8.928 33.2203 9.32C32.9403 9.712 32.8003 10.164 32.8003 10.676V14H31.8523L31.8643 7.916H32.8003ZM38.2503 14.108C37.3783 14.108 36.6863 13.816 36.1743 13.232C35.6703 12.64 35.4183 11.896 35.4183 11C35.4183 10.096 35.6783 9.344 36.1983 8.744C36.7263 8.136 37.4103 7.832 38.2503 7.832C39.1703 7.832 39.8783 8.128 40.3743 8.72C40.8783 9.312 41.1303 10.064 41.1303 10.976C41.1303 11.88 40.8743 12.628 40.3623 13.22C39.8503 13.812 39.1463 14.108 38.2503 14.108ZM38.2503 8.672C37.6743 8.672 37.2223 8.896 36.8943 9.344C36.5663 9.792 36.4023 10.34 36.4023 10.988C36.4023 11.62 36.5703 12.16 36.9063 12.608C37.2423 13.048 37.6903 13.268 38.2503 13.268C38.8583 13.268 39.3263 13.052 39.6543 12.62C39.9823 12.18 40.1463 11.636 40.1463 10.988C40.1463 10.316 39.9903 9.764 39.6783 9.332C39.3663 8.892 38.8903 8.672 38.2503 8.672ZM45.1926 13.232C45.7046 13.232 46.1246 13.032 46.4526 12.632C46.7806 12.224 46.9446 11.648 46.9446 10.904C46.9446 10.24 46.7846 9.704 46.4646 9.296C46.1446 8.888 45.7406 8.684 45.2526 8.684C44.7646 8.684 44.3406 8.864 43.9806 9.224C43.6286 9.576 43.4526 10.156 43.4526 10.964C43.4526 11.74 43.6326 12.312 43.9926 12.68C44.3526 13.048 44.7526 13.232 45.1926 13.232ZM43.4526 7.916V8.84C43.8766 8.16 44.5046 7.82 45.3366 7.82C46.1446 7.82 46.7766 8.116 47.2326 8.708C47.6966 9.292 47.9286 10.024 47.9286 10.904C47.9286 11.84 47.6846 12.608 47.1966 13.208C46.7166 13.8 46.0886 14.096 45.3126 14.096C44.5126 14.096 43.8926 13.756 43.4526 13.076V16.364H42.5166V7.916H43.4526ZM51.7972 14.108C50.9252 14.108 50.2332 13.816 49.7212 13.232C49.2172 12.64 48.9652 11.896 48.9652 11C48.9652 10.096 49.2252 9.344 49.7452 8.744C50.2732 8.136 50.9572 7.832 51.7972 7.832C52.7172 7.832 53.4252 8.128 53.9212 8.72C54.4252 9.312 54.6772 10.064 54.6772 10.976C54.6772 11.88 54.4212 12.628 53.9092 13.22C53.3972 13.812 52.6932 14.108 51.7972 14.108ZM51.7972 8.672C51.2212 8.672 50.7692 8.896 50.4412 9.344C50.1132 9.792 49.9492 10.34 49.9492 10.988C49.9492 11.62 50.1172 12.16 50.4532 12.608C50.7892 13.048 51.2372 13.268 51.7972 13.268C52.4052 13.268 52.8732 13.052 53.2012 12.62C53.5292 12.18 53.6932 11.636 53.6932 10.988C53.6932 10.316 53.5372 9.764 53.2252 9.332C52.9132 8.892 52.4372 8.672 51.7972 8.672ZM56.1115 14V5.516H57.0595V14H56.1115ZM58.9123 14V7.916H59.8603V14H58.9123ZM58.9363 6.452C58.8243 6.332 58.7683 6.184 58.7683 6.008C58.7683 5.832 58.8243 5.684 58.9363 5.564C59.0563 5.444 59.2043 5.384 59.3803 5.384C59.5563 5.384 59.7043 5.444 59.8243 5.564C59.9443 5.684 60.0043 5.832 60.0043 6.008C60.0043 6.184 59.9443 6.332 59.8243 6.452C59.7043 6.564 59.5563 6.62 59.3803 6.62C59.2043 6.62 59.0563 6.564 58.9363 6.452ZM62.9731 8.684V12.248C62.9731 12.896 63.2771 13.22 63.8851 13.22C64.1971 13.22 64.4731 13.128 64.7131 12.944V13.844C64.4491 13.988 64.1531 14.06 63.8251 14.06C62.6251 14.06 62.0251 13.448 62.0251 12.224V8.684H61.0531V7.916H62.0251V6.404H62.9731V7.916H64.6531V8.684H62.9731ZM69.3708 11.192H68.3148C67.8028 11.192 67.4188 11.292 67.1628 11.492C66.9068 11.692 66.7788 11.944 66.7788 12.248C66.7788 12.552 66.8788 12.8 67.0788 12.992C67.2788 13.176 67.5708 13.268 67.9548 13.268C68.3868 13.268 68.7308 13.148 68.9868 12.908C69.2428 12.66 69.3708 12.348 69.3708 11.972V11.192ZM66.2268 9.188V8.24C66.6828 7.96 67.2828 7.82 68.0268 7.82C69.5548 7.82 70.3188 8.596 70.3188 10.148V14H69.3828V13.28C69.0708 13.8 68.5028 14.06 67.6788 14.06C67.1108 14.06 66.6508 13.892 66.2988 13.556C65.9548 13.22 65.7828 12.796 65.7828 12.284C65.7828 11.7 66.0028 11.248 66.4428 10.928C66.8908 10.6 67.4988 10.436 68.2668 10.436H69.3708V10.124C69.3708 9.644 69.2628 9.284 69.0468 9.044C68.8308 8.796 68.4668 8.672 67.9548 8.672C67.3068 8.672 66.7308 8.844 66.2268 9.188ZM72.937 7.916V8.972C73.297 8.212 73.937 7.832 74.857 7.832C75.449 7.832 75.921 8.012 76.273 8.372C76.625 8.732 76.801 9.212 76.801 9.812V14H75.853V10.064C75.853 9.616 75.737 9.276 75.505 9.044C75.281 8.804 74.985 8.684 74.617 8.684C74.161 8.684 73.765 8.86 73.429 9.212C73.101 9.564 72.937 10.052 72.937 10.676V14H72.001V7.916H72.937Z" fill="white"/>
</svg>
