<svg width="40" height="40" viewBox="0 0 40 40" fill="none" xmlns="http://www.w3.org/2000/svg">
<g filter="url(#filter0_d_1739_8883)">
<rect x="2" y="1" width="36" height="36" rx="18" fill="white"/>
<rect x="2.5" y="1.5" width="35" height="35" rx="17.5" stroke="#E5E7EB"/>
<path fill-rule="evenodd" clip-rule="evenodd" d="M17.2928 23.7069C17.1053 23.5194 17 23.2651 17 22.9999C17 22.7348 17.1053 22.4804 17.2928 22.2929L20.5858 18.9999L17.2928 15.7069C17.1106 15.5183 17.0098 15.2657 17.0121 15.0035C17.0144 14.7413 17.1196 14.4905 17.305 14.3051C17.4904 14.1197 17.7412 14.0145 18.0034 14.0122C18.2656 14.01 18.5182 14.1108 18.7068 14.2929L22.7068 18.2929C22.8943 18.4804 22.9996 18.7348 22.9996 18.9999C22.9996 19.2651 22.8943 19.5194 22.7068 19.7069L18.7068 23.7069C18.5193 23.8944 18.265 23.9997 17.9998 23.9997C17.7346 23.9997 17.4803 23.8944 17.2928 23.7069Z" fill="#374151"/>
</g>
<defs>
<filter id="filter0_d_1739_8883" x="0" y="0" width="40" height="40" filterUnits="userSpaceOnUse" color-interpolation-filters="sRGB">
<feFlood flood-opacity="0" result="BackgroundImageFix"/>
<feColorMatrix in="SourceAlpha" type="matrix" values="0 0 0 0 0 0 0 0 0 0 0 0 0 0 0 0 0 0 127 0" result="hardAlpha"/>
<feOffset dy="1"/>
<feGaussianBlur stdDeviation="1"/>
<feColorMatrix type="matrix" values="0 0 0 0 0.121569 0 0 0 0 0.160784 0 0 0 0 0.215686 0 0 0 0.08 0"/>
<feBlend mode="normal" in2="BackgroundImageFix" result="effect1_dropShadow_1739_8883"/>
<feBlend mode="normal" in="SourceGraphic" in2="effect1_dropShadow_1739_8883" result="shape"/>
</filter>
</defs>
</svg>
