<svg width="68" height="20" viewBox="0 0 68 20" fill="none" xmlns="http://www.w3.org/2000/svg">
<rect width="68" height="20" fill="#F6ECE3"/>
<rect x="2" y="3" width="60" height="15" rx="7" fill="black"/>
<path d="M10.924 14V5.912H12.148L14.176 9.32L16.228 12.824C16.196 12.048 16.18 10.884 16.18 9.332V5.912H17.152V14H15.928L13.9 10.616C13.492 9.936 13.116 9.304 12.772 8.72C12.428 8.128 12.184 7.704 12.04 7.448L11.836 7.076C11.876 7.908 11.896 9.08 11.896 10.592V14H10.924ZM21.4222 14.108C20.5502 14.108 19.8582 13.816 19.3462 13.232C18.8422 12.64 18.5902 11.896 18.5902 11C18.5902 10.096 18.8502 9.344 19.3702 8.744C19.8982 8.136 20.5822 7.832 21.4222 7.832C22.3422 7.832 23.0502 8.128 23.5462 8.72C24.0502 9.312 24.3022 10.064 24.3022 10.976C24.3022 11.88 24.0462 12.628 23.5342 13.22C23.0222 13.812 22.3182 14.108 21.4222 14.108ZM21.4222 8.672C20.8462 8.672 20.3942 8.896 20.0662 9.344C19.7382 9.792 19.5742 10.34 19.5742 10.988C19.5742 11.62 19.7422 12.16 20.0782 12.608C20.4142 13.048 20.8622 13.268 21.4222 13.268C22.0302 13.268 22.4982 13.052 22.8262 12.62C23.1542 12.18 23.3182 11.636 23.3182 10.988C23.3182 10.316 23.1622 9.764 22.8502 9.332C22.5382 8.892 22.0622 8.672 21.4222 8.672ZM26.6245 7.916V8.984C26.9445 8.232 27.4965 7.856 28.2805 7.856C28.4245 7.856 28.5365 7.864 28.6165 7.88V8.816C28.4485 8.76 28.2765 8.732 28.1005 8.732C27.6765 8.732 27.3245 8.928 27.0445 9.32C26.7645 9.712 26.6245 10.164 26.6245 10.676V14H25.6765L25.6885 7.916H26.6245ZM30.9106 8.684V12.248C30.9106 12.896 31.2146 13.22 31.8226 13.22C32.1346 13.22 32.4106 13.128 32.6506 12.944V13.844C32.3866 13.988 32.0906 14.06 31.7626 14.06C30.5626 14.06 29.9626 13.448 29.9626 12.224V8.684H28.9906V7.916H29.9626V6.404H30.9106V7.916H32.5906V8.684H30.9106ZM34.9683 5.516V8.972C35.3283 8.212 35.9683 7.832 36.8883 7.832C37.4723 7.832 37.9403 8.012 38.2923 8.372C38.6523 8.732 38.8323 9.22 38.8323 9.836V14H37.8843V10.064C37.8843 9.624 37.7683 9.284 37.5363 9.044C37.3123 8.804 37.0163 8.684 36.6483 8.684C36.2003 8.684 35.8083 8.856 35.4723 9.2C35.1363 9.544 34.9683 10.036 34.9683 10.676V14H34.0323V5.516H34.9683ZM44.3887 10.568V10.328C44.3887 9.824 44.2527 9.424 43.9807 9.128C43.7087 8.824 43.3327 8.672 42.8527 8.672C42.3967 8.672 42.0087 8.836 41.6887 9.164C41.3687 9.492 41.1807 9.96 41.1247 10.568H44.3887ZM44.9527 12.8V13.688C44.4807 13.936 43.9047 14.06 43.2247 14.06C42.3047 14.06 41.5607 13.78 40.9927 13.22C40.4327 12.652 40.1527 11.904 40.1527 10.976C40.1527 10.008 40.4047 9.244 40.9087 8.684C41.4127 8.124 42.0607 7.844 42.8527 7.844C43.6127 7.844 44.2167 8.088 44.6647 8.576C45.1127 9.064 45.3367 9.756 45.3367 10.652C45.3367 10.908 45.3167 11.144 45.2767 11.36H41.1247C41.1967 11.96 41.4247 12.42 41.8087 12.74C42.1927 13.06 42.6967 13.22 43.3207 13.22C44.0007 13.22 44.5447 13.08 44.9527 12.8ZM47.7183 7.916V8.984C48.0383 8.232 48.5903 7.856 49.3743 7.856C49.5183 7.856 49.6303 7.864 49.7103 7.88V8.816C49.5423 8.76 49.3703 8.732 49.1943 8.732C48.7703 8.732 48.4183 8.928 48.1383 9.32C47.8583 9.712 47.7183 10.164 47.7183 10.676V14H46.7703L46.7823 7.916H47.7183ZM51.6323 7.916V8.972C51.9923 8.212 52.6323 7.832 53.5523 7.832C54.1443 7.832 54.6163 8.012 54.9683 8.372C55.3203 8.732 55.4963 9.212 55.4963 9.812V14H54.5483V10.064C54.5483 9.616 54.4323 9.276 54.2003 9.044C53.9763 8.804 53.6803 8.684 53.3123 8.684C52.8563 8.684 52.4603 8.86 52.1243 9.212C51.7963 9.564 51.6323 10.052 51.6323 10.676V14H50.6963V7.916H51.6323Z" fill="white"/>
</svg>
