<svg xmlns="http://www.w3.org/2000/svg" width="580" height="60" viewBox="0 0 580 60"><g transform="translate(-946 -883)"><g transform="translate(1186 883)"><rect width="100" height="60" rx="4" fill="#fff"></rect><path d="M83.656,29.984A19.939,19.939,0,1,1,63.717,9.967,19.939,19.939,0,0,1,83.656,29.984" fill="#c00" fill-rule="evenodd"></path><path d="M48.315,42.7A19.872,19.872,0,0,1,46.8,40.58h7.067a19.9,19.9,0,0,0,1.149-2.12H45.648a19.911,19.911,0,0,1-.844-2.119h11.05a20.236,20.236,0,0,0,.578-10.591h-12.2a19.98,19.98,0,0,1,.579-2.12H55.853a20.169,20.169,0,0,0-.843-2.119H45.65a20.287,20.287,0,0,1,1.149-2.12h7.062a20.226,20.226,0,0,0-1.519-2.118H48.317A20.166,20.166,0,0,1,50.33,15.15,20.043,20.043,0,1,0,52.344,42.7H48.315" fill="#06c" fill-rule="evenodd"></path><path d="M50.046,35.393a9.655,9.655,0,0,1-2.547.335c-2.779,0-4.227-1.273-4.227-3.7,0-2.839,1.843-4.927,4.344-4.927,2.046,0,3.352,1.171,3.352,3a7.835,7.835,0,0,1-.3,2.04H45.72c-.176,1.187.687,1.708,2.157,1.708a6.572,6.572,0,0,0,2.558-.515L50.046,35.4Zm-1.329-4.924c0-.179.275-1.453-1.156-1.481-.79,0-1.356.527-1.585,1.481Z" fill="#006" fill-rule="evenodd"></path><path d="M51.72,29.912c0,1.049.588,1.773,1.925,2.313,1.022.42,1.183.542,1.183.917,0,.52-.451.759-1.454.753a8.253,8.253,0,0,1-2.251-.323l-.359,1.913a14.274,14.274,0,0,0,2.628.244c2.669,0,3.9-.877,3.9-2.773a2.288,2.288,0,0,0-1.781-2.31c-1.059-.425-1.184-.517-1.184-.9,0-.452.42-.68,1.238-.68a16.222,16.222,0,0,1,1.82.124l.361-1.923a19.538,19.538,0,0,0-2.23-.165c-2.827,0-3.806,1.278-3.8,2.813" fill="#006" fill-rule="evenodd"></path><path d="M41.917,35.591H39.844l.049-.872a3.321,3.321,0,0,1-2.617,1.008A2.166,2.166,0,0,1,35,33.464c0-2.03,1.611-3.2,4.38-3.2a9.462,9.462,0,0,1,1.019.064,1.8,1.8,0,0,0,.1-.536c0-.555-.436-.76-1.6-.76a9.538,9.538,0,0,0-2.644.369l.354-1.862a11.287,11.287,0,0,1,2.98-.441c2.144,0,3.277.845,3.277,2.431a9.4,9.4,0,0,1-.2,1.645c-.084.541-.678,3.677-.74,4.418Zm-1.82-3.7a4.91,4.91,0,0,0-.557-.034c-1.414,0-2.131.423-2.131,1.257a.815.815,0,0,0,.9.851A1.913,1.913,0,0,0,40.1,31.888Z" fill="#006" fill-rule="evenodd"></path><path d="M61.661,35.46a6.431,6.431,0,0,1-1.784.269c-1.27,0-1.964-.652-1.964-1.812a17.357,17.357,0,0,1,.341-2.2c.07-.412,1.17-6.411,1.17-6.411h2.467l-.373,1.985h1.266l-.344,2.025H61.169s-.7,3.517-.7,3.785c0,.426.257.611.848.611a2.368,2.368,0,0,0,.669-.077l-.329,1.826" fill="#006" fill-rule="evenodd"></path><path d="M72.686,27.1a4.634,4.634,0,0,0-4.043,2l.713-1.851c-1.313-.484-2.159.207-2.924,1.188,0,0-.128.163-.256.312V27.288H63.859c-.314,2.568-.869,5.172-1.3,7.745l-.1.56h2.492c.237-1.306.431-2.366.624-3.211.529-2.319,1.421-3.027,2.758-2.713a5.417,5.417,0,0,0-.478,2.291c0,2.073,1.121,3.769,3.9,3.769,2.809,0,4.843-1.506,4.843-4.941a3.559,3.559,0,0,0-3.91-3.689Zm-.725,6.616c-.88.014-1.414-.728-1.414-1.838,0-1.315.779-2.8,2.03-2.8,1.01,0,1.355.8,1.355,1.66C73.932,32.608,73.168,33.716,71.961,33.716Z" fill="#006" fill-rule="evenodd"></path><path d="M33.836,35.592H31.353l1.475-7.8-3.4,7.8H27.17l-.413-7.756-1.48,7.756H23.024l1.918-10.148h3.879l.323,5.658L31.6,25.444h4.19L33.836,35.592" fill="#006" fill-rule="evenodd"></path><path d="M50.668,34.768a9.636,9.636,0,0,1-2.547.336c-2.779,0-4.227-1.274-4.227-3.7,0-2.839,1.842-4.927,4.343-4.927,2.046,0,3.352,1.171,3.352,3a7.86,7.86,0,0,1-.3,2.04H46.344c-.176,1.186.686,1.708,2.156,1.708a6.561,6.561,0,0,0,2.558-.515l-.39,2.057Zm-1.329-4.924c0-.179.275-1.453-1.155-1.481-.79,0-1.356.527-1.586,1.481Z" fill="#fff" fill-rule="evenodd"></path><path d="M52.343,29.286c0,1.049.588,1.773,1.925,2.313,1.023.42,1.183.542,1.183.916,0,.521-.452.76-1.453.754a8.259,8.259,0,0,1-2.251-.323l-.36,1.912a14.253,14.253,0,0,0,2.628.245c2.669,0,3.9-.877,3.9-2.774a2.288,2.288,0,0,0-1.782-2.31c-1.059-.425-1.184-.518-1.184-.9,0-.452.42-.681,1.238-.681a16.246,16.246,0,0,1,1.82.125l.361-1.923a19.258,19.258,0,0,0-2.229-.165c-2.828,0-3.807,1.277-3.8,2.812" fill="#fff" fill-rule="evenodd"></path><path d="M42.54,34.966H40.466l.05-.872A3.323,3.323,0,0,1,37.9,35.1a2.166,2.166,0,0,1-2.28-2.263c0-2.029,1.611-3.2,4.38-3.2a9.872,9.872,0,0,1,1.019.062,1.787,1.787,0,0,0,.1-.535c0-.557-.436-.76-1.6-.76a9.532,9.532,0,0,0-2.644.37l.353-1.862a11.287,11.287,0,0,1,2.981-.44c2.144,0,3.277.844,3.277,2.43a9.439,9.439,0,0,1-.2,1.645c-.085.541-.679,3.677-.741,4.418Zm-1.82-3.7a4.637,4.637,0,0,0-.557-.034c-1.413,0-2.131.422-2.131,1.256a.816.816,0,0,0,.895.853,1.913,1.913,0,0,0,1.793-2.074Z" fill="#fff" fill-rule="evenodd"></path><path d="M62.284,34.834A6.422,6.422,0,0,1,60.5,35.1c-1.27,0-1.963-.652-1.963-1.812a17.352,17.352,0,0,1,.34-2.2c.071-.412,1.171-6.411,1.171-6.411h2.467l-.373,1.985h1.266l-.344,2.026H61.793s-.7,3.517-.7,3.784c0,.428.257.612.848.612a2.358,2.358,0,0,0,.67-.077l-.329,1.826" fill="#fff" fill-rule="evenodd"></path><path d="M74.556,30.109c0,1.872-.765,2.979-1.972,2.979-.88.013-1.414-.728-1.414-1.838,0-1.315.779-2.8,2.03-2.8C74.21,28.45,74.556,29.25,74.556,30.109Zm2.664.053a3.559,3.559,0,0,0-3.91-3.689,4.575,4.575,0,0,0-4.838,4.862c0,2.073,1.121,3.769,3.9,3.769,2.809,0,4.843-1.506,4.843-4.942Z" fill="#fff" fill-rule="evenodd"></path><path d="M64.482,26.662c-.314,2.568-.869,5.172-1.3,7.745l-.1.561h2.492c.9-4.97,1.2-6.385,3.082-5.887l.9-2.351c-1.313-.484-2.158.207-2.923,1.189a5.817,5.817,0,0,0,.168-1.256H64.482" fill="#fff" fill-rule="evenodd"></path><path d="M34.459,34.967H31.977l1.475-7.8-3.4,7.8H27.793l-.414-7.756L25.9,34.967H23.647l1.918-10.149h3.879l.2,6.283,2.731-6.283H36.41L34.459,34.967" fill="#fff" fill-rule="evenodd"></path></g><g transform="translate(1066 883)"><rect width="100" height="60" rx="4" fill="#fff"></rect><path d="M56.129,30.485A19.515,19.515,0,1,1,36.614,10.97,19.515,19.515,0,0,1,56.129,30.485" fill="#c00" fill-rule="evenodd"></path><path d="M62.814,10.97a19.446,19.446,0,0,0-13.1,5.051,19.892,19.892,0,0,0-1.97,2.066h3.943a20.024,20.024,0,0,1,1.488,2.067h-6.92a19.606,19.606,0,0,0-1.124,2.067H54.3a19.435,19.435,0,0,1,.827,2.066H44.3a19.428,19.428,0,0,0-.567,2.066H55.69a19.653,19.653,0,0,1-.566,10.332H44.3a19.715,19.715,0,0,0,.826,2.067H54.3a19.55,19.55,0,0,1-1.126,2.067H46.255a19.675,19.675,0,0,0,1.488,2.065h3.942a19.5,19.5,0,0,1-1.971,2.067,19.515,19.515,0,1,0,13.1-33.98" fill="#f90" fill-rule="evenodd"></path><path d="M32.057,32.622a3.646,3.646,0,0,0-.473-.033c-1.2,0-1.808.412-1.808,1.226a.739.739,0,0,0,.759.82c.863,0,1.485-.822,1.522-2.012ZM33.6,36.209H31.842l.04-.834a2.66,2.66,0,0,1-2.22.973,1.98,1.98,0,0,1-1.935-2.2c0-1.96,1.369-3.1,3.719-3.1a7.25,7.25,0,0,1,.864.062,1.988,1.988,0,0,0,.083-.522c0-.533-.369-.733-1.358-.733a7.064,7.064,0,0,0-2.243.363c.022-.134.294-1.811.294-1.811a8.421,8.421,0,0,1,2.535-.426c1.82,0,2.783.817,2.781,2.36a10.321,10.321,0,0,1-.171,1.6c-.184,1.166-.579,3.666-.632,4.274Z" fill="#006" fill-rule="evenodd"></path><path d="M26.84,36.209H24.721L25.935,28.6l-2.711,7.609H21.781L21.6,28.643l-1.276,7.566h-1.98L20,26.31h3.047l.184,5.541L25.09,26.31h3.388l-1.639,9.9" fill="#006" fill-rule="evenodd"></path><path d="M65.432,32.622a3.626,3.626,0,0,0-.472-.033c-1.2,0-1.808.412-1.808,1.226a.738.738,0,0,0,.759.82c.863,0,1.485-.822,1.521-2.012Zm1.542,3.587H65.218l.04-.834a2.659,2.659,0,0,1-2.22.973,1.979,1.979,0,0,1-1.936-2.2c0-1.96,1.37-3.1,3.719-3.1a7.249,7.249,0,0,1,.863.062,1.975,1.975,0,0,0,.083-.522c0-.533-.369-.733-1.359-.733a7.079,7.079,0,0,0-2.244.363c.023-.134.3-1.811.3-1.811A8.417,8.417,0,0,1,65,27.979c1.821,0,2.783.817,2.781,2.36a10.245,10.245,0,0,1-.171,1.6c-.183,1.166-.579,3.666-.632,4.274Z" fill="#006" fill-rule="evenodd"></path><path d="M43.013,36.087a4.842,4.842,0,0,1-1.522.262,1.55,1.55,0,0,1-1.674-1.769,18.581,18.581,0,0,1,.29-2.146c.123-.752.919-5.494.919-5.494h2.1l-.246,1.218h1.272l-.287,1.935H42.6c-.245,1.531-.593,3.438-.6,3.691,0,.415.221.6.726.6a1.724,1.724,0,0,0,.571-.076l-.281,1.782" fill="#006" fill-rule="evenodd"></path><path d="M49.47,36.021a7.163,7.163,0,0,1-2.161.327c-2.358,0-3.587-1.234-3.587-3.591,0-2.752,1.563-4.778,3.686-4.778a2.69,2.69,0,0,1,2.845,2.913,8.609,8.609,0,0,1-.26,1.98H45.8c-.142,1.168.6,1.654,1.831,1.654a5,5,0,0,0,2.189-.506l-.351,2Zm-1.184-4.772c.012-.168.223-1.437-.981-1.437-.67,0-1.15.511-1.345,1.437Z" fill="#006" fill-rule="evenodd"></path><path d="M34.868,30.7a2.35,2.35,0,0,0,1.613,2.247c.858.4.991.523.991.888,0,.5-.379.729-1.217.729a5.952,5.952,0,0,1-1.9-.319l-.291,1.86a9.872,9.872,0,0,0,2.2.238c2.235,0,3.268-.851,3.268-2.691a2.2,2.2,0,0,0-1.493-2.244c-.888-.407-.991-.5-.991-.874,0-.435.353-.658,1.037-.658A11.7,11.7,0,0,1,39.614,30l.3-1.867a14.3,14.3,0,0,0-1.865-.156c-2.37,0-3.19,1.238-3.183,2.725" fill="#006" fill-rule="evenodd"></path><path d="M59.774,28.192a4.029,4.029,0,0,1,1.893.534l.347-2.148a6.224,6.224,0,0,0-2.329-.838,4.221,4.221,0,0,0-3.459,1.86c-1.226-.4-1.736.42-2.355,1.24l-.55.128a4.112,4.112,0,0,0,.068-.81H51.441c-.265,2.492-.736,5.016-1.1,7.509l-.1.542h2.12c.354-2.3.547-3.77.665-4.767l.8-.442c.12-.444.492-.594,1.241-.575a9.018,9.018,0,0,0-.151,1.65c0,2.634,1.423,4.274,3.7,4.274a6.611,6.611,0,0,0,1.873-.29L60.86,33.8a4.123,4.123,0,0,1-1.8.508c-1.232,0-1.977-.909-1.977-2.412,0-2.18,1.108-3.707,2.69-3.707" fill="#006" fill-rule="evenodd"></path><path d="M77.711,26.31l-.471,2.86a2.648,2.648,0,0,0-2.022-1.314,3.282,3.282,0,0,0-2.679,2,17.436,17.436,0,0,1-1.8-.5v.008a11.917,11.917,0,0,0,.093-1.212H68.881c-.264,2.492-.736,5.016-1.1,7.509l-.1.542H69.8c.286-1.858.5-3.4.666-4.625.725-.655,1.087-1.225,1.818-1.188A6.9,6.9,0,0,0,71.771,33c0,2.012,1.017,3.34,2.558,3.34a2.5,2.5,0,0,0,1.953-.888l-.1.749h2L79.8,26.3Zm-2.649,8.039c-.721,0-1.086-.535-1.086-1.587,0-1.582.682-2.7,1.643-2.7.728,0,1.123.554,1.123,1.577,0,1.6-.694,2.715-1.68,2.715Z" fill="#006" fill-rule="evenodd"></path><path d="M27.449,35.621H25.331l1.214-7.609-2.71,7.609H22.391l-.178-7.565-1.276,7.565H18.954l1.656-9.9h3.047l.085,6.127L25.8,25.724h3.29l-1.639,9.9" fill="#fff" fill-rule="evenodd"></path><path d="M32.667,32.036A3.522,3.522,0,0,0,32.194,32c-1.2,0-1.808.411-1.808,1.225a.74.74,0,0,0,.76.821c.863,0,1.485-.822,1.522-2.013Zm1.541,3.586H32.452l.04-.834a2.661,2.661,0,0,1-2.22.973,1.981,1.981,0,0,1-1.935-2.2c0-1.961,1.369-3.1,3.72-3.1a7.079,7.079,0,0,1,.864.063A2,2,0,0,0,33,30c0-.533-.369-.731-1.359-.731a7.038,7.038,0,0,0-2.243.361c.023-.133.294-1.81.294-1.81a8.445,8.445,0,0,1,2.536-.427c1.819,0,2.783.818,2.781,2.361a10.305,10.305,0,0,1-.171,1.6c-.184,1.165-.579,3.667-.633,4.274Z" fill="#fff" fill-rule="evenodd"></path><path d="M62.624,25.99l-.347,2.148a4.046,4.046,0,0,0-1.892-.534c-1.582,0-2.691,1.529-2.691,3.709,0,1.5.746,2.41,1.977,2.41a4.1,4.1,0,0,0,1.8-.508L61.1,35.471a6.612,6.612,0,0,1-1.872.29c-2.281,0-3.7-1.64-3.7-4.273,0-3.539,1.964-6.012,4.772-6.012a7.333,7.333,0,0,1,2.328.514" fill="#fff" fill-rule="evenodd"></path><path d="M66.041,32.036A3.5,3.5,0,0,0,65.57,32c-1.2,0-1.808.411-1.808,1.225a.74.74,0,0,0,.759.821c.863,0,1.485-.822,1.521-2.013Zm1.542,3.586H65.828l.04-.834a2.661,2.661,0,0,1-2.22.973,1.98,1.98,0,0,1-1.936-2.2c0-1.961,1.368-3.1,3.719-3.1a7.062,7.062,0,0,1,.863.063A1.988,1.988,0,0,0,66.377,30c0-.533-.368-.731-1.358-.731a7.042,7.042,0,0,0-2.242.361c.022-.133.294-1.81.294-1.81a8.441,8.441,0,0,1,2.535-.427c1.819,0,2.784.818,2.781,2.361a10.184,10.184,0,0,1-.171,1.6c-.183,1.165-.578,3.667-.633,4.274Z" fill="#fff" fill-rule="evenodd"></path><path d="M43.623,35.5a4.839,4.839,0,0,1-1.522.262,1.55,1.55,0,0,1-1.675-1.768,18.631,18.631,0,0,1,.291-2.146c.122-.753.918-5.494.918-5.494h2.106L43.5,27.572h1.081l-.288,1.934H43.2c-.245,1.532-.593,3.438-.6,3.691,0,.416.222.6.726.6a1.7,1.7,0,0,0,.571-.076L43.623,35.5" fill="#fff" fill-rule="evenodd"></path><path d="M50.081,35.436a7.212,7.212,0,0,1-2.162.326c-2.358,0-3.586-1.234-3.586-3.591,0-2.752,1.563-4.779,3.684-4.779a2.691,2.691,0,0,1,2.847,2.915,8.723,8.723,0,0,1-.259,1.979h-4.2c-.142,1.168.606,1.655,1.83,1.655a4.991,4.991,0,0,0,2.19-.508l-.35,2ZM48.9,30.662c.011-.168.223-1.437-.98-1.437-.67,0-1.151.512-1.346,1.437Z" fill="#fff" fill-rule="evenodd"></path><path d="M35.478,30.117a2.351,2.351,0,0,0,1.614,2.248c.858.4.991.523.991.889,0,.5-.378.728-1.217.728a5.97,5.97,0,0,1-1.9-.317l-.291,1.857a9.809,9.809,0,0,0,2.2.239c2.236,0,3.268-.851,3.268-2.69a2.2,2.2,0,0,0-1.494-2.243c-.888-.409-.99-.5-.99-.875,0-.435.352-.659,1.037-.659a11.784,11.784,0,0,1,1.522.122l.3-1.867a14.422,14.422,0,0,0-1.865-.158c-2.37,0-3.19,1.238-3.183,2.725" fill="#fff" fill-rule="evenodd"></path><path d="M78.8,35.621h-2l.1-.749a2.5,2.5,0,0,1-1.953.889c-1.54,0-2.558-1.327-2.558-3.341,0-2.678,1.579-4.934,3.447-4.934a2.391,2.391,0,0,1,2.023,1.1l.47-2.86H80.41l-1.614,9.9Zm-3.126-1.86c.987,0,1.68-1.118,1.68-2.712,0-1.023-.394-1.579-1.123-1.579-.961,0-1.643,1.122-1.643,2.7,0,1.053.365,1.586,1.086,1.586Z" fill="#fff" fill-rule="evenodd"></path><path d="M69.492,27.572c-.265,2.492-.736,5.015-1.1,7.508l-.1.541h2.119c.758-4.923.94-5.883,2.13-5.763a7.9,7.9,0,0,1,.8-2.335c-.887-.185-1.383.316-2.032,1.269a7.331,7.331,0,0,0,.128-1.221H69.492" fill="#fff" fill-rule="evenodd"></path><path d="M52.052,27.572c-.266,2.492-.738,5.015-1.106,7.508l-.1.541h2.12c.758-4.923.94-5.883,2.127-5.763a7.95,7.95,0,0,1,.805-2.335c-.886-.185-1.383.316-2.031,1.269A7.3,7.3,0,0,0,54,27.572H52.052" fill="#fff" fill-rule="evenodd"></path></g><g transform="translate(946 883)"><rect width="100" height="60" rx="4" fill="#fff"></rect><path d="M41.49,39.547l3.075-19.074H49.48L46.4,39.547H41.49" fill="#26337a" fill-rule="evenodd"></path><path d="M64.233,20.941a12.15,12.15,0,0,0-4.4-.8c-4.859,0-8.28,2.588-8.308,6.295-.031,2.742,2.441,4.271,4.3,5.182,1.915.934,2.559,1.532,2.551,2.367-.013,1.277-1.529,1.863-2.942,1.863a9.844,9.844,0,0,1-4.63-1l-.632-.3-.687,4.27a14.834,14.834,0,0,0,5.476,1.017c5.164,0,8.52-2.557,8.559-6.515.018-2.174-1.292-3.822-4.128-5.183-1.718-.885-2.772-1.47-2.76-2.366,0-.793.891-1.641,2.816-1.641a8.621,8.621,0,0,1,3.678.733l.441.218.666-4.135" fill="#26337a" fill-rule="evenodd"></path><path d="M70.777,32.784c.407-1.1,1.958-5.332,1.958-5.332-.029.05.4-1.1.653-1.82l.332,1.645s.943,4.553,1.137,5.506ZM76.84,20.492h-3.8a2.428,2.428,0,0,0-2.576,1.581l-7.3,17.48H68.33s.842-2.352,1.033-2.868c.563,0,5.579.01,6.3.01.147.666.6,2.858.6,2.858h4.562L76.841,20.492Z" fill="#26337a" fill-rule="evenodd"></path><path d="M37.367,20.489l-4.811,13-.515-2.643a14.647,14.647,0,0,0-6.808-8l4.4,16.682h5.2l7.74-19.038H37.367" fill="#26337a" fill-rule="evenodd"></path><path d="M28.091,20.476H20.165l-.065.4c6.167,1.58,10.248,5.394,11.941,9.978L30.319,22.09a2.064,2.064,0,0,0-2.228-1.609" fill="#ed982d" fill-rule="evenodd"></path></g><g transform="translate(1306 883)"><rect width="100" height="60" rx="4" fill="#fff"></rect><path d="M84.407,34.666H80.874a1.345,1.345,0,0,0-.784.146.629.629,0,0,0-.283.582.61.61,0,0,0,.424.6,2.215,2.215,0,0,0,.747.092l1.051.028a3.07,3.07,0,0,1,2.2.651,1.042,1.042,0,0,1,.18.2Zm0,5.332a3.025,3.025,0,0,1-2.631,1.035H78.033V39.3h3.728a1.105,1.105,0,0,0,.784-.2.71.71,0,0,0,.229-.528.663.663,0,0,0-.237-.535.987.987,0,0,0-.683-.18c-1.82-.062-4.091.056-4.091-2.5,0-1.173.747-2.408,2.781-2.408H84.4V31.336H80.82a4.051,4.051,0,0,0-2.426.66v-.66H73.087a3.682,3.682,0,0,0-2.316.66v-.66H61.295V32a5.055,5.055,0,0,0-2.614-.66H52.43V32a4.432,4.432,0,0,0-2.732-.66h-7l-1.6,1.727L39.6,31.34H29.153V42.621H39.406l1.649-1.754,1.554,1.754,6.32.006V39.972h.621a6.6,6.6,0,0,0,2.7-.4V42.62h5.213V39.679h.251c.321,0,.352.013.352.333V42.62H73.9a4.526,4.526,0,0,0,2.638-.722v.722h5.023A6.747,6.747,0,0,0,84.4,42.1V40Zm-7.733-3.231a2.247,2.247,0,0,1,.58,1.714c0,1.74-1.09,2.552-3.045,2.552H70.433V39.3h3.761a1.142,1.142,0,0,0,.792-.2.716.716,0,0,0,.229-.528.693.693,0,0,0-.237-.535,1.022,1.022,0,0,0-.69-.18c-1.813-.062-4.083.056-4.083-2.5,0-1.173.739-2.408,2.772-2.408h3.886V34.67H73.307a1.314,1.314,0,0,0-.777.146A.677.677,0,0,0,72.663,36a2.235,2.235,0,0,0,.754.092l1.044.028a3.134,3.134,0,0,1,2.214.65Zm-17.492-.5a1.86,1.86,0,0,1-.957.167H55.87V34.617h2.387a1.915,1.915,0,0,1,.925.146.769.769,0,0,1,.4.728.871.871,0,0,1-.4.776Zm1.171,1.007a2.107,2.107,0,0,1,.95.679,2.35,2.35,0,0,1,.321,1.476v1.6H59.678V40.02c0-.487.047-1.207-.313-1.583a1.884,1.884,0,0,0-1.422-.359H55.871v2.954H53.923V32.944H58.4a4.812,4.812,0,0,1,2.332.382,1.893,1.893,0,0,1,1,1.8,2.265,2.265,0,0,1-1.374,2.152Zm2.447-4.33h6.47v1.673H64.733v1.47h4.429v1.65H64.733v1.609l4.539.007v1.678H62.8ZM49.723,36.677H47.218v-2.06h2.528c.7,0,1.186.284,1.186.992s-.463,1.068-1.208,1.068ZM45.287,40.3,42.311,37l2.976-3.19V40.3ZM37.6,39.35H32.835V37.738h4.256v-1.65H32.835v-1.47h4.86l2.12,2.357L37.6,39.347Zm15.412-3.738c0,2.247-1.681,2.711-3.376,2.711H47.218v2.713H43.45l-2.387-2.677-2.481,2.677H30.9V32.944h7.8L41.085,35.6l2.466-2.651h6.194c1.538,0,3.267.425,3.267,2.664Z" fill="#0072ce" fill-rule="evenodd"></path><path d="M21.655,23.624,20.328,20.4l-1.319,3.223Zm29.23-1.284a1.8,1.8,0,0,1-.959.167H47.571v-1.8h2.387a1.994,1.994,0,0,1,.919.146.74.74,0,0,1,.407.715.826.826,0,0,1-.4.769Zm16.8,1.284L66.343,20.4l-1.334,3.223ZM36.368,27.113H34.381l-.007-6.333-2.811,6.333h-1.7l-2.818-6.338v6.338H23.1l-.745-1.8H18.318l-.752,1.8h-2.1l3.471-8.086h2.88l3.3,7.656V19.028h3.164l2.537,5.485,2.33-5.485h3.228v8.086Zm7.921,0H37.813V19.028h6.476v1.684H39.752v1.457H44.18v1.657H39.752v1.615h4.537v1.672Zm9.131-5.908a2.277,2.277,0,0,1-1.366,2.155,2.248,2.248,0,0,1,.959.681,2.32,2.32,0,0,1,.321,1.484v1.588H51.378l-.007-1.02a2.42,2.42,0,0,0-.306-1.575,1.9,1.9,0,0,0-1.413-.346H47.571v2.941H45.632V19.028h4.459a4.578,4.578,0,0,1,2.347.387,1.885,1.885,0,0,1,.981,1.79Zm3.1,5.908H54.544V19.028h1.978v8.086Zm22.947,0H76.722l-3.674-6.069v6.069H69.1l-.754-1.8H64.318l-.732,1.8H61.318a4.083,4.083,0,0,1-2.811-.894,4.062,4.062,0,0,1-1.036-3.087,4.3,4.3,0,0,1,1.045-3.162,3.942,3.942,0,0,1,2.944-.943h1.877V20.76H61.5a1.87,1.87,0,0,0-1.492.479,2.664,2.664,0,0,0-.557,1.832,2.8,2.8,0,0,0,.533,1.9,1.873,1.873,0,0,0,1.351.417h.871l2.732-6.359h2.9l3.282,7.648V19.028h2.952l3.408,5.631V19.028h1.986v8.085ZM15.438,28.7H18.75l.747-1.8h1.672l.745,1.8h6.517V27.328l.582,1.379H32.4l.582-1.4V28.7h16.2l-.008-2.948h.313c.219.008.284.028.284.389V28.7h8.377v-.686a6.653,6.653,0,0,0,3.109.686h3.524l.754-1.8H67.2l.738,1.8h6.791V27l1.026,1.7H81.2V17.424H75.811v1.332l-.754-1.332H69.531v1.332l-.693-1.332H61.374a6.721,6.721,0,0,0-3.235.658v-.658H52.988v.658a3.2,3.2,0,0,0-2.189-.658H31.979l-1.263,2.913-1.3-2.913H23.492v1.332l-.651-1.332H17.785l-2.348,5.362V28.7Z" fill="#0072ce" fill-rule="evenodd"></path></g><g transform="translate(-120)"><rect width="100" height="60" rx="4" transform="translate(1546 883)" fill="#fff"></rect><path d="M78.335,14.33A2.3,2.3,0,1,0,79.96,15a2.3,2.3,0,0,0-1.625-.674M70.8,7.228V6.447h3.657V18.662H70.8v-.78a6.445,6.445,0,1,1,0-10.653ZM67.47,15.7a3.233,3.233,0,0,0,3.314-3.143,3.319,3.319,0,0,0-6.628,0A3.232,3.232,0,0,0,67.47,15.7ZM54.226,6.118a4.446,4.446,0,0,0-3.768,1.7V6.447H46.817V18.662H50.5v-6.42a2.575,2.575,0,0,1,2.746-2.766c1.607,0,2.53.96,2.53,2.741v6.445H59.43V10.894c0-2.843-2.26-4.776-5.207-4.776m-12.7,1.92V6.447h-3.74V18.662h3.753v-5.7c0-1.924,2.086-2.959,3.533-2.959h.043V6.448a4.561,4.561,0,0,0-3.584,1.59m-9.315-.81V6.447H35.87V18.662H32.213v-.78a6.445,6.445,0,1,1,0-10.653ZM28.887,15.7A3.233,3.233,0,0,0,32.2,12.555a3.319,3.319,0,0,0-6.628,0A3.232,3.232,0,0,0,28.887,15.7ZM16.815,18.662h3.828V1H16.815ZM14.177,1H10.21a10.143,10.143,0,0,1-4.1,8.187L4.538,10.364l6.09,8.3h5.006l-5.6-7.64A14.05,14.05,0,0,0,14.177,1M0,18.667H4.053V1H0Z" transform="translate(1556.685 903)" fill="#17120f"></path></g></g></svg>