<svg xmlns="http://www.w3.org/2000/svg" width="41" height="40" viewBox="0 0 41 40" fill="none"><path d="M34.8762 8.01788C32.3436 6.61302 30.5157 4.36524 29.9455 1.74493C29.8223 1.17879 29.7547 0.596143 29.7547 0H21.6718L21.6589 27.5599C21.523 30.6461 18.5374 33.1232 14.8773 33.1232C13.7398 33.1232 12.6687 32.8812 11.7256 32.459C9.5629 31.4907 8.08288 29.562 8.08288 27.3426C8.08288 24.155 11.131 21.5617 14.8773 21.5617C15.5767 21.5617 16.2476 21.6598 16.8821 21.829V14.8085C16.2254 14.7324 15.5582 14.6848 14.8773 14.6848C6.6738 14.6848 0 20.3631 0 27.3426C0 31.6248 2.51473 35.4144 6.35124 37.7059C8.76778 39.1493 11.7072 40 14.8773 40C23.0809 40 29.7547 34.3221 29.7547 27.3426V13.3673C32.9249 15.3032 36.8089 16.444 41 16.444V9.56719C38.7424 9.56719 36.6396 8.99616 34.8762 8.01788" fill="#F6ECE3"></path></svg>