<svg xmlns="http://www.w3.org/2000/svg" width="55" height="59" viewBox="0 0 55 59" fill="none"><path opacity="0.65" d="M6.83783 32.6996C6.96092 37.8938 7.49148 41.0414 8.48893 46.1827C9.01525 48.9174 9.65192 51.6592 10.972 54.2316C11.7232 55.689 12.8395 58.1979 14.9151 58.8119C19.0959 60.0469 20.2716 54.8844 20.7131 52.559C21.6171 47.8059 21.0272 45.0394 22.8523 40.3886C23.5611 38.589 25.4711 37.0822 27.5 36.9623C29.5289 37.0822 31.4389 38.589 32.1477 40.3886C33.9728 45.0394 33.3829 47.8059 34.2869 52.559C34.7284 54.8844 35.9083 60.0469 40.0849 58.8119C42.1605 58.1979 43.2768 55.689 44.028 54.2316C45.3481 51.6592 45.9847 48.9174 46.5153 46.1827C47.5085 41.0414 48.0391 37.8938 48.1622 32.6996C48.3362 32.5973 48.4848 32.4491 48.5696 32.2479C52.1859 23.7685 60.8702 8.80335 48.8583 1.78127C46.0314 0.12632 42.2708 -0.254779 38.7946 0.147491C34.1638 0.68738 31.2139 1.85185 27.5 2.0424C23.7861 1.85185 20.8362 0.68738 16.2054 0.147491C12.7292 -0.254779 8.97281 0.12632 6.14173 1.78127C-5.87017 8.80335 2.81405 23.7685 6.43036 32.2479C6.51949 32.4491 6.6638 32.5973 6.83783 32.6996Z" fill="black"></path></svg>